<?xml version="1.0" encoding="UTF-8"?>
<!DOCTYPE svg PUBLIC "-//W3C//DTD SVG 1.1//EN" "http://www.w3.org/Graphics/SVG/1.1/DTD/svg11.dtd">
<svg xmlns="http://www.w3.org/2000/svg" version="1.1" width="364px" height="245px" style="shape-rendering:geometricPrecision; text-rendering:geometricPrecision; image-rendering:optimizeQuality; fill-rule:evenodd; clip-rule:evenodd" xmlns:xlink="http://www.w3.org/1999/xlink">
<g><path style="opacity:1" fill="#f4f4f4" d="M -0.5,-0.5 C 120.833,-0.5 242.167,-0.5 363.5,-0.5C 363.5,3.16667 363.5,6.83333 363.5,10.5C 242.167,10.5 120.833,10.5 -0.5,10.5C -0.5,6.83333 -0.5,3.16667 -0.5,-0.5 Z"/></g>
<g><path style="opacity:1" fill="#f3f3f3" d="M -0.5,10.5 C 120.833,10.5 242.167,10.5 363.5,10.5C 363.5,15.8333 363.5,21.1667 363.5,26.5C 356.833,26.5 350.167,26.5 343.5,26.5C 343.5,25.5 343.5,24.5 343.5,23.5C 308.847,22.5557 274.181,22.2224 239.5,22.5C 239.822,26.439 238.489,27.2723 235.5,25C 235.833,24.6667 236.167,24.3333 236.5,24C 232.179,23.501 227.846,23.3343 223.5,23.5C 223.649,22.448 223.483,21.448 223,20.5C 221.667,22.5 220,24.1667 218,25.5C 217.506,27.1341 217.34,28.8008 217.5,30.5C 217.167,30.5 216.833,30.5 216.5,30.5C 215.833,29.5 215.167,28.5 214.5,27.5C 215.614,24.8229 215.614,22.1562 214.5,19.5C 211.07,20.7422 209.737,19.4089 210.5,15.5C 209.5,15.5 208.5,15.5 207.5,15.5C 207.543,18.0878 208.543,20.2544 210.5,22C 208.809,28.6004 207.809,28.7671 207.5,22.5C 196.833,23.1667 186.167,23.8333 175.5,24.5C 175.5,23.5 175.5,22.5 175.5,21.5C 179.846,21.6657 184.179,21.499 188.5,21C 190.886,20.7165 191.552,19.7165 190.5,18C 186.5,17.3333 182.5,17.3333 178.5,18C 173.042,19.8535 167.709,21.6868 162.5,23.5C 156.148,22.9794 149.815,22.3127 143.5,21.5C 143.5,22.5 143.5,23.5 143.5,24.5C 138.167,24.5 132.833,24.5 127.5,24.5C 127.5,25.5 127.5,26.5 127.5,27.5C 135.851,27.2898 144.184,27.1231 152.5,27C 156.274,27.5474 157.607,29.3807 156.5,32.5C 155.833,32.5 155.167,32.5 154.5,32.5C 154.586,31.5041 154.252,30.6708 153.5,30C 144.482,29.168 135.482,29.3347 126.5,30.5C 127.689,31.4287 129.022,31.762 130.5,31.5C 130.5,42.5 130.5,53.5 130.5,64.5C 130.158,65.3382 129.492,65.6716 128.5,65.5C 127.244,65.5386 126.244,65.0386 125.5,64C 126.967,62.9025 127.801,61.4025 128,59.5C 128.667,54.8333 128.667,50.1667 128,45.5C 125.864,43.6224 124.364,41.289 123.5,38.5C 122.583,37.8728 121.583,37.5394 120.5,37.5C 117.94,34.7803 114.94,32.6136 111.5,31C 102.705,29.3554 94.0383,29.1887 85.5,30.5C 83.8621,29.8411 82.1955,29.1744 80.5,28.5C 79.1667,26.8333 79.1667,25.1667 80.5,23.5C 81.4776,23.9767 82.3109,24.6433 83,25.5C 84.2492,23.0085 85.4158,23.1751 86.5,26C 94.8065,27.1638 103.14,27.9971 111.5,28.5C 111.5,27.5 111.5,26.5 111.5,25.5C 106.325,25.8319 100.992,25.8319 95.5,25.5C 95.5,24.5 95.5,23.5 95.5,22.5C 91.774,22.8226 88.1073,22.4892 84.5,21.5C 85.1667,20.8333 85.8333,20.1667 86.5,19.5C 84.2573,18.5258 81.924,18.1924 79.5,18.5C 79.5,19.8333 79.5,21.1667 79.5,22.5C 76.9272,22.8515 74.5938,22.3515 72.5,21C 76.5671,19.0914 76.2338,18.2581 71.5,18.5C 68.7943,18.4811 66.2943,19.1478 64,20.5C 61.7875,19.2405 59.2875,18.5738 56.5,18.5C 48.1818,17.7601 39.8484,17.4267 31.5,17.5C 31.5,18.5 31.5,19.5 31.5,20.5C 37.7019,20.7269 43.8685,20.3936 50,19.5C 52.5,20 55,20.5 57.5,21C 47.3059,24.3886 37.1392,25.2219 27,23.5C 25.7753,23.8623 24.6086,24.3623 23.5,25C 31.2806,26.9921 39.2806,27.9921 47.5,28C 38.8397,28.4998 30.1731,28.6664 21.5,28.5C 21.2627,29.791 21.596,30.791 22.5,31.5C 24.099,31.2322 25.4324,31.5655 26.5,32.5C 26.8099,43.5813 26.4766,54.5813 25.5,65.5C 22.2655,64.424 18.9322,63.7573 15.5,63.5C 16.4697,67.2014 16.4697,70.7014 15.5,74C 10.1771,74.4994 4.84372,74.666 -0.5,74.5C -0.5,53.1667 -0.5,31.8333 -0.5,10.5 Z"/></g>
<g><path style="opacity:1" fill="#a6afba" d="M 48.5,36.5 C 44.8333,36.5 41.1667,36.5 37.5,36.5C 37.81,39.7131 37.4767,42.7131 36.5,45.5C 36.5,41.8333 36.5,38.1667 36.5,34.5C 35.325,34.719 34.325,34.3857 33.5,33.5C 37.122,32.3414 40.7887,32.1747 44.5,33C 46.5503,33.4162 47.8836,34.5829 48.5,36.5 Z"/></g>
<g><path style="opacity:1" fill="#b0b5b9" d="M 50.5,30.5 C 54.1566,33.0964 55.4899,36.7631 54.5,41.5C 52.3364,41.2785 50.6697,40.2785 49.5,38.5C 50.4731,36.0521 50.8064,33.3854 50.5,30.5 Z"/></g>
<g><path style="opacity:1" fill="#5b6a81" d="M 50.5,30.5 C 50.8064,33.3854 50.4731,36.0521 49.5,38.5C 48.6618,38.1583 48.3284,37.4916 48.5,36.5C 47.8836,34.5829 46.5503,33.4162 44.5,33C 40.7887,32.1747 37.122,32.3414 33.5,33.5C 34.325,34.3857 35.325,34.719 36.5,34.5C 36.5,38.1667 36.5,41.8333 36.5,45.5C 36.9118,46.7155 38.9118,46.8821 42.5,46C 43.0897,44.4905 43.7564,42.9905 44.5,41.5C 45.1067,41.6236 45.44,41.9569 45.5,42.5C 45.858,46.5986 45.858,50.5986 45.5,54.5C 44.1425,50.0831 41.1425,48.4164 36.5,49.5C 36.1778,55.358 36.5111,61.0247 37.5,66.5C 36.9157,68.2569 35.749,69.5902 34,70.5C 32.5936,69.5862 31.0936,68.9195 29.5,68.5C 27.076,68.8076 24.7427,68.4742 22.5,67.5C 23.325,66.6143 24.325,66.281 25.5,66.5C 27.4672,66.2606 29.3005,66.5939 31,67.5C 31.4999,55.5046 31.6665,43.5046 31.5,31.5C 36.8437,31.666 42.1771,31.4994 47.5,31C 41.1754,30.5005 34.8421,30.3338 28.5,30.5C 28.8279,41.6794 28.4946,52.6794 27.5,63.5C 27.8276,52.9865 27.4942,42.6532 26.5,32.5C 25.4324,31.5655 24.099,31.2322 22.5,31.5C 26.6139,30.1739 31.1139,29.5073 36,29.5C 40.9129,29.5258 45.7462,29.8591 50.5,30.5 Z"/></g>
<g><path style="opacity:1" fill="#9cacbd" d="M 26.5,32.5 C 27.4942,42.6532 27.8276,52.9865 27.5,63.5C 27.5,64.8333 26.8333,65.5 25.5,65.5C 26.4766,54.5813 26.8099,43.5813 26.5,32.5 Z"/></g>
<g><path style="opacity:1" fill="#6a7375" d="M 184.5,32.5 C 185.594,42.7994 185.76,53.1328 185,63.5C 184.617,64.056 184.117,64.3893 183.5,64.5C 183.172,53.6536 183.506,42.9869 184.5,32.5 Z"/></g>
<g><path style="opacity:1" fill="#aaaab0" d="M 185.5,31.5 C 185.937,33.0744 186.937,34.2411 188.5,35C 187.833,44.6667 187.167,54.3333 186.5,64C 189.146,64.4974 191.813,64.6641 194.5,64.5C 190.833,65.8333 187.167,65.8333 183.5,64.5C 184.117,64.3893 184.617,64.056 185,63.5C 185.76,53.1328 185.594,42.7994 184.5,32.5C 184.5,31.8333 184.833,31.5 185.5,31.5 Z"/></g>
<g><path style="opacity:1" fill="#4f6591" d="M 25.5,66.5 C 25.5,66.1667 25.5,65.8333 25.5,65.5C 26.8333,65.5 27.5,64.8333 27.5,63.5C 28.4946,52.6794 28.8279,41.6794 28.5,30.5C 34.8421,30.3338 41.1754,30.5005 47.5,31C 42.1771,31.4994 36.8437,31.666 31.5,31.5C 31.6665,43.5046 31.4999,55.5046 31,67.5C 29.3005,66.5939 27.4672,66.2606 25.5,66.5 Z"/></g>
<g><path style="opacity:1" fill="#526583" d="M 188.5,29.5 C 188.611,30.1174 188.944,30.6174 189.5,31C 188.207,31.49 186.873,31.6567 185.5,31.5C 184.833,31.5 184.5,31.8333 184.5,32.5C 183.506,42.9869 183.172,53.6536 183.5,64.5C 187.167,65.8333 190.833,65.8333 194.5,64.5C 198.833,64.1667 201.167,61.8333 201.5,57.5C 202.5,57.5 203.5,57.5 204.5,57.5C 203.626,60.7893 202.959,64.1226 202.5,67.5C 195.352,68.4916 188.019,68.825 180.5,68.5C 179.833,68.5 179.167,68.5 178.5,68.5C 176.396,68.7989 174.396,68.4656 172.5,67.5C 173.602,66.8243 174.602,66.1577 175.5,65.5C 176.829,60.3762 177.495,54.8762 177.5,49C 177.499,43.3229 177.166,37.8229 176.5,32.5C 175.282,31.8386 173.949,31.1719 172.5,30.5C 177.792,29.5052 183.125,29.1718 188.5,29.5 Z"/></g>
<g><path style="opacity:1" fill="#b2b6bd" d="M 45.5,42.5 C 46.29,43.6085 46.79,44.9419 47,46.5C 48,45.1667 49,45.1667 50,46.5C 50.498,49.4816 50.6646,52.4816 50.5,55.5C 46.1434,55.4135 41.81,55.0802 37.5,54.5C 37.5,58.5 37.5,62.5 37.5,66.5C 36.5111,61.0247 36.1778,55.358 36.5,49.5C 41.1425,48.4164 44.1425,50.0831 45.5,54.5C 45.858,50.5986 45.858,46.5986 45.5,42.5 Z"/></g>
<g><path style="opacity:1" fill="#aabacb" d="M 176.5,32.5 C 177.166,37.8229 177.499,43.3229 177.5,49C 177.495,54.8762 176.829,60.3762 175.5,65.5C 176.477,54.5813 176.81,43.5813 176.5,32.5 Z"/></g>
<g><path style="opacity:1" fill="#eff1f0" d="M 214.5,27.5 C 210.929,27.4077 209.762,29.0743 211,32.5C 211.383,33.056 211.883,33.3893 212.5,33.5C 216.051,38.9402 218.717,38.6069 220.5,32.5C 218.821,32.7148 217.821,32.0481 217.5,30.5C 217.34,28.8008 217.506,27.1341 218,25.5C 220,24.1667 221.667,22.5 223,20.5C 223.483,21.448 223.649,22.448 223.5,23.5C 227.846,23.3343 232.179,23.501 236.5,24C 236.167,24.3333 235.833,24.6667 235.5,25C 238.489,27.2723 239.822,26.439 239.5,22.5C 274.181,22.2224 308.847,22.5557 343.5,23.5C 343.5,24.5 343.5,25.5 343.5,26.5C 350.167,26.5 356.833,26.5 363.5,26.5C 363.5,53.8333 363.5,81.1667 363.5,108.5C 314.166,108.333 264.832,108.5 215.5,109C 213.893,110.049 213.227,111.549 213.5,113.5C 215.547,113.511 217.547,113.844 219.5,114.5C 221.425,114.41 222.592,113.41 223,111.5C 223.323,115.292 221.489,117.292 217.5,117.5C 215.442,116.067 213.108,115.4 210.5,115.5C 209.791,114.596 208.791,114.263 207.5,114.5C 207.5,113.5 207.5,112.5 207.5,111.5C 204.549,111.713 201.882,111.046 199.5,109.5C 197.621,110.341 195.621,110.675 193.5,110.5C 190.872,108.202 190.872,105.869 193.5,103.5C 194.396,104.506 195.062,104.506 195.5,103.5C 194.311,102.571 192.978,102.238 191.5,102.5C 191.5,100.833 191.5,99.1667 191.5,97.5C 194.428,97.4349 197.095,96.7682 199.5,95.5C 200.494,94.0011 200.494,92.3344 199.5,90.5C 199.833,90.5 200.167,90.5 200.5,90.5C 201.5,91.5 202.5,92.5 203.5,93.5C 203.56,94.0431 203.893,94.3764 204.5,94.5C 205.167,93.8333 205.833,93.1667 206.5,92.5C 210.802,96.6449 214.802,96.3116 218.5,91.5C 219.167,92.8333 219.833,94.1667 220.5,95.5C 225.663,96.1137 230.663,95.447 235.5,93.5C 235.397,90.7814 235.731,88.1147 236.5,85.5C 236.439,83.3472 235.439,82.0138 233.5,81.5C 232.167,81.5 230.833,81.5 229.5,81.5C 228.833,82.1667 228.167,82.8333 227.5,83.5C 227.389,82.8826 227.056,82.3826 226.5,82C 224.527,81.5045 222.527,81.3379 220.5,81.5C 219.5,81.5 218.5,81.5 217.5,81.5C 217.179,79.9519 216.179,79.2852 214.5,79.5C 214.5,80.8333 214.5,82.1667 214.5,83.5C 214.795,85.7354 214.461,87.7354 213.5,89.5C 213.802,86.9407 213.468,84.6074 212.5,82.5C 212.5,81.8333 212.167,81.5 211.5,81.5C 210.432,80.5655 209.099,80.2322 207.5,80.5C 207.5,79.1667 207.5,77.8333 207.5,76.5C 208.5,76.5 209.5,76.5 210.5,76.5C 210.838,73.8431 210.171,71.5098 208.5,69.5C 207.77,70.9337 206.77,72.1004 205.5,73C 196.485,73.3803 187.485,73.0469 178.5,72C 177.316,70.8545 177.316,69.6879 178.5,68.5C 179.167,68.5 179.833,68.5 180.5,68.5C 180.5,69.5 180.5,70.5 180.5,71.5C 188.833,71.5 197.167,71.5 205.5,71.5C 205.785,69.712 205.452,68.0453 204.5,66.5C 203.817,66.8627 203.15,67.1961 202.5,67.5C 202.959,64.1226 203.626,60.7893 204.5,57.5C 203.5,57.5 202.5,57.5 201.5,57.5C 201.167,61.8333 198.833,64.1667 194.5,64.5C 191.813,64.6641 189.146,64.4974 186.5,64C 187.167,54.3333 187.833,44.6667 188.5,35C 186.937,34.2411 185.937,33.0744 185.5,31.5C 186.873,31.6567 188.207,31.49 189.5,31C 188.944,30.6174 188.611,30.1174 188.5,29.5C 179.627,27.3344 170.96,25.3344 162.5,23.5C 167.709,21.6868 173.042,19.8535 178.5,18C 182.5,17.3333 186.5,17.3333 190.5,18C 191.552,19.7165 190.886,20.7165 188.5,21C 184.179,21.499 179.846,21.6657 175.5,21.5C 175.5,22.5 175.5,23.5 175.5,24.5C 186.167,23.8333 196.833,23.1667 207.5,22.5C 207.809,28.7671 208.809,28.6004 210.5,22C 208.543,20.2544 207.543,18.0878 207.5,15.5C 208.5,15.5 209.5,15.5 210.5,15.5C 209.737,19.4089 211.07,20.7422 214.5,19.5C 215.614,22.1562 215.614,24.8229 214.5,27.5 Z"/></g>
<g><path style="opacity:1" fill="#536686" d="M 290.5,47.5 C 290.5,53.1667 290.5,58.8333 290.5,64.5C 291.552,64.3505 292.552,64.5172 293.5,65C 292.663,66.0113 292.33,67.1779 292.5,68.5C 289.092,69.172 286.425,68.172 284.5,65.5C 282.02,66.4154 281.353,67.9154 282.5,70C 280.402,70.6776 278.402,70.5109 276.5,69.5C 273.885,68.5501 271.885,66.8835 270.5,64.5C 269.309,59.5308 270.976,56.1975 275.5,54.5C 278.14,53.1799 280.807,51.8466 283.5,50.5C 285.374,45.5447 283.708,43.3781 278.5,44C 277.357,46.4254 276.024,48.5921 274.5,50.5C 273.609,49.8902 272.609,49.5569 271.5,49.5C 271.5,48.1667 271.5,46.8333 271.5,45.5C 272.401,44.7095 273.068,43.7095 273.5,42.5C 277.627,40.0404 281.961,39.8738 286.5,42C 288.464,43.451 289.797,45.2843 290.5,47.5 Z"/></g>
<g><path style="opacity:1" fill="#596c92" d="M 210.5,65.5 C 210.5,58.8333 210.5,52.1667 210.5,45.5C 211.779,44.032 213.446,43.3653 215.5,43.5C 215.666,51.1739 215.5,58.8406 215,66.5C 214.374,64.0087 213.541,64.0087 212.5,66.5C 211.817,66.1373 211.15,65.8039 210.5,65.5 Z"/></g>
<g><path style="opacity:1" fill="#969ea9" d="M 281.5,63.5 C 278.107,65.2806 276.107,64.114 275.5,60C 275.57,59.2352 275.903,58.7352 276.5,58.5C 276.369,59.2389 276.536,59.9056 277,60.5C 278.264,58.393 280.097,57.393 282.5,57.5C 282.756,59.9124 281.756,61.5791 279.5,62.5C 279.957,63.2975 280.624,63.6309 281.5,63.5 Z"/></g>
<g><path style="opacity:1" fill="#c3cddb" d="M 281.5,63.5 C 280.624,63.6309 279.957,63.2975 279.5,62.5C 281.756,61.5791 282.756,59.9124 282.5,57.5C 280.097,57.393 278.264,58.393 277,60.5C 276.536,59.9056 276.369,59.2389 276.5,58.5C 283.585,50.7188 285.919,52.0521 283.5,62.5C 282.817,62.8627 282.15,63.1961 281.5,63.5 Z"/></g>
<g><path style="opacity:1" fill="#4f6386" d="M 303.5,43.5 C 303.826,52.0168 303.493,60.3501 302.5,68.5C 300.708,67.6909 298.708,67.1909 296.5,67C 297.056,66.6174 297.389,66.1174 297.5,65.5C 297.5,58.8333 297.5,52.1667 297.5,45.5C 295.058,45.6463 294.391,44.813 295.5,43C 297.5,42.5 299.5,42 301.5,41.5C 302.713,41.7472 303.38,42.4138 303.5,43.5 Z"/></g>
<g><path style="opacity:1" fill="#546786" d="M 268.5,43.5 C 268.528,47.3192 266.862,48.3192 263.5,46.5C 261.971,46.5288 260.804,47.1955 260,48.5C 259.501,54.4908 259.334,60.4908 259.5,66.5C 260.5,66.5 261.5,66.5 262.5,66.5C 262.209,67.6491 261.376,68.3158 260,68.5C 256.973,68.0877 254.14,67.421 251.5,66.5C 253.405,59.7808 254.071,52.7808 253.5,45.5C 252.5,45.5 251.5,45.5 250.5,45.5C 250.5,44.5 250.5,43.5 250.5,42.5C 252.488,42.1729 254.488,41.8396 256.5,41.5C 257.994,41.7092 259.161,42.3759 260,43.5C 262.95,40.8555 265.783,40.8555 268.5,43.5 Z"/></g>
<g><path style="opacity:1" fill="#8e9093" d="M 248.5,48.5 C 250.755,50.7586 251.755,53.592 251.5,57C 251.135,61.2171 249.802,65.0504 247.5,68.5C 246.833,68.8333 246.167,69.1667 245.5,69.5C 242.03,69.2895 242.03,68.1229 245.5,66C 244.906,65.5357 244.239,65.369 243.5,65.5C 247.476,60.6115 249.143,54.9448 248.5,48.5 Z"/></g>
<g><path style="opacity:1" fill="#566478" d="M 216.5,44.5 C 216.5,45.1667 216.5,45.8333 216.5,46.5C 216.5,53.5 216.5,60.5 216.5,67.5C 217.5,67.5 218.5,67.5 219.5,67.5C 219.5,68.5 219.5,69.5 219.5,70.5C 217.114,70.7413 215.114,70.0746 213.5,68.5C 211.25,68.8186 209.25,68.3186 207.5,67C 208.527,66.4867 209.527,65.9867 210.5,65.5C 211.15,65.8039 211.817,66.1373 212.5,66.5C 213.541,64.0087 214.374,64.0087 215,66.5C 215.5,58.8406 215.666,51.1739 215.5,43.5C 213.446,43.3653 211.779,44.032 210.5,45.5C 209.325,45.719 208.325,45.3857 207.5,44.5C 209.92,41.9228 212.92,40.9228 216.5,41.5C 216.5,42.5 216.5,43.5 216.5,44.5 Z"/></g>
<g><path style="opacity:1" fill="#72777f" d="M 303.5,43.5 C 303.833,43.5 304.167,43.5 304.5,43.5C 304.427,45.0269 305.094,46.0269 306.5,46.5C 306.375,53.255 306.709,59.9217 307.5,66.5C 307.468,68.5666 306.468,69.8999 304.5,70.5C 303.287,70.2528 302.62,69.5862 302.5,68.5C 303.493,60.3501 303.826,52.0168 303.5,43.5 Z"/></g>
<g><path style="opacity:1" fill="#c7c9cc" d="M 216.5,44.5 C 218.911,44.1367 220.411,45.1367 221,47.5C 221.199,55.2155 221.699,62.8822 222.5,70.5C 219.437,72.9683 216.104,73.135 212.5,71C 213.252,70.3292 213.586,69.4959 213.5,68.5C 215.114,70.0746 217.114,70.7413 219.5,70.5C 219.5,69.5 219.5,68.5 219.5,67.5C 219.666,60.825 219.5,54.1583 219,47.5C 218.329,46.7476 217.496,46.4142 216.5,46.5C 216.5,45.8333 216.5,45.1667 216.5,44.5 Z"/></g>
<g><path style="opacity:1" fill="#727a80" d="M 216.5,46.5 C 217.496,46.4142 218.329,46.7476 219,47.5C 219.5,54.1583 219.666,60.825 219.5,67.5C 218.5,67.5 217.5,67.5 216.5,67.5C 216.5,60.5 216.5,53.5 216.5,46.5 Z"/></g>
<g><path style="opacity:1" fill="#d0d8e3" d="M 273.5,42.5 C 273.068,43.7095 272.401,44.7095 271.5,45.5C 270.5,44.8333 269.5,44.1667 268.5,43.5C 265.783,40.8555 262.95,40.8555 260,43.5C 259.161,42.3759 257.994,41.7092 256.5,41.5C 254.488,41.8396 252.488,42.1729 250.5,42.5C 250.5,43.5 250.5,44.5 250.5,45.5C 251.5,45.5 252.5,45.5 253.5,45.5C 254.071,52.7808 253.405,59.7808 251.5,66.5C 250.833,66.5 250.5,66.8333 250.5,67.5C 249.391,67.5569 248.391,67.8902 247.5,68.5C 249.802,65.0504 251.135,61.2171 251.5,57C 251.755,53.592 250.755,50.7586 248.5,48.5C 246.5,45.8333 244.167,43.5 241.5,41.5C 243.734,42.2199 245.901,42.5533 248,42.5C 249.784,40.6327 251.784,38.9661 254,37.5C 255.371,38.5812 256.871,39.4145 258.5,40C 263.675,40.088 268.675,40.9213 273.5,42.5 Z"/></g>
<g><path style="opacity:1" fill="#7e848d" d="M 268.5,43.5 C 269.5,44.1667 270.5,44.8333 271.5,45.5C 271.5,46.8333 271.5,48.1667 271.5,49.5C 270.021,50.5064 268.354,50.5064 266.5,49.5C 264.971,49.5288 263.804,50.1955 263,51.5C 262.501,56.4889 262.334,61.4889 262.5,66.5C 261.5,66.5 260.5,66.5 259.5,66.5C 259.334,60.4908 259.501,54.4908 260,48.5C 260.804,47.1955 261.971,46.5288 263.5,46.5C 266.862,48.3192 268.528,47.3192 268.5,43.5 Z"/></g>
<g><path style="opacity:1" fill="#aeb9c6" d="M 275.5,54.5 C 275.567,53.0413 275.234,51.7079 274.5,50.5C 276.024,48.5921 277.357,46.4254 278.5,44C 283.708,43.3781 285.374,45.5447 283.5,50.5C 280.807,51.8466 278.14,53.1799 275.5,54.5 Z"/></g>
<g><path style="opacity:1" fill="#546585" d="M 323.5,43.5 C 322.402,44.6009 322.235,45.9343 323,47.5C 325.377,51.2896 327.377,55.2896 329,59.5C 329.791,58.255 330.291,56.9217 330.5,55.5C 331.288,51.9274 332.621,48.594 334.5,45.5C 334.081,44.3279 333.415,43.3279 332.5,42.5C 333.833,42.1667 335.167,41.8333 336.5,41.5C 338.333,41.5854 339.666,42.2521 340.5,43.5C 338.314,44.8233 336.814,46.8233 336,49.5C 332.466,58.9879 328.632,68.3212 324.5,77.5C 322.18,79.2261 319.513,79.8928 316.5,79.5C 314.623,78.3409 314.123,76.6742 315,74.5C 317.518,73.9391 320.018,73.6057 322.5,73.5C 324.243,71.1436 325.243,68.4769 325.5,65.5C 323.859,60.8659 321.859,56.5326 319.5,52.5C 319.03,48.0963 317.03,45.4297 313.5,44.5C 314.95,45.8498 315.617,47.5165 315.5,49.5C 312.366,48.7593 309.366,47.7593 306.5,46.5C 305.094,46.0269 304.427,45.0269 304.5,43.5C 305.289,43.2172 305.956,42.7172 306.5,42C 312.528,41.1697 318.528,41.3364 324.5,42.5C 324.376,43.1067 324.043,43.44 323.5,43.5 Z"/></g>
<g><path style="opacity:1" fill="#93a0a7" d="M 323.5,43.5 C 323.821,45.0481 324.821,45.7148 326.5,45.5C 325.75,49.7754 327.083,53.1087 330.5,55.5C 330.291,56.9217 329.791,58.255 329,59.5C 327.377,55.2896 325.377,51.2896 323,47.5C 322.235,45.9343 322.402,44.6009 323.5,43.5 Z"/></g>
<g><path style="opacity:1" fill="#9ea7b1" d="M 230.5,31.5 C 231.833,31.5 233.167,31.5 234.5,31.5C 234.5,34.5 234.5,37.5 234.5,40.5C 236.735,40.2053 238.735,40.5386 240.5,41.5C 236.92,40.9228 233.92,41.9228 231.5,44.5C 231.167,44.1667 230.833,43.8333 230.5,43.5C 231.167,42.5 231.833,41.5 232.5,40.5C 231.725,37.5164 231.059,34.5164 230.5,31.5 Z"/></g>
<g><path style="opacity:1" fill="#9da0a2" d="M 216.5,30.5 C 216.833,30.5 217.167,30.5 217.5,30.5C 217.821,32.0481 218.821,32.7148 220.5,32.5C 218.717,38.6069 216.051,38.9402 212.5,33.5C 213.833,33.5 215.167,33.5 216.5,33.5C 216.5,32.5 216.5,31.5 216.5,30.5 Z"/></g>
<g><path style="opacity:1" fill="#556889" d="M 214.5,27.5 C 215.167,28.5 215.833,29.5 216.5,30.5C 216.5,31.5 216.5,32.5 216.5,33.5C 215.167,33.5 213.833,33.5 212.5,33.5C 211.883,33.3893 211.383,33.056 211,32.5C 209.762,29.0743 210.929,27.4077 214.5,27.5 Z"/></g>
<g><path style="opacity:1" fill="#506382" d="M 230.5,31.5 C 231.059,34.5164 231.725,37.5164 232.5,40.5C 231.833,41.5 231.167,42.5 230.5,43.5C 230.833,43.8333 231.167,44.1667 231.5,44.5C 233.92,41.9228 236.92,40.9228 240.5,41.5C 240.833,41.5 241.167,41.5 241.5,41.5C 244.167,43.5 246.5,45.8333 248.5,48.5C 249.143,54.9448 247.476,60.6115 243.5,65.5C 240.044,68.2075 236.044,69.5409 231.5,69.5C 229.608,68.2983 227.774,66.965 226,65.5C 225.5,54.505 225.333,43.505 225.5,32.5C 224.167,32.5 222.833,32.5 221.5,32.5C 221.5,31.5 221.5,30.5 221.5,29.5C 224.5,28.8333 227.5,28.1667 230.5,27.5C 230.5,28.8333 230.5,30.1667 230.5,31.5 Z"/></g>
<g><path style="opacity:1" fill="#8e9497" d="M 241.5,49.5 C 238.956,49.1043 236.789,49.771 235,51.5C 234.501,56.1548 234.334,60.8215 234.5,65.5C 235.833,65.5 237.167,65.5 238.5,65.5C 235.644,66.8983 232.978,66.3983 230.5,64C 231.146,58.5522 231.812,53.0522 232.5,47.5C 236.363,44.5167 239.363,45.1833 241.5,49.5 Z"/></g>
<g><path style="opacity:1" fill="#e5eaeb" d="M 241.5,49.5 C 242.643,52.9758 242.81,56.6425 242,60.5C 241.331,62.5902 240.164,64.2568 238.5,65.5C 237.167,65.5 235.833,65.5 234.5,65.5C 234.334,60.8215 234.501,56.1548 235,51.5C 236.789,49.771 238.956,49.1043 241.5,49.5 Z"/></g>
<g><path style="opacity:1" fill="#8e959b" d="M 290.5,47.5 C 291.5,47.5 292.5,47.5 293.5,47.5C 293.183,53.9092 293.683,60.2425 295,66.5C 295.671,65.7476 296.504,65.4142 297.5,65.5C 297.389,66.1174 297.056,66.6174 296.5,67C 298.708,67.1909 300.708,67.6909 302.5,68.5C 302.62,69.5862 303.287,70.2528 304.5,70.5C 306.468,69.8999 307.468,68.5666 307.5,66.5C 310.931,70.1029 310.098,71.7696 305,71.5C 303.5,71.3333 302,71.1667 300.5,71C 300.957,70.586 301.291,70.086 301.5,69.5C 300.5,69.1667 299.5,68.8333 298.5,68.5C 296.006,68.859 293.839,69.859 292,71.5C 290.449,70.9465 288.949,70.2798 287.5,69.5C 285.448,70.5122 283.281,71.1789 281,71.5C 279.014,71.4313 277.514,70.7647 276.5,69.5C 278.402,70.5109 280.402,70.6776 282.5,70C 281.353,67.9154 282.02,66.4154 284.5,65.5C 286.425,68.172 289.092,69.172 292.5,68.5C 292.33,67.1779 292.663,66.0113 293.5,65C 292.552,64.5172 291.552,64.3505 290.5,64.5C 290.5,58.8333 290.5,53.1667 290.5,47.5 Z"/></g>
<g><path style="opacity:1" fill="#eff0ef" d="M 85.5,30.5 C 86.9187,31.4511 88.5853,31.7845 90.5,31.5C 90.5,42.5 90.5,53.5 90.5,64.5C 89.3951,65.6005 88.0618,66.2671 86.5,66.5C 85.9569,66.56 85.6236,66.8933 85.5,67.5C 88.0865,68.48 90.7531,68.8134 93.5,68.5C 93.5,69.5 93.5,70.5 93.5,71.5C 100.167,71.5 106.833,71.5 113.5,71.5C 117.542,70.8127 121.208,69.146 124.5,66.5C 125.182,67.2427 125.849,67.9094 126.5,68.5C 128.833,68.5 131.167,68.5 133.5,68.5C 132.791,69.404 131.791,69.7373 130.5,69.5C 130.5,70.5 130.5,71.5 130.5,72.5C 135.513,73.673 140.513,73.673 145.5,72.5C 144.973,69.7686 144.14,67.1019 143,64.5C 142.333,61.5 142.333,58.5 143,55.5C 144.699,54.5939 146.533,54.2606 148.5,54.5C 150.265,55.4614 152.265,55.7947 154.5,55.5C 153.592,49.93 155.092,45.2633 159,41.5C 159.948,37.9029 159.115,34.9029 156.5,32.5C 157.607,29.3807 156.274,27.5474 152.5,27C 144.184,27.1231 135.851,27.2898 127.5,27.5C 127.5,26.5 127.5,25.5 127.5,24.5C 132.833,24.5 138.167,24.5 143.5,24.5C 143.5,23.5 143.5,22.5 143.5,21.5C 149.815,22.3127 156.148,22.9794 162.5,23.5C 170.96,25.3344 179.627,27.3344 188.5,29.5C 183.125,29.1718 177.792,29.5052 172.5,30.5C 173.949,31.1719 175.282,31.8386 176.5,32.5C 176.81,43.5813 176.477,54.5813 175.5,65.5C 174.602,66.1577 173.602,66.8243 172.5,67.5C 174.396,68.4656 176.396,68.7989 178.5,68.5C 177.316,69.6879 177.316,70.8545 178.5,72C 187.485,73.0469 196.485,73.3803 205.5,73C 206.77,72.1004 207.77,70.9337 208.5,69.5C 210.171,71.5098 210.838,73.8431 210.5,76.5C 209.5,76.5 208.5,76.5 207.5,76.5C 207.5,77.8333 207.5,79.1667 207.5,80.5C 204.615,80.1936 201.948,80.5269 199.5,81.5C 199.5,82.1667 199.5,82.8333 199.5,83.5C 199.167,83.5 198.833,83.5 198.5,83.5C 198.167,83.5 197.833,83.5 197.5,83.5C 197.167,82.5 196.5,81.8333 195.5,81.5C 194.167,80.1667 192.833,80.1667 191.5,81.5C 190.833,81.5 190.5,81.8333 190.5,82.5C 189.833,82.8333 189.167,83.1667 188.5,83.5C 187.656,81.2407 185.989,80.2407 183.5,80.5C 179.098,80.7719 174.765,80.4386 170.5,79.5C 167.36,80.0894 164.36,80.7561 161.5,81.5C 159.402,86.6386 161.069,89.972 166.5,91.5C 164.784,91.9972 163.117,92.3306 161.5,92.5C 162.32,94.1112 163.654,94.7778 165.5,94.5C 165.926,96.2849 167.092,97.2849 169,97.5C 171.612,96.7228 173.445,95.0562 174.5,92.5C 175.281,93.7366 176.281,94.7366 177.5,95.5C 179.349,94.407 181.016,93.0737 182.5,91.5C 184.11,92.5522 185.777,92.5522 187.5,91.5C 191.712,91.5757 195.712,92.909 199.5,95.5C 197.095,96.7682 194.428,97.4349 191.5,97.5C 191.5,99.1667 191.5,100.833 191.5,102.5C 192.978,102.238 194.311,102.571 195.5,103.5C 195.062,104.506 194.396,104.506 193.5,103.5C 190.872,105.869 190.872,108.202 193.5,110.5C 190.548,109.027 187.881,109.36 185.5,111.5C 185.5,111.833 185.5,112.167 185.5,112.5C 170.172,111.689 154.839,111.522 139.5,112C 135.355,112.912 131.355,114.078 127.5,115.5C 122.045,117.558 116.379,119.225 110.5,120.5C 105.135,121.26 100.468,119.926 96.5,116.5C 95.5326,115.194 94.1993,114.527 92.5,114.5C 92.5,112.833 92.5,111.167 92.5,109.5C 91.5,109.5 90.5,109.5 89.5,109.5C 88.8333,111.833 88.1667,114.167 87.5,116.5C 85.4482,117.053 85.1148,118.053 86.5,119.5C 85.0272,122.247 82.6939,123.081 79.5,122C 81.5333,118.897 82.7,115.397 83,111.5C 84.3988,110.773 85.8988,110.273 87.5,110C 86.5,109.5 85.5,109 84.5,108.5C 77.8781,109.471 77.8781,109.138 84.5,107.5C 84.9059,105.891 84.9059,104.557 84.5,103.5C 61.5351,104.642 38.5351,104.642 15.5,103.5C 15.5,102.5 15.5,101.5 15.5,100.5C 10.1667,100.5 4.83333,100.5 -0.5,100.5C -0.5,91.8333 -0.5,83.1667 -0.5,74.5C 4.84372,74.666 10.1771,74.4994 15.5,74C 16.4697,70.7014 16.4697,67.2014 15.5,63.5C 18.9322,63.7573 22.2655,64.424 25.5,65.5C 25.5,65.8333 25.5,66.1667 25.5,66.5C 24.325,66.281 23.325,66.6143 22.5,67.5C 24.7427,68.4742 27.076,68.8076 29.5,68.5C 29.0472,69.4584 28.3805,70.2917 27.5,71C 31.35,72.7554 35.35,72.9221 39.5,71.5C 38.9724,69.6639 38.3058,67.9972 37.5,66.5C 37.5,62.5 37.5,58.5 37.5,54.5C 41.81,55.0802 46.1434,55.4135 50.5,55.5C 50.6646,52.4816 50.498,49.4816 50,46.5C 49,45.1667 48,45.1667 47,46.5C 46.79,44.9419 46.29,43.6085 45.5,42.5C 45.44,41.9569 45.1067,41.6236 44.5,41.5C 43.7564,42.9905 43.0897,44.4905 42.5,46C 38.9118,46.8821 36.9118,46.7155 36.5,45.5C 37.4767,42.7131 37.81,39.7131 37.5,36.5C 41.1667,36.5 44.8333,36.5 48.5,36.5C 48.3284,37.4916 48.6618,38.1583 49.5,38.5C 50.6697,40.2785 52.3364,41.2785 54.5,41.5C 55.4899,36.7631 54.1566,33.0964 50.5,30.5C 45.7462,29.8591 40.9129,29.5258 36,29.5C 31.1139,29.5073 26.6139,30.1739 22.5,31.5C 21.596,30.791 21.2627,29.791 21.5,28.5C 30.1731,28.6664 38.8397,28.4998 47.5,28C 39.2806,27.9921 31.2806,26.9921 23.5,25C 24.6086,24.3623 25.7753,23.8623 27,23.5C 37.1392,25.2219 47.3059,24.3886 57.5,21C 55,20.5 52.5,20 50,19.5C 43.8685,20.3936 37.7019,20.7269 31.5,20.5C 31.5,19.5 31.5,18.5 31.5,17.5C 39.8484,17.4267 48.1818,17.7601 56.5,18.5C 59.2875,18.5738 61.7875,19.2405 64,20.5C 66.2943,19.1478 68.7943,18.4811 71.5,18.5C 76.2338,18.2581 76.5671,19.0914 72.5,21C 74.5938,22.3515 76.9272,22.8515 79.5,22.5C 79.5,21.1667 79.5,19.8333 79.5,18.5C 81.924,18.1924 84.2573,18.5258 86.5,19.5C 85.8333,20.1667 85.1667,20.8333 84.5,21.5C 88.1073,22.4892 91.774,22.8226 95.5,22.5C 95.5,23.5 95.5,24.5 95.5,25.5C 100.992,25.8319 106.325,25.8319 111.5,25.5C 111.5,26.5 111.5,27.5 111.5,28.5C 103.14,27.9971 94.8065,27.1638 86.5,26C 85.4158,23.1751 84.2492,23.0085 83,25.5C 82.3109,24.6433 81.4776,23.9767 80.5,23.5C 79.1667,25.1667 79.1667,26.8333 80.5,28.5C 82.1955,29.1744 83.8621,29.8411 85.5,30.5 Z"/></g>
<g><path style="opacity:1" fill="#4c5a71" d="M 96.5,34.5 C 97.4779,45.0291 97.8112,55.3625 97.5,65.5C 98.1667,65.5 98.8333,65.5 99.5,65.5C 110.109,68.4387 117.609,64.4387 122,53.5C 122.221,49.2877 122.388,45.2877 122.5,41.5C 125.35,50.6259 123.35,58.2926 116.5,64.5C 106.617,68.4915 96.617,69.1581 86.5,66.5C 88.0618,66.2671 89.3951,65.6005 90.5,64.5C 91.7791,65.968 93.4458,66.6347 95.5,66.5C 95.1722,55.6536 95.5056,44.9869 96.5,34.5 Z"/></g>
<g><path style="opacity:1" fill="#cbcccc" d="M 120.5,37.5 C 121.583,37.5394 122.583,37.8728 123.5,38.5C 124.364,41.289 125.864,43.6224 128,45.5C 128.667,50.1667 128.667,54.8333 128,59.5C 127.801,61.4025 126.967,62.9025 125.5,64C 126.244,65.0386 127.244,65.5386 128.5,65.5C 128.5,65.8333 128.5,66.1667 128.5,66.5C 127.167,66.5 126.5,67.1667 126.5,68.5C 125.849,67.9094 125.182,67.2427 124.5,66.5C 121.208,69.146 117.542,70.8127 113.5,71.5C 115.5,70.1667 117.5,68.8333 119.5,67.5C 122.147,64.883 124.314,61.883 126,58.5C 126.667,54.8333 126.667,51.1667 126,47.5C 125.284,45.1209 124.117,43.1209 122.5,41.5C 122.267,39.9382 121.6,38.6049 120.5,37.5 Z"/></g>
<g><path style="opacity:1" fill="#4f668e" d="M 135.5,67.5 C 132.941,67.8016 130.607,67.4682 128.5,66.5C 128.5,66.1667 128.5,65.8333 128.5,65.5C 129.492,65.6716 130.158,65.3382 130.5,64.5C 132.244,53.7191 132.91,42.7191 132.5,31.5C 133.5,31.5 134.5,31.5 135.5,31.5C 136.238,43.429 136.238,55.429 135.5,67.5 Z"/></g>
<g><path style="opacity:1" fill="#b7bdc1" d="M 79.5,53.5 C 76.4928,55.1745 73.1595,55.8412 69.5,55.5C 69.5,59.1667 69.5,62.8333 69.5,66.5C 68.325,66.719 67.325,66.3857 66.5,65.5C 67.3847,60.8738 68.0513,56.2072 68.5,51.5C 71.0661,51.6556 73.5661,51.3223 76,50.5C 76.5,50.6667 77,50.8333 77.5,51C 73.8265,53.1568 74.4932,53.9902 79.5,53.5 Z"/></g>
<g><path style="opacity:1" fill="#818992" d="M 147.5,42.5 C 148.209,41.596 149.209,41.2627 150.5,41.5C 150.215,45.0248 150.881,48.3582 152.5,51.5C 151.9,53.4677 150.567,54.4677 148.5,54.5C 148.389,53.8826 148.056,53.3826 147.5,53C 145.19,52.5034 142.857,52.3367 140.5,52.5C 139.963,57.7388 140.63,62.7388 142.5,67.5C 142.376,68.1067 142.043,68.44 141.5,68.5C 140.019,67.5788 138.686,66.4121 137.5,65C 138.09,60.168 138.757,55.3346 139.5,50.5C 143.264,48.763 146.431,49.4297 149,52.5C 149.167,50.8333 149.333,49.1667 149.5,47.5C 149.444,45.3603 148.777,43.6936 147.5,42.5 Z"/></g>
<g><path style="opacity:1" fill="#72787e" d="M 122.5,41.5 C 124.117,43.1209 125.284,45.1209 126,47.5C 126.667,51.1667 126.667,54.8333 126,58.5C 124.314,61.883 122.147,64.883 119.5,67.5C 116.84,68.3471 114.174,68.8471 111.5,69C 113.844,68.1628 115.844,66.8294 117.5,65C 117.272,64.6012 116.938,64.4346 116.5,64.5C 123.35,58.2926 125.35,50.6259 122.5,41.5 Z"/></g>
<g><path style="opacity:1" fill="#5d6978" d="M 66.5,32.5 C 65.9569,32.56 65.6236,32.8933 65.5,33.5C 66.325,34.3857 67.325,34.719 68.5,34.5C 68.3529,39.2748 67.3529,43.6081 65.5,47.5C 64.9569,47.56 64.6236,47.8933 64.5,48.5C 69.9368,49.8543 75.2702,49.5209 80.5,47.5C 81.4892,43.8927 81.8226,40.226 81.5,36.5C 82.4584,36.9528 83.2917,37.6195 84,38.5C 84.6667,41.8333 84.6667,45.1667 84,48.5C 82.975,50.687 81.475,52.3536 79.5,53.5C 74.4932,53.9902 73.8265,53.1568 77.5,51C 77,50.8333 76.5,50.6667 76,50.5C 73.5661,51.3223 71.0661,51.6556 68.5,51.5C 68.0513,56.2072 67.3847,60.8738 66.5,65.5C 67.325,66.3857 68.325,66.719 69.5,66.5C 69.5,67.8333 68.8333,68.5 67.5,68.5C 66.1667,68.5 64.8333,68.5 63.5,68.5C 63.5,67.5 63.5,66.5 63.5,65.5C 63.5,54.5 63.5,43.5 63.5,32.5C 64.6522,31.375 65.6522,31.375 66.5,32.5 Z"/></g>
<g><path style="opacity:1" fill="#4f6791" d="M 63.5,32.5 C 63.5,43.5 63.5,54.5 63.5,65.5C 62.5,65.5 61.5,65.5 60.5,65.5C 60.5,54.1667 60.5,42.8333 60.5,31.5C 61.791,31.2627 62.791,31.596 63.5,32.5 Z"/></g>
<g><path style="opacity:1" fill="#5b6c88" d="M 81.5,36.5 C 81.8226,40.226 81.4892,43.8927 80.5,47.5C 75.2702,49.5209 69.9368,49.8543 64.5,48.5C 64.6236,47.8933 64.9569,47.56 65.5,47.5C 71.4163,49.288 74.7496,46.9547 75.5,40.5C 75.0747,35.0798 72.0747,32.4131 66.5,32.5C 65.6522,31.375 64.6522,31.375 63.5,32.5C 62.791,31.596 61.791,31.2627 60.5,31.5C 60.5,42.8333 60.5,54.1667 60.5,65.5C 61.5,65.5 62.5,65.5 63.5,65.5C 63.5,66.5 63.5,67.5 63.5,68.5C 64.8333,68.5 66.1667,68.5 67.5,68.5C 67.2089,69.6491 66.3756,70.3158 65,70.5C 61.5708,69.2675 58.0708,68.2675 54.5,67.5C 55.7598,66.6184 56.9264,65.6184 58,64.5C 58.4998,53.505 58.6665,42.505 58.5,31.5C 57.0222,31.762 55.6888,31.4287 54.5,30.5C 60.4724,29.3364 66.4724,29.1697 72.5,30C 76.4996,30.8397 79.4996,33.0064 81.5,36.5 Z"/></g>
<g><path style="opacity:1" fill="#d0d6de" d="M 66.5,32.5 C 72.0747,32.4131 75.0747,35.0798 75.5,40.5C 74.7496,46.9547 71.4163,49.288 65.5,47.5C 67.3529,43.6081 68.3529,39.2748 68.5,34.5C 67.325,34.719 66.325,34.3857 65.5,33.5C 65.6236,32.8933 65.9569,32.56 66.5,32.5 Z"/></g>
<g><path style="opacity:1" fill="#d3d6d9" d="M 154.5,32.5 C 155.167,32.5 155.833,32.5 156.5,32.5C 159.115,34.9029 159.948,37.9029 159,41.5C 155.092,45.2633 153.592,49.93 154.5,55.5C 152.265,55.7947 150.265,55.4614 148.5,54.5C 150.567,54.4677 151.9,53.4677 152.5,51.5C 150.881,48.3582 150.215,45.0248 150.5,41.5C 149.209,41.2627 148.209,41.596 147.5,42.5C 147.64,44.1238 146.973,45.2904 145.5,46C 142.676,46.8012 140.676,46.6346 139.5,45.5C 141.162,43.0877 142.162,40.2544 142.5,37C 145.817,36.5017 149.15,36.335 152.5,36.5C 152.369,37.3764 152.702,38.0431 153.5,38.5C 154.466,36.604 154.799,34.604 154.5,32.5 Z"/></g>
<g><path style="opacity:1" fill="#596983" d="M 154.5,32.5 C 154.799,34.604 154.466,36.604 153.5,38.5C 152.702,38.0431 152.369,37.3764 152.5,36.5C 151.657,34.8267 150.324,33.66 148.5,33C 144.789,32.1747 141.122,32.3414 137.5,33.5C 139.331,37.2408 139.997,41.2408 139.5,45.5C 140.676,46.6346 142.676,46.8012 145.5,46C 146.973,45.2904 147.64,44.1238 147.5,42.5C 148.777,43.6936 149.444,45.3603 149.5,47.5C 149.333,49.1667 149.167,50.8333 149,52.5C 146.431,49.4297 143.264,48.763 139.5,50.5C 138.757,55.3346 138.09,60.168 137.5,65C 138.686,66.4121 140.019,67.5788 141.5,68.5C 139.265,68.7947 137.265,68.4614 135.5,67.5C 136.238,55.429 136.238,43.429 135.5,31.5C 134.5,31.5 133.5,31.5 132.5,31.5C 132.91,42.7191 132.244,53.7191 130.5,64.5C 130.5,53.5 130.5,42.5 130.5,31.5C 129.022,31.762 127.689,31.4287 126.5,30.5C 135.482,29.3347 144.482,29.168 153.5,30C 154.252,30.6708 154.586,31.5041 154.5,32.5 Z"/></g>
<g><path style="opacity:1" fill="#a4adb5" d="M 152.5,36.5 C 149.15,36.335 145.817,36.5017 142.5,37C 142.162,40.2544 141.162,43.0877 139.5,45.5C 139.997,41.2408 139.331,37.2408 137.5,33.5C 141.122,32.3414 144.789,32.1747 148.5,33C 150.324,33.66 151.657,34.8267 152.5,36.5 Z"/></g>
<g><path style="opacity:1" fill="#54688c" d="M 120.5,37.5 C 121.6,38.6049 122.267,39.9382 122.5,41.5C 122.388,45.2877 122.221,49.2877 122,53.5C 117.609,64.4387 110.109,68.4387 99.5,65.5C 101.735,65.7947 103.735,65.4614 105.5,64.5C 107.441,64.1307 109.275,63.464 111,62.5C 115.908,57.0184 117.574,50.685 116,43.5C 115.901,41.3474 115.067,39.6808 113.5,38.5C 108.788,32.3979 103.122,31.0646 96.5,34.5C 95.5056,44.9869 95.1722,55.6536 95.5,66.5C 93.4458,66.6347 91.7791,65.968 90.5,64.5C 90.5,53.5 90.5,42.5 90.5,31.5C 88.5853,31.7845 86.9187,31.4511 85.5,30.5C 94.0383,29.1887 102.705,29.3554 111.5,31C 114.94,32.6136 117.94,34.7803 120.5,37.5 Z"/></g>
<g><path style="opacity:1" fill="#afb5bc" d="M 113.5,38.5 C 110.9,37.6347 108.233,36.968 105.5,36.5C 103.626,36.3898 102.126,37.0564 101,38.5C 100.5,47.1603 100.334,55.8269 100.5,64.5C 102.167,64.5 103.833,64.5 105.5,64.5C 103.735,65.4614 101.735,65.7947 99.5,65.5C 98.8333,65.5 98.1667,65.5 97.5,65.5C 97.7828,64.7109 98.2828,64.0442 99,63.5C 99.1803,53.9226 99.6803,44.4226 100.5,35C 99.2068,34.51 97.8734,34.3433 96.5,34.5C 103.122,31.0646 108.788,32.3979 113.5,38.5 Z"/></g>
<g><path style="opacity:1" fill="#767e86" d="M 96.5,34.5 C 97.8734,34.3433 99.2068,34.51 100.5,35C 99.6803,44.4226 99.1803,53.9226 99,63.5C 98.2828,64.0442 97.7828,64.7109 97.5,65.5C 97.8112,55.3625 97.4779,45.0291 96.5,34.5 Z"/></g>
<g><path style="opacity:1" fill="#ecefee" d="M 113.5,38.5 C 115.067,39.6808 115.901,41.3474 116,43.5C 117.574,50.685 115.908,57.0184 111,62.5C 109.275,63.464 107.441,64.1307 105.5,64.5C 103.833,64.5 102.167,64.5 100.5,64.5C 100.334,55.8269 100.5,47.1603 101,38.5C 102.126,37.0564 103.626,36.3898 105.5,36.5C 108.233,36.968 110.9,37.6347 113.5,38.5 Z"/></g>
<g><path style="opacity:1" fill="#a1a7ac" d="M 116.5,64.5 C 116.938,64.4346 117.272,64.6012 117.5,65C 115.844,66.8294 113.844,68.1628 111.5,69C 114.174,68.8471 116.84,68.3471 119.5,67.5C 117.5,68.8333 115.5,70.1667 113.5,71.5C 106.833,71.5 100.167,71.5 93.5,71.5C 93.5,70.5 93.5,69.5 93.5,68.5C 90.7531,68.8134 88.0865,68.48 85.5,67.5C 85.6236,66.8933 85.9569,66.56 86.5,66.5C 96.617,69.1581 106.617,68.4915 116.5,64.5 Z"/></g>
<g><path style="opacity:1" fill="#838b94" d="M 128.5,66.5 C 130.607,67.4682 132.941,67.8016 135.5,67.5C 137.265,68.4614 139.265,68.7947 141.5,68.5C 141.5,69.5 141.5,70.5 141.5,71.5C 139.167,71.5 136.833,71.5 134.5,71.5C 134.737,70.209 134.404,69.209 133.5,68.5C 131.167,68.5 128.833,68.5 126.5,68.5C 126.5,67.1667 127.167,66.5 128.5,66.5 Z"/></g>
<g><path style="opacity:1" fill="#9ea4ab" d="M 180.5,68.5 C 188.019,68.825 195.352,68.4916 202.5,67.5C 203.15,67.1961 203.817,66.8627 204.5,66.5C 205.452,68.0453 205.785,69.712 205.5,71.5C 197.167,71.5 188.833,71.5 180.5,71.5C 180.5,70.5 180.5,69.5 180.5,68.5 Z"/></g>
<g><path style="opacity:1" fill="#90959e" d="M 251.5,66.5 C 254.14,67.421 256.973,68.0877 260,68.5C 261.376,68.3158 262.209,67.6491 262.5,66.5C 263.451,67.9187 263.784,69.5853 263.5,71.5C 261.167,71.5 258.833,71.5 256.5,71.5C 256.5,70.5 256.5,69.5 256.5,68.5C 254.265,68.7947 252.265,68.4614 250.5,67.5C 250.5,66.8333 250.833,66.5 251.5,66.5 Z"/></g>
<g><path style="opacity:1" fill="#b8bcc1" d="M 37.5,66.5 C 38.3058,67.9972 38.9724,69.6639 39.5,71.5C 35.35,72.9221 31.35,72.7554 27.5,71C 28.3805,70.2917 29.0472,69.4584 29.5,68.5C 31.0936,68.9195 32.5936,69.5862 34,70.5C 35.749,69.5902 36.9157,68.2569 37.5,66.5 Z"/></g>
<g><path style="opacity:1" fill="#b3b9b9" d="M 340.5,43.5 C 338.941,56.9686 334.774,69.6353 328,81.5C 326.67,82.5822 325.17,83.2488 323.5,83.5C 324.574,82.1154 325.907,80.9487 327.5,80C 326.058,79.6232 325.058,78.7899 324.5,77.5C 328.632,68.3212 332.466,58.9879 336,49.5C 336.814,46.8233 338.314,44.8233 340.5,43.5 Z"/></g>
<g><path style="opacity:1" fill="#d1d0d5" d="M 148.5,54.5 C 146.533,54.2606 144.699,54.5939 143,55.5C 142.333,58.5 142.333,61.5 143,64.5C 144.14,67.1019 144.973,69.7686 145.5,72.5C 140.513,73.673 135.513,73.673 130.5,72.5C 130.5,71.5 130.5,70.5 130.5,69.5C 131.791,69.7373 132.791,69.404 133.5,68.5C 134.404,69.209 134.737,70.209 134.5,71.5C 136.833,71.5 139.167,71.5 141.5,71.5C 141.5,70.5 141.5,69.5 141.5,68.5C 142.043,68.44 142.376,68.1067 142.5,67.5C 140.63,62.7388 139.963,57.7388 140.5,52.5C 142.857,52.3367 145.19,52.5034 147.5,53C 148.056,53.3826 148.389,53.8826 148.5,54.5 Z"/></g>
<g><path style="opacity:1" fill="#bdc4c1" d="M 243.5,65.5 C 244.239,65.369 244.906,65.5357 245.5,66C 242.03,68.1229 242.03,69.2895 245.5,69.5C 241.999,73.4912 237.666,74.4912 232.5,72.5C 231.614,71.675 231.281,70.675 231.5,69.5C 236.044,69.5409 240.044,68.2075 243.5,65.5 Z"/></g>
<g><path style="opacity:1" fill="#d6d9db" d="M 319.5,52.5 C 316.269,53.3678 312.935,53.3678 309.5,52.5C 309.327,58.937 309.994,65.2703 311.5,71.5C 310.624,72.2508 309.624,72.7508 308.5,73C 297.485,73.8324 286.485,73.6658 275.5,72.5C 272.363,70.7633 270.697,68.0966 270.5,64.5C 271.885,66.8835 273.885,68.5501 276.5,69.5C 277.514,70.7647 279.014,71.4313 281,71.5C 283.281,71.1789 285.448,70.5122 287.5,69.5C 288.949,70.2798 290.449,70.9465 292,71.5C 293.839,69.859 296.006,68.859 298.5,68.5C 299.5,68.8333 300.5,69.1667 301.5,69.5C 301.291,70.086 300.957,70.586 300.5,71C 302,71.1667 303.5,71.3333 305,71.5C 310.098,71.7696 310.931,70.1029 307.5,66.5C 306.709,59.9217 306.375,53.255 306.5,46.5C 309.366,47.7593 312.366,48.7593 315.5,49.5C 315.617,47.5165 314.95,45.8498 313.5,44.5C 317.03,45.4297 319.03,48.0963 319.5,52.5 Z"/></g>
<g><path style="opacity:1" fill="#e4dbd8" d="M 152.5,77.5 C 149.918,77.0254 147.918,77.6921 146.5,79.5C 145.833,79.8333 145.167,80.1667 144.5,80.5C 143.027,79.928 141.693,79.0946 140.5,78C 138.421,77.1923 136.421,77.359 134.5,78.5C 133.567,82.4295 133.234,86.4295 133.5,90.5C 132.167,90.5 130.833,90.5 129.5,90.5C 129.688,92.1033 129.188,93.4366 128,94.5C 126.508,93.0797 125.008,91.7464 123.5,90.5C 125.176,89.8166 125.843,88.4832 125.5,86.5C 127.415,86.7845 129.081,86.4511 130.5,85.5C 133.358,82.7857 133.024,80.4524 129.5,78.5C 127.393,77.5318 125.059,77.1984 122.5,77.5C 127.653,75.8618 132.986,75.5285 138.5,76.5C 140.274,76.1132 141.941,75.4465 143.5,74.5C 144.967,75.6953 146.467,75.6953 148,74.5C 148.568,76.0123 150.068,77.0123 152.5,77.5 Z"/></g>
<g><path style="opacity:1" fill="#a18d8f" d="M 154.5,78.5 C 155.043,78.56 155.376,78.8933 155.5,79.5C 153.5,80.1667 151.5,80.8333 149.5,81.5C 150.949,82.1719 152.282,82.8386 153.5,83.5C 151.833,83.5 150.167,83.5 148.5,83.5C 148.5,82.1667 148.5,80.8333 148.5,79.5C 150.735,79.7947 152.735,79.4614 154.5,78.5 Z"/></g>
<g><path style="opacity:1" fill="#a74341" d="M 144.5,80.5 C 144.5,82.8333 144.5,85.1667 144.5,87.5C 144.167,88.1667 143.833,88.8333 143.5,89.5C 142.508,89.6716 141.842,89.3382 141.5,88.5C 144.001,83.0679 142.335,80.0679 136.5,79.5C 135.77,83.0606 135.103,86.7272 134.5,90.5C 134.167,90.5 133.833,90.5 133.5,90.5C 133.234,86.4295 133.567,82.4295 134.5,78.5C 136.421,77.359 138.421,77.1923 140.5,78C 141.693,79.0946 143.027,79.928 144.5,80.5 Z"/></g>
<g><path style="opacity:1" fill="#7a7d80" d="M 324.5,77.5 C 325.058,78.7899 326.058,79.6232 327.5,80C 325.907,80.9487 324.574,82.1154 323.5,83.5C 320.188,83.851 317.855,82.5177 316.5,79.5C 319.513,79.8928 322.18,79.2261 324.5,77.5 Z"/></g>
<g><path style="opacity:1" fill="#a0585e" d="M 122.5,77.5 C 125.059,77.1984 127.393,77.5318 129.5,78.5C 127.5,78.5 125.5,78.5 123.5,78.5C 123.5,80.8333 123.5,83.1667 123.5,85.5C 125.833,85.5 128.167,85.5 130.5,85.5C 129.081,86.4511 127.415,86.7845 125.5,86.5C 125.843,88.4832 125.176,89.8166 123.5,90.5C 122.515,86.3656 122.182,82.0323 122.5,77.5 Z"/></g>
<g><path style="opacity:1" fill="#c7bdbf" d="M 136.5,79.5 C 142.335,80.0679 144.001,83.0679 141.5,88.5C 139.833,88.5 138.167,88.5 136.5,88.5C 136.5,85.5 136.5,82.5 136.5,79.5 Z"/></g>
<g><path style="opacity:1" fill="#ec98a4" d="M 146.5,79.5 C 146.5,82.5 146.5,85.5 146.5,88.5C 145.833,88.1667 145.167,87.8333 144.5,87.5C 144.5,85.1667 144.5,82.8333 144.5,80.5C 145.167,80.1667 145.833,79.8333 146.5,79.5 Z"/></g>
<g><path style="opacity:1" fill="#c92d41" d="M 195.5,81.5 C 196.5,81.8333 197.167,82.5 197.5,83.5C 196.998,85.0847 195.998,85.5847 194.5,85C 194.653,83.7913 194.986,82.6246 195.5,81.5 Z"/></g>
<g><path style="opacity:1" fill="#b32526" d="M 199.5,81.5 C 201.179,81.2852 202.179,81.9519 202.5,83.5C 201.833,85.8333 201.167,88.1667 200.5,90.5C 200.167,90.5 199.833,90.5 199.5,90.5C 199.5,88.1667 199.5,85.8333 199.5,83.5C 199.5,82.8333 199.5,82.1667 199.5,81.5 Z"/></g>
<g><path style="opacity:1" fill="#8b2834" d="M 129.5,78.5 C 133.024,80.4524 133.358,82.7857 130.5,85.5C 128.167,85.5 125.833,85.5 123.5,85.5C 123.5,83.1667 123.5,80.8333 123.5,78.5C 125.5,78.5 127.5,78.5 129.5,78.5 Z"/></g>
<g><path style="opacity:1" fill="#cdb3ad" d="M 125.5,79.5 C 128.95,78.7564 130.616,80.0897 130.5,83.5C 128.5,83.5 126.5,83.5 124.5,83.5C 124.433,82.0413 124.766,80.7079 125.5,79.5 Z"/></g>
<g><path style="opacity:1" fill="#902f38" d="M 152.5,77.5 C 153.492,77.3284 154.158,77.6618 154.5,78.5C 152.735,79.4614 150.735,79.7947 148.5,79.5C 148.5,80.8333 148.5,82.1667 148.5,83.5C 150.167,83.5 151.833,83.5 153.5,83.5C 154.833,84.1667 154.833,84.8333 153.5,85.5C 151.833,85.5 150.167,85.5 148.5,85.5C 148.785,87.288 148.452,88.9547 147.5,90.5C 146.702,90.0431 146.369,89.3764 146.5,88.5C 146.5,85.5 146.5,82.5 146.5,79.5C 147.918,77.6921 149.918,77.0254 152.5,77.5 Z"/></g>
<g><path style="opacity:1" fill="#8b383b" d="M 183.5,80.5 C 185.989,80.2407 187.656,81.2407 188.5,83.5C 187.833,92.8333 187.167,92.8333 186.5,83.5C 185.178,83.33 184.011,83.6634 183,84.5C 182.808,86.5767 182.308,88.5767 181.5,90.5C 180.516,87.5719 180.183,84.5719 180.5,81.5C 181.791,81.7373 182.791,81.404 183.5,80.5 Z"/></g>
<g><path style="opacity:1" fill="#715858" d="M 191.5,81.5 C 192.833,80.1667 194.167,80.1667 195.5,81.5C 194.986,82.6246 194.653,83.7913 194.5,85C 195.998,85.5847 196.998,85.0847 197.5,83.5C 197.833,83.5 198.167,83.5 198.5,83.5C 199.01,86.3878 198.344,88.7211 196.5,90.5C 197.11,89.609 197.443,88.609 197.5,87.5C 196.081,86.5489 194.415,86.2155 192.5,86.5C 192.35,84.8567 192.017,83.19 191.5,81.5 Z"/></g>
<g><path style="opacity:1" fill="#743b45" d="M 136.5,79.5 C 136.5,82.5 136.5,85.5 136.5,88.5C 138.167,88.5 139.833,88.5 141.5,88.5C 141.842,89.3382 142.508,89.6716 143.5,89.5C 140.713,90.4767 137.713,90.81 134.5,90.5C 135.103,86.7272 135.77,83.0606 136.5,79.5 Z"/></g>
<g><path style="opacity:1" fill="#975a5e" d="M 212.5,82.5 C 213.468,84.6074 213.802,86.9407 213.5,89.5C 210.996,91.1258 208.33,91.4591 205.5,90.5C 205.5,90.1667 205.5,89.8333 205.5,89.5C 207.024,88.8262 208.358,87.8262 209.5,86.5C 210.167,87.5 210.833,88.5 211.5,89.5C 212.474,87.2573 212.808,84.924 212.5,82.5 Z"/></g>
<g><path style="opacity:1" fill="#9f272e" d="M 217.5,81.5 C 217.817,84.5719 217.484,87.5719 216.5,90.5C 215.832,88.0312 215.165,85.6979 214.5,83.5C 214.5,82.1667 214.5,80.8333 214.5,79.5C 216.179,79.2852 217.179,79.9519 217.5,81.5 Z"/></g>
<g><path style="opacity:1" fill="#9e2431" d="M 211.5,81.5 C 212.167,81.5 212.5,81.8333 212.5,82.5C 212.808,84.924 212.474,87.2573 211.5,89.5C 210.833,88.5 210.167,87.5 209.5,86.5C 208.358,87.8262 207.024,88.8262 205.5,89.5C 205.5,88.1667 205.5,86.8333 205.5,85.5C 207.665,85.8841 209.332,85.2174 210.5,83.5C 209.224,82.3554 207.891,82.3554 206.5,83.5C 205.304,83.1543 205.304,82.6543 206.5,82C 208.134,81.5065 209.801,81.3398 211.5,81.5 Z"/></g>
<g><path style="opacity:1" fill="#a12d35" d="M 191.5,81.5 C 192.017,83.19 192.35,84.8567 192.5,86.5C 192.281,87.675 192.614,88.675 193.5,89.5C 194.622,88.3698 195.956,87.7031 197.5,87.5C 197.443,88.609 197.11,89.609 196.5,90.5C 192.633,91.8482 190.3,90.3482 189.5,86C 189.989,84.8615 190.322,83.6948 190.5,82.5C 190.5,81.8333 190.833,81.5 191.5,81.5 Z"/></g>
<g><path style="opacity:1" fill="#ba9594" d="M 199.5,81.5 C 201.948,80.5269 204.615,80.1936 207.5,80.5C 209.099,80.2322 210.432,80.5655 211.5,81.5C 209.801,81.3398 208.134,81.5065 206.5,82C 205.304,82.6543 205.304,83.1543 206.5,83.5C 207.891,82.3554 209.224,82.3554 210.5,83.5C 209.332,85.2174 207.665,85.8841 205.5,85.5C 205.5,86.8333 205.5,88.1667 205.5,89.5C 205.5,89.8333 205.5,90.1667 205.5,90.5C 204.449,91.2223 203.782,92.2223 203.5,93.5C 202.5,92.5 201.5,91.5 200.5,90.5C 201.167,88.1667 201.833,85.8333 202.5,83.5C 202.179,81.9519 201.179,81.2852 199.5,81.5 Z"/></g>
<g><path style="opacity:1" fill="#aadcd6" d="M 202.5,83.5 C 203.725,84.1522 204.392,85.3189 204.5,87C 204.167,88.1667 203.833,89.3333 203.5,90.5C 202.526,88.2573 202.192,85.924 202.5,83.5 Z"/></g>
<g><path style="opacity:1" fill="#c4bdc4" d="M 153.5,85.5 C 152.282,86.1614 150.949,86.8281 149.5,87.5C 150.833,88.1667 152.167,88.8333 153.5,89.5C 152.985,91.2251 152.318,92.8917 151.5,94.5C 150.554,94.0133 149.554,93.6799 148.5,93.5C 145.65,95.0643 142.817,95.7309 140,95.5C 137.98,94.9681 137.147,93.6348 137.5,91.5C 136.209,91.7373 135.209,91.404 134.5,90.5C 137.713,90.81 140.713,90.4767 143.5,89.5C 143.833,88.8333 144.167,88.1667 144.5,87.5C 145.167,87.8333 145.833,88.1667 146.5,88.5C 146.369,89.3764 146.702,90.0431 147.5,90.5C 148.452,88.9547 148.785,87.288 148.5,85.5C 150.167,85.5 151.833,85.5 153.5,85.5 Z"/></g>
<g><path style="opacity:1" fill="#973439" d="M 161.5,81.5 C 164.167,81.5 166.833,81.5 169.5,81.5C 169.665,84.8499 169.498,88.1832 169,91.5C 168.241,93.0629 167.074,94.0629 165.5,94.5C 163.654,94.7778 162.32,94.1112 161.5,92.5C 163.117,92.3306 164.784,91.9972 166.5,91.5C 161.069,89.972 159.402,86.6386 161.5,81.5 Z"/></g>
<g><path style="opacity:1" fill="#dbd1cf" d="M 163.5,83.5 C 168.34,84.1885 168.673,85.8552 164.5,88.5C 163.548,86.9547 163.215,85.288 163.5,83.5 Z"/></g>
<g><path style="opacity:1" fill="#c6b6b9" d="M 183.5,80.5 C 182.791,81.404 181.791,81.7373 180.5,81.5C 180.183,84.5719 180.516,87.5719 181.5,90.5C 182.308,88.5767 182.808,86.5767 183,84.5C 184.011,83.6634 185.178,83.33 186.5,83.5C 187.167,92.8333 187.833,92.8333 188.5,83.5C 189.167,83.1667 189.833,82.8333 190.5,82.5C 190.322,83.6948 189.989,84.8615 189.5,86C 190.3,90.3482 192.633,91.8482 196.5,90.5C 198.344,88.7211 199.01,86.3878 198.5,83.5C 198.833,83.5 199.167,83.5 199.5,83.5C 199.5,85.8333 199.5,88.1667 199.5,90.5C 200.494,92.3344 200.494,94.0011 199.5,95.5C 195.712,92.909 191.712,91.5757 187.5,91.5C 185.777,92.5522 184.11,92.5522 182.5,91.5C 181.016,93.0737 179.349,94.407 177.5,95.5C 176.281,94.7366 175.281,93.7366 174.5,92.5C 173.445,95.0562 171.612,96.7228 169,97.5C 167.092,97.2849 165.926,96.2849 165.5,94.5C 167.074,94.0629 168.241,93.0629 169,91.5C 169.498,88.1832 169.665,84.8499 169.5,81.5C 166.833,81.5 164.167,81.5 161.5,81.5C 164.36,80.7561 167.36,80.0894 170.5,79.5C 174.765,80.4386 179.098,80.7719 183.5,80.5 Z"/></g>
<g><path style="opacity:1" fill="#9c7171" d="M 178.5,83.5 C 179.468,85.6074 179.802,87.9407 179.5,90.5C 178.5,90.5 177.5,90.5 176.5,90.5C 177.552,88.3449 176.886,88.0116 174.5,89.5C 174.167,89 173.833,88.5 173.5,88C 174.573,86.5838 174.573,85.2504 173.5,84C 174.819,82.3721 176.152,82.5387 177.5,84.5C 178.107,84.3764 178.44,84.0431 178.5,83.5 Z"/></g>
<g><path style="opacity:1" fill="#982d36" d="M 178.5,83.5 C 178.44,84.0431 178.107,84.3764 177.5,84.5C 176.152,82.5387 174.819,82.3721 173.5,84C 174.573,85.2504 174.573,86.5838 173.5,88C 173.833,88.5 174.167,89 174.5,89.5C 176.886,88.0116 177.552,88.3449 176.5,90.5C 174.171,91.7489 172.338,91.0823 171,88.5C 170.333,86.5 170.333,84.5 171,82.5C 172.062,81.9032 173.228,81.5698 174.5,81.5C 176.355,81.3402 177.688,82.0069 178.5,83.5 Z"/></g>
<g><path style="opacity:1" fill="#cfada9" d="M 192.5,86.5 C 194.415,86.2155 196.081,86.5489 197.5,87.5C 195.956,87.7031 194.622,88.3698 193.5,89.5C 192.614,88.675 192.281,87.675 192.5,86.5 Z"/></g>
<g><path style="opacity:1" fill="#c0beba" d="M 217.5,81.5 C 218.5,81.5 219.5,81.5 220.5,81.5C 218.898,84.5342 219.231,87.2009 221.5,89.5C 223.198,92.1239 225.031,92.1239 227,89.5C 227.495,87.5273 227.662,85.5273 227.5,83.5C 228.167,82.8333 228.833,82.1667 229.5,81.5C 229.183,84.5719 229.516,87.5719 230.5,90.5C 231.043,87.2548 232.043,84.2548 233.5,81.5C 235.439,82.0138 236.439,83.3472 236.5,85.5C 235.731,88.1147 235.397,90.7814 235.5,93.5C 230.663,95.447 225.663,96.1137 220.5,95.5C 219.833,94.1667 219.167,92.8333 218.5,91.5C 214.802,96.3116 210.802,96.6449 206.5,92.5C 205.833,93.1667 205.167,93.8333 204.5,94.5C 203.893,94.3764 203.56,94.0431 203.5,93.5C 203.782,92.2223 204.449,91.2223 205.5,90.5C 208.33,91.4591 210.996,91.1258 213.5,89.5C 214.461,87.7354 214.795,85.7354 214.5,83.5C 215.165,85.6979 215.832,88.0312 216.5,90.5C 217.484,87.5719 217.817,84.5719 217.5,81.5 Z"/></g>
<g><path style="opacity:1" fill="#732b35" d="M 227.5,83.5 C 227.662,85.5273 227.495,87.5273 227,89.5C 225.031,92.1239 223.198,92.1239 221.5,89.5C 222.873,89.6567 224.207,89.49 225.5,89C 226.109,87.0517 226.776,85.2184 227.5,83.5 Z"/></g>
<g><path style="opacity:1" fill="#911f31" d="M 229.5,81.5 C 230.833,81.5 232.167,81.5 233.5,81.5C 232.043,84.2548 231.043,87.2548 230.5,90.5C 229.516,87.5719 229.183,84.5719 229.5,81.5 Z"/></g>
<g><path style="opacity:1" fill="#b9565b" d="M 220.5,81.5 C 222.527,81.3379 224.527,81.5045 226.5,82C 227.056,82.3826 227.389,82.8826 227.5,83.5C 226.776,85.2184 226.109,87.0517 225.5,89C 224.207,89.49 222.873,89.6567 221.5,89.5C 219.231,87.2009 218.898,84.5342 220.5,81.5 Z"/></g>
<g><path style="opacity:1" fill="#a4eccd" d="M 222.5,83.5 C 223.586,83.62 224.253,84.2867 224.5,85.5C 224.167,86.1667 223.833,86.8333 223.5,87.5C 222.571,86.3112 222.238,84.9778 222.5,83.5 Z"/></g>
<g><path style="opacity:1" fill="#a8aec2" d="M 185.5,112.5 C 185.5,112.833 185.5,113.167 185.5,113.5C 184.833,113.5 184.167,113.5 183.5,113.5C 169.172,112.729 154.838,112.562 140.5,113C 136.328,114.302 131.994,115.136 127.5,115.5C 131.355,114.078 135.355,112.912 139.5,112C 154.839,111.522 170.172,111.689 185.5,112.5 Z"/></g>
<g><path style="opacity:1" fill="#515c7d" d="M 197.5,111.5 C 200.35,112.798 203.35,113.964 206.5,115C 207.227,116.399 207.727,117.899 208,119.5C 208.671,120.252 209.504,120.586 210.5,120.5C 210.53,121.497 210.03,122.164 209,122.5C 207.697,122.022 206.531,121.355 205.5,120.5C 201.897,117.919 198.23,115.252 194.5,112.5C 195.325,111.614 196.325,111.281 197.5,111.5 Z"/></g>
<g><path style="opacity:1" fill="#4a4b57" d="M 96.5,116.5 C 95.3064,117.777 93.6397,118.444 91.5,118.5C 89.8333,118.333 88.1667,118.167 86.5,118C 87.056,117.617 87.3893,117.117 87.5,116.5C 88.1667,114.167 88.8333,111.833 89.5,109.5C 90.5,109.5 91.5,109.5 92.5,109.5C 92.5,111.167 92.5,112.833 92.5,114.5C 94.1993,114.527 95.5326,115.194 96.5,116.5 Z"/></g>
<g><path style="opacity:1" fill="#6a78a8" d="M 183.5,113.5 C 181.735,114.461 179.735,114.795 177.5,114.5C 176.519,118.255 175.352,121.922 174,125.5C 173.503,127.81 173.337,130.143 173.5,132.5C 172.182,135.565 172.182,138.731 173.5,142C 164.506,142.5 155.506,142.666 146.5,142.5C 149.977,141.677 153.644,141.177 157.5,141C 155.75,139.681 153.75,139.181 151.5,139.5C 151.5,138.167 151.5,136.833 151.5,135.5C 150.167,135.5 148.833,135.5 147.5,135.5C 147.833,132.5 146.5,131.167 143.5,131.5C 143.5,129.5 143.5,127.5 143.5,125.5C 138.167,125.5 132.833,125.5 127.5,125.5C 127.5,124.5 127.5,123.5 127.5,122.5C 122.105,122.733 116.772,122.4 111.5,121.5C 111.167,121.5 110.833,121.5 110.5,121.5C 110.5,121.167 110.5,120.833 110.5,120.5C 116.379,119.225 122.045,117.558 127.5,115.5C 131.994,115.136 136.328,114.302 140.5,113C 154.838,112.562 169.172,112.729 183.5,113.5 Z"/></g>
<g><path style="opacity:1" fill="#bac4e3" d="M 193.5,110.5 C 195.621,110.675 197.621,110.341 199.5,109.5C 199.5,110.833 198.833,111.5 197.5,111.5C 196.325,111.281 195.325,111.614 194.5,112.5C 198.23,115.252 201.897,117.919 205.5,120.5C 205.631,121.376 205.298,122.043 204.5,122.5C 198.559,118.419 192.892,114.752 187.5,111.5C 186.833,111.5 186.167,111.5 185.5,111.5C 187.881,109.36 190.548,109.027 193.5,110.5 Z"/></g>
<g><path style="opacity:1" fill="#9ba8d5" d="M 199.5,109.5 C 201.882,111.046 204.549,111.713 207.5,111.5C 207.5,112.5 207.5,113.5 207.5,114.5C 208.791,114.263 209.791,114.596 210.5,115.5C 211.141,116.482 211.807,117.482 212.5,118.5C 215.714,119.937 218.714,121.603 221.5,123.5C 219.833,123.5 218.167,123.5 216.5,123.5C 215.545,121.29 214.045,120.957 212,122.5C 211.722,121.584 211.222,120.918 210.5,120.5C 209.504,120.586 208.671,120.252 208,119.5C 207.727,117.899 207.227,116.399 206.5,115C 203.35,113.964 200.35,112.798 197.5,111.5C 198.833,111.5 199.5,110.833 199.5,109.5 Z"/></g>
<g><path style="opacity:1" fill="#999aa0" d="M 87.5,116.5 C 87.3893,117.117 87.056,117.617 86.5,118C 88.1667,118.167 89.8333,118.333 91.5,118.5C 93.6397,118.444 95.3064,117.777 96.5,116.5C 100.468,119.926 105.135,121.26 110.5,120.5C 110.5,120.833 110.5,121.167 110.5,121.5C 107.298,123.535 105.631,126.535 105.5,130.5C 104.943,132.332 103.943,133.665 102.5,134.5C 107.487,127.467 105.82,122.8 97.5,120.5C 93.8927,119.511 90.226,119.177 86.5,119.5C 85.1148,118.053 85.4482,117.053 87.5,116.5 Z"/></g>
<g><path style="opacity:1" fill="#3b476d" d="M 183.5,113.5 C 184.167,113.5 184.833,113.5 185.5,113.5C 183.848,117.631 182.014,121.631 180,125.5C 179.103,131.806 178.603,138.139 178.5,144.5C 177.833,138.986 177.167,133.319 176.5,127.5C 175.507,132.12 175.173,136.786 175.5,141.5C 174.883,141.389 174.383,141.056 174,140.5C 173.503,137.854 173.336,135.187 173.5,132.5C 173.337,130.143 173.503,127.81 174,125.5C 175.352,121.922 176.519,118.255 177.5,114.5C 179.735,114.795 181.735,114.461 183.5,113.5 Z"/></g>
<g><path style="opacity:1" fill="#f3f3f3" d="M 363.5,108.5 C 363.5,124.5 363.5,140.5 363.5,156.5C 332.593,156.829 301.76,156.496 271,155.5C 270.768,156.737 270.268,157.737 269.5,158.5C 267.221,154.617 265.888,150.284 265.5,145.5C 265.383,143.516 266.05,141.85 267.5,140.5C 265.997,139.948 264.331,139.948 262.5,140.5C 262.5,139.5 262.5,138.5 262.5,137.5C 260.5,137.833 258.5,138.167 256.5,138.5C 256.103,137.475 255.437,137.308 254.5,138C 252.851,141.208 253.517,143.708 256.5,145.5C 257.978,145.238 259.311,145.571 260.5,146.5C 261.407,149.421 261.74,152.421 261.5,155.5C 260.596,156.209 260.263,157.209 260.5,158.5C 253.901,160.045 248.901,158.045 245.5,152.5C 243.589,151.523 241.589,150.857 239.5,150.5C 239.5,150.167 239.5,149.833 239.5,149.5C 239.774,144.608 239.107,139.941 237.5,135.5C 236.325,135.719 235.325,135.386 234.5,134.5C 232.967,124.589 227.301,118.922 217.5,117.5C 221.489,117.292 223.323,115.292 223,111.5C 222.592,113.41 221.425,114.41 219.5,114.5C 217.547,113.844 215.547,113.511 213.5,113.5C 213.227,111.549 213.893,110.049 215.5,109C 264.832,108.5 314.166,108.333 363.5,108.5 Z"/></g>
<g><path style="opacity:1" fill="#566187" d="M 216.5,123.5 C 218.167,123.5 219.833,123.5 221.5,123.5C 222.167,123.833 222.833,124.167 223.5,124.5C 223.5,125.5 223.5,126.5 223.5,127.5C 220.482,127.665 217.482,127.498 214.5,127C 215.305,125.887 215.972,124.721 216.5,123.5 Z"/></g>
<g><path style="opacity:1" fill="#f3f3f3" d="M -0.5,100.5 C 4.83333,100.5 10.1667,100.5 15.5,100.5C 15.5,101.5 15.5,102.5 15.5,103.5C 38.5351,104.642 61.5351,104.642 84.5,103.5C 84.9059,104.557 84.9059,105.891 84.5,107.5C 77.8781,109.138 77.8781,109.471 84.5,108.5C 85.5,109 86.5,109.5 87.5,110C 85.8988,110.273 84.3988,110.773 83,111.5C 82.7,115.397 81.5333,118.897 79.5,122C 82.6939,123.081 85.0272,122.247 86.5,119.5C 90.226,119.177 93.8927,119.511 97.5,120.5C 105.82,122.8 107.487,127.467 102.5,134.5C 101.28,138.04 100.114,141.706 99,145.5C 98.6373,155.171 98.804,164.838 99.5,174.5C 98.1667,174.833 96.8333,175.167 95.5,175.5C 91.3263,177.064 86.993,177.731 82.5,177.5C 82.1765,184.022 82.5098,190.355 83.5,196.5C 84.404,197.209 84.7373,198.209 84.5,199.5C 84.8333,200.167 85.1667,200.833 85.5,201.5C 86.6002,202.558 87.9336,203.392 89.5,204C 93.6888,204.812 97.6888,204.645 101.5,203.5C 104.785,203.79 107.785,203.123 110.5,201.5C 110.5,203.5 110.5,205.5 110.5,207.5C 101.572,208.272 101.906,209.272 111.5,210.5C 111.5,211.5 111.5,212.5 111.5,213.5C 109.692,213.491 108.025,213.991 106.5,215C 108.81,215.497 111.143,215.663 113.5,215.5C 113.5,216.5 113.5,217.5 113.5,218.5C 75.5,218.5 37.5,218.5 -0.5,218.5C -0.5,179.167 -0.5,139.833 -0.5,100.5 Z"/></g>
<g><path style="opacity:1" fill="#596693" d="M 111.5,121.5 C 116.772,122.4 122.105,122.733 127.5,122.5C 127.5,123.5 127.5,124.5 127.5,125.5C 132.833,125.5 138.167,125.5 143.5,125.5C 143.5,127.5 143.5,129.5 143.5,131.5C 146.5,131.167 147.833,132.5 147.5,135.5C 148.833,135.5 150.167,135.5 151.5,135.5C 151.5,136.833 151.5,138.167 151.5,139.5C 153.75,139.181 155.75,139.681 157.5,141C 153.644,141.177 149.977,141.677 146.5,142.5C 137.827,142.666 129.16,142.5 120.5,142C 125.815,141.187 131.148,140.521 136.5,140C 135.62,138.644 135.286,137.144 135.5,135.5C 132.048,135.18 128.715,135.18 125.5,135.5C 124.41,134.609 124.41,133.609 125.5,132.5C 124.609,131.41 123.609,131.41 122.5,132.5C 120.56,130.955 119.394,128.955 119,126.5C 116.053,126.909 113.386,127.909 111,129.5C 110.362,128.391 109.862,127.225 109.5,126C 110.707,124.7 111.374,123.2 111.5,121.5 Z"/></g>
<g><path style="opacity:1" fill="#c8cfde" d="M 210.5,115.5 C 213.108,115.4 215.442,116.067 217.5,117.5C 227.301,118.922 232.967,124.589 234.5,134.5C 235.325,135.386 236.325,135.719 237.5,135.5C 239.107,139.941 239.774,144.608 239.5,149.5C 237.5,146.2 235.5,142.867 233.5,139.5C 232.852,134.213 230.852,129.546 227.5,125.5C 226.311,124.571 224.978,124.238 223.5,124.5C 222.833,124.167 222.167,123.833 221.5,123.5C 218.714,121.603 215.714,119.937 212.5,118.5C 211.807,117.482 211.141,116.482 210.5,115.5 Z"/></g>
<g><path style="opacity:1" fill="#a4a5a7" d="M 256.5,138.5 C 255.377,140.688 255.377,143.021 256.5,145.5C 253.517,143.708 252.851,141.208 254.5,138C 255.437,137.308 256.103,137.475 256.5,138.5 Z"/></g>
<g><path style="opacity:1" fill="#9da4bb" d="M 201.5,145.5 C 202.234,146.708 202.567,148.041 202.5,149.5C 199.167,149.5 195.833,149.5 192.5,149.5C 195.028,148.834 197.694,148.168 200.5,147.5C 195.88,146.507 191.214,146.173 186.5,146.5C 187.105,153.618 186.438,160.452 184.5,167C 186.473,167.495 188.473,167.662 190.5,167.5C 190.194,164.615 190.527,161.948 191.5,159.5C 191.5,162.5 191.5,165.5 191.5,168.5C 188.833,168.5 186.167,168.5 183.5,168.5C 184.883,160.906 185.55,153.24 185.5,145.5C 190.833,145.5 196.167,145.5 201.5,145.5 Z"/></g>
<g><path style="opacity:1" fill="#8790b6" d="M 265.5,145.5 C 265.014,147.952 265.014,150.618 265.5,153.5C 264.71,152.391 264.21,151.058 264,149.5C 263.667,149.833 263.333,150.167 263,150.5C 262.819,153.695 262.319,156.695 261.5,159.5C 261.5,158.167 261.5,156.833 261.5,155.5C 261.74,152.421 261.407,149.421 260.5,146.5C 259.311,145.571 257.978,145.238 256.5,145.5C 255.377,143.021 255.377,140.688 256.5,138.5C 258.5,138.167 260.5,137.833 262.5,137.5C 262.5,138.5 262.5,139.5 262.5,140.5C 264.331,139.948 265.997,139.948 267.5,140.5C 266.05,141.85 265.383,143.516 265.5,145.5 Z"/></g>
<g><path style="opacity:1" fill="#545d7e" d="M 203.5,143.5 C 204.156,144.622 204.489,145.955 204.5,147.5C 202.892,151.951 202.225,156.618 202.5,161.5C 199.5,161.5 196.5,161.5 193.5,161.5C 193.5,160.167 192.833,159.5 191.5,159.5C 194.287,158.523 197.287,158.19 200.5,158.5C 200.5,157.5 200.5,156.5 200.5,155.5C 197.5,155.5 194.5,155.5 191.5,155.5C 191.205,153.265 191.539,151.265 192.5,149.5C 195.833,149.5 199.167,149.5 202.5,149.5C 202.567,148.041 202.234,146.708 201.5,145.5C 202.833,145.5 203.5,144.833 203.5,143.5 Z"/></g>
<g><path style="opacity:1" fill="#8496ce" d="M 187.5,111.5 C 192.892,114.752 198.559,118.419 204.5,122.5C 205.298,122.043 205.631,121.376 205.5,120.5C 206.531,121.355 207.697,122.022 209,122.5C 210.03,122.164 210.53,121.497 210.5,120.5C 211.222,120.918 211.722,121.584 212,122.5C 214.045,120.957 215.545,121.29 216.5,123.5C 215.972,124.721 215.305,125.887 214.5,127C 217.482,127.498 220.482,127.665 223.5,127.5C 223.5,126.5 223.5,125.5 223.5,124.5C 224.978,124.238 226.311,124.571 227.5,125.5C 230.852,129.546 232.852,134.213 233.5,139.5C 235.5,142.867 237.5,146.2 239.5,149.5C 239.5,149.833 239.5,150.167 239.5,150.5C 239.238,151.978 239.571,153.311 240.5,154.5C 243.367,157.745 246.7,160.412 250.5,162.5C 253.446,163.655 256.446,163.821 259.5,163C 260.305,161.887 260.972,160.721 261.5,159.5C 262.319,156.695 262.819,153.695 263,150.5C 263.333,150.167 263.667,149.833 264,149.5C 264.21,151.058 264.71,152.391 265.5,153.5C 266.004,160.492 263.337,165.825 257.5,169.5C 247.59,170.409 237.923,169.409 228.5,166.5C 225.616,165.121 223.116,163.121 221,160.5C 218.857,155.254 217.024,149.921 215.5,144.5C 214.717,146.288 213.384,147.288 211.5,147.5C 210.25,147.577 209.417,148.244 209,149.5C 208.713,147.109 208.213,144.776 207.5,142.5C 211.434,140.882 211.934,138.882 209,136.5C 208.667,136.833 208.333,137.167 208,137.5C 207.333,135.5 207.333,133.5 208,131.5C 211.234,133.063 213.734,132.23 215.5,129C 208.941,127.745 202.274,127.078 195.5,127C 194.531,125.242 193.364,124.742 192,125.5C 191.667,124.5 191.333,123.5 191,122.5C 188.983,122.925 187.149,122.925 185.5,122.5C 185.167,121.833 184.833,121.167 184.5,120.5C 186.096,117.679 187.096,114.679 187.5,111.5 Z"/></g>
<g><path style="opacity:1" fill="#39445c" d="M 220.5,131.5 C 225.353,132.309 225.353,133.976 220.5,136.5C 219.334,134.833 219.334,133.166 220.5,131.5 Z"/></g>
<g><path style="opacity:1" fill="#313750" d="M 178.5,144.5 C 179.764,146.27 181.264,147.937 183,149.5C 183.495,147.527 183.662,145.527 183.5,143.5C 190.167,143.5 196.833,143.5 203.5,143.5C 203.5,144.833 202.833,145.5 201.5,145.5C 196.167,145.5 190.833,145.5 185.5,145.5C 185.55,153.24 184.883,160.906 183.5,168.5C 186.167,168.5 188.833,168.5 191.5,168.5C 191.5,165.5 191.5,162.5 191.5,159.5C 192.833,159.5 193.5,160.167 193.5,161.5C 193.81,164.713 193.477,167.713 192.5,170.5C 188.833,170.5 185.167,170.5 181.5,170.5C 181.762,169.022 181.429,167.689 180.5,166.5C 178.754,168.252 176.754,169.585 174.5,170.5C 168.158,170.666 161.825,170.5 155.5,170C 154.556,167.281 154.223,164.448 154.5,161.5C 150.881,162.244 147.215,162.577 143.5,162.5C 143.5,165.167 143.5,167.833 143.5,170.5C 140.833,170.5 138.167,170.5 135.5,170.5C 133.612,168.012 132.945,165.012 133.5,161.5C 130.5,161.5 127.5,161.5 124.5,161.5C 124.777,164.448 124.444,167.281 123.5,170C 119.909,170.789 116.409,170.622 113,169.5C 113.082,160.848 113.248,152.181 113.5,143.5C 134.527,144.155 155.194,143.488 175.5,141.5C 175.173,136.786 175.507,132.12 176.5,127.5C 177.167,133.319 177.833,138.986 178.5,144.5 Z"/></g>
<g><path style="opacity:1" fill="#818698" d="M 151.5,146.5 C 146.5,146.5 141.5,146.5 136.5,146.5C 136.5,153.833 136.5,161.167 136.5,168.5C 135.508,161.018 135.175,153.352 135.5,145.5C 141.026,145.179 146.36,145.512 151.5,146.5 Z"/></g>
<g><path style="opacity:1" fill="#b5b9cc" d="M 151.5,146.5 C 156.365,155.079 153.699,159.412 143.5,159.5C 143.5,158.167 143.5,156.833 143.5,155.5C 147.068,155.241 148.401,153.241 147.5,149.5C 145.533,149.261 143.699,149.594 142,150.5C 141.501,156.491 141.334,162.491 141.5,168.5C 139.833,168.5 138.167,168.5 136.5,168.5C 136.5,161.167 136.5,153.833 136.5,146.5C 141.5,146.5 146.5,146.5 151.5,146.5 Z"/></g>
<g><path style="opacity:1" fill="#8d93a5" d="M 123.5,149.5 C 126.358,148.834 129.358,148.167 132.5,147.5C 127.544,146.506 122.544,146.173 117.5,146.5C 117.821,152.026 117.488,157.36 116.5,162.5C 116.5,156.833 116.5,151.167 116.5,145.5C 122.167,145.5 127.833,145.5 133.5,145.5C 133.5,146.833 133.5,148.167 133.5,149.5C 130.167,149.5 126.833,149.5 123.5,149.5 Z"/></g>
<g><path style="opacity:1" fill="#7b8dc3" d="M 185.5,111.5 C 186.167,111.5 186.833,111.5 187.5,111.5C 187.096,114.679 186.096,117.679 184.5,120.5C 184.833,121.167 185.167,121.833 185.5,122.5C 187.149,122.925 188.983,122.925 191,122.5C 191.333,123.5 191.667,124.5 192,125.5C 193.364,124.742 194.531,125.242 195.5,127C 202.274,127.078 208.941,127.745 215.5,129C 213.734,132.23 211.234,133.063 208,131.5C 207.333,133.5 207.333,135.5 208,137.5C 208.333,137.167 208.667,136.833 209,136.5C 211.934,138.882 211.434,140.882 207.5,142.5C 208.213,144.776 208.713,147.109 209,149.5C 209.417,148.244 210.25,147.577 211.5,147.5C 211.782,148.778 212.449,149.778 213.5,150.5C 212.503,150.47 211.836,150.97 211.5,152C 212.976,156.545 214.976,160.711 217.5,164.5C 213.446,166.716 210.612,165.716 209,161.5C 208.676,163.569 207.842,163.902 206.5,162.5C 203.421,166.219 199.754,169.219 195.5,171.5C 194.754,172.736 194.421,174.07 194.5,175.5C 193.5,175.5 192.5,175.5 191.5,175.5C 191.662,177.527 191.495,179.527 191,181.5C 188.699,185.159 186.199,188.492 183.5,191.5C 184.786,185.073 186.452,178.739 188.5,172.5C 187.448,172.649 186.448,172.483 185.5,172C 188.036,171.814 190.369,171.314 192.5,170.5C 193.477,167.713 193.81,164.713 193.5,161.5C 196.5,161.5 199.5,161.5 202.5,161.5C 202.225,156.618 202.892,151.951 204.5,147.5C 204.489,145.955 204.156,144.622 203.5,143.5C 196.833,143.5 190.167,143.5 183.5,143.5C 183.662,145.527 183.495,147.527 183,149.5C 181.264,147.937 179.764,146.27 178.5,144.5C 178.603,138.139 179.103,131.806 180,125.5C 182.014,121.631 183.848,117.631 185.5,113.5C 185.5,113.167 185.5,112.833 185.5,112.5C 185.5,112.167 185.5,111.833 185.5,111.5 Z"/></g>
<g><path style="opacity:1" fill="#bfc6da" d="M 239.5,150.5 C 241.589,150.857 243.589,151.523 245.5,152.5C 248.901,158.045 253.901,160.045 260.5,158.5C 260.263,157.209 260.596,156.209 261.5,155.5C 261.5,156.833 261.5,158.167 261.5,159.5C 260.972,160.721 260.305,161.887 259.5,163C 256.446,163.821 253.446,163.655 250.5,162.5C 246.7,160.412 243.367,157.745 240.5,154.5C 239.571,153.311 239.238,151.978 239.5,150.5 Z"/></g>
<g><path style="opacity:1" fill="#c8cee5" d="M 192.5,149.5 C 191.539,151.265 191.205,153.265 191.5,155.5C 194.5,155.5 197.5,155.5 200.5,155.5C 200.5,156.5 200.5,157.5 200.5,158.5C 197.287,158.19 194.287,158.523 191.5,159.5C 190.527,161.948 190.194,164.615 190.5,167.5C 188.473,167.662 186.473,167.495 184.5,167C 186.438,160.452 187.105,153.618 186.5,146.5C 191.214,146.173 195.88,146.507 200.5,147.5C 197.694,148.168 195.028,148.834 192.5,149.5 Z"/></g>
<g><path style="opacity:1" fill="#536288" d="M 228.5,166.5 C 228.167,166.5 227.833,166.5 227.5,166.5C 225.5,166.5 223.5,166.5 221.5,166.5C 218.641,161.251 215.974,155.917 213.5,150.5C 212.449,149.778 211.782,148.778 211.5,147.5C 213.384,147.288 214.717,146.288 215.5,144.5C 217.024,149.921 218.857,155.254 221,160.5C 223.116,163.121 225.616,165.121 228.5,166.5 Z"/></g>
<g><path style="opacity:1" fill="#6a6f8a" d="M 102.5,134.5 C 102.946,138.877 102.279,143.044 100.5,147C 102.569,157.724 103.903,168.557 104.5,179.5C 103.108,177.727 101.941,175.727 101,173.5C 100.617,174.056 100.117,174.389 99.5,174.5C 98.804,164.838 98.6373,155.171 99,145.5C 100.114,141.706 101.28,138.04 102.5,134.5 Z"/></g>
<g><path style="opacity:1" fill="#bdc1d2" d="M 123.5,149.5 C 123.5,149.833 123.5,150.167 123.5,150.5C 122.549,151.919 122.216,153.585 122.5,155.5C 125.167,155.5 127.833,155.5 130.5,155.5C 130.5,156.5 130.5,157.5 130.5,158.5C 127.5,158.5 124.5,158.5 121.5,158.5C 121.5,161.5 121.5,164.5 121.5,167.5C 119.5,167.5 117.5,167.5 115.5,167.5C 116.038,165.883 116.371,164.216 116.5,162.5C 117.488,157.36 117.821,152.026 117.5,146.5C 122.544,146.173 127.544,146.506 132.5,147.5C 129.358,148.167 126.358,148.834 123.5,149.5 Z"/></g>
<g><path style="opacity:1" fill="#aab0c4" d="M 158.5,145.5 C 164.206,145.171 169.872,145.505 175.5,146.5C 183.869,154.461 183.203,161.628 173.5,168C 168.177,168.499 162.844,168.666 157.5,168.5C 158.263,160.858 158.597,153.191 158.5,145.5 Z"/></g>
<g><path style="opacity:1" fill="#bfc6d8" d="M 164.5,149.5 C 164.5,154.5 164.5,159.5 164.5,164.5C 166.389,165.322 168.389,166.155 170.5,167C 166.459,167.827 162.459,167.66 158.5,166.5C 159.462,159.892 159.795,153.226 159.5,146.5C 163.846,146.334 168.179,146.501 172.5,147C 169.621,147.546 166.954,148.379 164.5,149.5 Z"/></g>
<g><path style="opacity:1" fill="#3e4868" d="M 164.5,149.5 C 173.222,150.112 175.556,154.279 171.5,162C 169.52,163.825 167.187,164.659 164.5,164.5C 164.5,159.5 164.5,154.5 164.5,149.5 Z"/></g>
<g><path style="opacity:1" fill="#7f8595" d="M 123.5,150.5 C 123.5,151.833 123.5,153.167 123.5,154.5C 126.5,154.5 129.5,154.5 132.5,154.5C 132.714,156.144 132.38,157.644 131.5,159C 128.518,159.498 125.518,159.665 122.5,159.5C 122.5,162.5 122.5,165.5 122.5,168.5C 119.941,168.802 117.607,168.468 115.5,167.5C 117.5,167.5 119.5,167.5 121.5,167.5C 121.5,164.5 121.5,161.5 121.5,158.5C 124.5,158.5 127.5,158.5 130.5,158.5C 130.5,157.5 130.5,156.5 130.5,155.5C 127.833,155.5 125.167,155.5 122.5,155.5C 122.216,153.585 122.549,151.919 123.5,150.5 Z"/></g>
<g><path style="opacity:1" fill="#f3f3f3" d="M 363.5,156.5 C 363.5,171.833 363.5,187.167 363.5,202.5C 322.161,202.833 280.828,202.5 239.5,201.5C 238.737,200.281 237.737,199.281 236.5,198.5C 237.106,196.291 237.773,194.124 238.5,192C 236.613,191.22 234.946,191.387 233.5,192.5C 229.588,191.877 226.254,190.211 223.5,187.5C 221.989,186.498 220.322,185.831 218.5,185.5C 216.477,182.984 213.977,180.984 211,179.5C 207.687,173.851 209.187,169.851 215.5,167.5C 217.379,166.659 219.379,166.325 221.5,166.5C 223.5,166.5 225.5,166.5 227.5,166.5C 240.808,177.433 253.975,177.1 267,165.5C 267.168,162.823 268.001,160.49 269.5,158.5C 270.268,157.737 270.768,156.737 271,155.5C 301.76,156.496 332.593,156.829 363.5,156.5 Z"/></g>
<g><path style="opacity:1" fill="#b2bad1" d="M 265.5,145.5 C 265.888,150.284 267.221,154.617 269.5,158.5C 268.001,160.49 267.168,162.823 267,165.5C 253.975,177.1 240.808,177.433 227.5,166.5C 227.833,166.5 228.167,166.5 228.5,166.5C 237.923,169.409 247.59,170.409 257.5,169.5C 263.337,165.825 266.004,160.492 265.5,153.5C 265.014,150.618 265.014,147.952 265.5,145.5 Z"/></g>
<g><path style="opacity:1" fill="#8898ca" d="M 213.5,150.5 C 215.974,155.917 218.641,161.251 221.5,166.5C 219.379,166.325 217.379,166.659 215.5,167.5C 209.987,166.683 207.32,169.017 207.5,174.5C 203.401,176.334 200.401,179.334 198.5,183.5C 196.745,185.761 195.578,188.428 195,191.5C 192.245,193.01 191.079,195.343 191.5,198.5C 192.791,198.263 193.791,198.596 194.5,199.5C 193.5,199.5 192.5,199.5 191.5,199.5C 189.77,200.026 188.436,201.026 187.5,202.5C 185.219,204.428 182.553,205.428 179.5,205.5C 179.911,200.517 181.244,195.85 183.5,191.5C 186.199,188.492 188.699,185.159 191,181.5C 191.495,179.527 191.662,177.527 191.5,175.5C 192.5,175.5 193.5,175.5 194.5,175.5C 194.421,174.07 194.754,172.736 195.5,171.5C 199.754,169.219 203.421,166.219 206.5,162.5C 207.842,163.902 208.676,163.569 209,161.5C 210.612,165.716 213.446,166.716 217.5,164.5C 214.976,160.711 212.976,156.545 211.5,152C 211.836,150.97 212.503,150.47 213.5,150.5 Z"/></g>
<g><path style="opacity:1" fill="#4a5682" d="M 110.5,121.5 C 110.833,121.5 111.167,121.5 111.5,121.5C 111.374,123.2 110.707,124.7 109.5,126C 109.862,127.225 110.362,128.391 111,129.5C 113.386,127.909 116.053,126.909 119,126.5C 119.394,128.955 120.56,130.955 122.5,132.5C 123.609,131.41 124.609,131.41 125.5,132.5C 124.41,133.609 124.41,134.609 125.5,135.5C 128.715,135.18 132.048,135.18 135.5,135.5C 135.286,137.144 135.62,138.644 136.5,140C 131.148,140.521 125.815,141.187 120.5,142C 129.16,142.5 137.827,142.666 146.5,142.5C 155.506,142.666 164.506,142.5 173.5,142C 172.182,138.731 172.182,135.565 173.5,132.5C 173.336,135.187 173.503,137.854 174,140.5C 174.383,141.056 174.883,141.389 175.5,141.5C 155.194,143.488 134.527,144.155 113.5,143.5C 113.248,152.181 113.082,160.848 113,169.5C 116.409,170.622 119.909,170.789 123.5,170C 124.444,167.281 124.777,164.448 124.5,161.5C 127.5,161.5 130.5,161.5 133.5,161.5C 132.945,165.012 133.612,168.012 135.5,170.5C 134.754,172.136 135.088,173.803 136.5,175.5C 139.138,176.583 141.471,177.916 143.5,179.5C 140.552,179.777 137.719,179.444 135,178.5C 134.29,179.973 133.124,180.64 131.5,180.5C 131.5,181.5 131.5,182.5 131.5,183.5C 130.778,183.082 130.278,182.416 130,181.5C 128.416,182.861 126.582,183.528 124.5,183.5C 124.324,188.88 124.658,194.213 125.5,199.5C 128.613,199.065 129.279,200.065 127.5,202.5C 128.187,204.177 128.854,205.844 129.5,207.5C 127.952,207.821 127.285,208.821 127.5,210.5C 128.833,210.5 130.167,210.5 131.5,210.5C 131.5,212.167 131.5,213.833 131.5,215.5C 129.517,215.157 128.183,215.824 127.5,217.5C 126.5,218.167 125.5,218.833 124.5,219.5C 120.446,219.114 118.446,216.78 118.5,212.5C 117.5,212.5 116.5,212.5 115.5,212.5C 115.5,211.833 115.167,211.5 114.5,211.5C 114.108,208.051 113.774,204.385 113.5,200.5C 112.5,200.5 111.5,200.5 110.5,200.5C 108.456,193.385 106.456,186.385 104.5,179.5C 103.903,168.557 102.569,157.724 100.5,147C 102.279,143.044 102.946,138.877 102.5,134.5C 103.943,133.665 104.943,132.332 105.5,130.5C 105.631,126.535 107.298,123.535 110.5,121.5 Z"/></g>
<g><path style="opacity:1" fill="#515e8a" d="M 174.5,170.5 C 169.015,171.327 163.348,171.827 157.5,172C 162.681,172.362 167.848,172.862 173,173.5C 175.501,173.416 177.834,172.75 180,171.5C 181.44,172.148 182.94,172.481 184.5,172.5C 184.041,176.439 184.041,180.273 184.5,184C 181.409,189.097 178.409,194.263 175.5,199.5C 177.119,202.642 177.785,205.975 177.5,209.5C 176.366,212.899 175.033,216.232 173.5,219.5C 172.201,218.91 171.368,217.91 171,216.5C 170.583,217.756 169.75,218.423 168.5,218.5C 166.228,217.681 163.894,217.015 161.5,216.5C 160.939,215.092 160.605,213.592 160.5,212C 161.903,206.224 162.903,200.391 163.5,194.5C 164.404,193.791 164.737,192.791 164.5,191.5C 165.376,191.631 166.043,191.298 166.5,190.5C 168.266,185.317 170.266,180.317 172.5,175.5C 169.167,175.5 167.5,177.167 167.5,180.5C 165.167,180.5 162.833,180.5 160.5,180.5C 160.5,181.5 160.5,182.5 160.5,183.5C 155.321,184.156 150.154,184.489 145,184.5C 143.189,183.922 141.355,183.422 139.5,183C 140.793,182.51 142.127,182.343 143.5,182.5C 143.5,181.5 143.5,180.5 143.5,179.5C 141.471,177.916 139.138,176.583 136.5,175.5C 135.088,173.803 134.754,172.136 135.5,170.5C 138.167,170.5 140.833,170.5 143.5,170.5C 143.5,167.833 143.5,165.167 143.5,162.5C 147.215,162.577 150.881,162.244 154.5,161.5C 154.223,164.448 154.556,167.281 155.5,170C 161.825,170.5 168.158,170.666 174.5,170.5 Z"/></g>
<g><path style="opacity:1" fill="#69769f" d="M 192.5,170.5 C 190.369,171.314 188.036,171.814 185.5,172C 186.448,172.483 187.448,172.649 188.5,172.5C 186.452,178.739 184.786,185.073 183.5,191.5C 181.244,195.85 179.911,200.517 179.5,205.5C 182.553,205.428 185.219,204.428 187.5,202.5C 188.038,204.117 188.371,205.784 188.5,207.5C 186.833,207.5 185.167,207.5 183.5,207.5C 182.528,212.263 180.695,216.597 178,220.5C 177.5,220.167 177,219.833 176.5,219.5C 177.956,216.259 179.289,212.926 180.5,209.5C 179.575,208.438 178.575,208.438 177.5,209.5C 177.785,205.975 177.119,202.642 175.5,199.5C 178.409,194.263 181.409,189.097 184.5,184C 184.041,180.273 184.041,176.439 184.5,172.5C 182.94,172.481 181.44,172.148 180,171.5C 177.834,172.75 175.501,173.416 173,173.5C 167.848,172.862 162.681,172.362 157.5,172C 163.348,171.827 169.015,171.327 174.5,170.5C 176.754,169.585 178.754,168.252 180.5,166.5C 181.429,167.689 181.762,169.022 181.5,170.5C 185.167,170.5 188.833,170.5 192.5,170.5 Z"/></g>
<g><path style="opacity:1" fill="#3b4568" d="M 104.5,179.5 C 106.456,186.385 108.456,193.385 110.5,200.5C 107.491,201.629 104.491,202.629 101.5,203.5C 96.3431,201.836 91.0098,201.17 85.5,201.5C 85.1667,200.833 84.8333,200.167 84.5,199.5C 88.649,200.08 92.3157,199.414 95.5,197.5C 97.677,197.586 99.677,198.253 101.5,199.5C 103.071,198.691 104.738,198.357 106.5,198.5C 106.849,195.955 106.016,193.955 104,192.5C 103.503,189.854 103.336,187.187 103.5,184.5C 101.453,184.489 99.4534,184.156 97.5,183.5C 94.6404,186.072 91.8071,186.072 89,183.5C 87.7387,183.759 86.7387,184.426 86,185.5C 85.7679,184.263 85.2679,183.263 84.5,182.5C 84.5,181.833 84.1667,181.5 83.5,181.5C 83.5,180.5 83.5,179.5 83.5,178.5C 86.5184,178.665 89.5184,178.498 92.5,178C 94.1193,177.764 95.1193,176.931 95.5,175.5C 96.8333,175.167 98.1667,174.833 99.5,174.5C 100.117,174.389 100.617,174.056 101,173.5C 101.941,175.727 103.108,177.727 104.5,179.5 Z"/></g>
<g><path style="opacity:1" fill="#a6b4d9" d="M 215.5,167.5 C 209.187,169.851 207.687,173.851 211,179.5C 213.977,180.984 216.477,182.984 218.5,185.5C 217.181,187.605 217.514,189.605 219.5,191.5C 218.37,192.622 217.703,193.956 217.5,195.5C 216.611,195.187 215.945,194.02 215.5,192C 212.638,191.76 210.305,190.593 208.5,188.5C 207.802,185.731 206.468,183.398 204.5,181.5C 205.127,180.583 205.461,179.583 205.5,178.5C 205.733,176.938 206.4,175.605 207.5,174.5C 207.32,169.017 209.987,166.683 215.5,167.5 Z"/></g>
<g><path style="opacity:1" fill="#9fa2b2" d="M 95.5,175.5 C 95.1193,176.931 94.1193,177.764 92.5,178C 89.5184,178.498 86.5184,178.665 83.5,178.5C 83.5,179.5 83.5,180.5 83.5,181.5C 83.5,186.5 83.5,191.5 83.5,196.5C 82.5098,190.355 82.1765,184.022 82.5,177.5C 86.993,177.731 91.3263,177.064 95.5,175.5 Z"/></g>
<g><path style="opacity:1" fill="#424d70" d="M 164.5,191.5 C 155.797,191.505 147.13,191.339 138.5,191C 138.904,194.403 138.904,197.903 138.5,201.5C 139.05,204.721 140.05,207.721 141.5,210.5C 143.095,212.374 142.761,213.207 140.5,213C 139.044,210.588 137.71,208.088 136.5,205.5C 135.288,207.836 135.621,210.003 137.5,212C 136.144,213.567 135.477,215.4 135.5,217.5C 132.833,217.5 130.167,217.5 127.5,217.5C 128.183,215.824 129.517,215.157 131.5,215.5C 131.5,213.833 131.5,212.167 131.5,210.5C 130.167,210.5 128.833,210.5 127.5,210.5C 127.285,208.821 127.952,207.821 129.5,207.5C 130.309,205.708 130.809,203.708 131,201.5C 132.762,199.258 134.262,196.924 135.5,194.5C 134.004,190.817 132.67,187.151 131.5,183.5C 131.5,182.5 131.5,181.5 131.5,180.5C 133.124,180.64 134.29,179.973 135,178.5C 137.719,179.444 140.552,179.777 143.5,179.5C 143.5,180.5 143.5,181.5 143.5,182.5C 142.127,182.343 140.793,182.51 139.5,183C 141.355,183.422 143.189,183.922 145,184.5C 150.154,184.489 155.321,184.156 160.5,183.5C 160.5,182.5 160.5,181.5 160.5,180.5C 162.833,180.5 165.167,180.5 167.5,180.5C 167.5,177.167 169.167,175.5 172.5,175.5C 170.266,180.317 168.266,185.317 166.5,190.5C 166.043,191.298 165.376,191.631 164.5,191.5 Z"/></g>
<g><path style="opacity:1" fill="#495682" d="M 84.5,182.5 C 85.2679,183.263 85.7679,184.263 86,185.5C 86.7387,184.426 87.7387,183.759 89,183.5C 91.8071,186.072 94.6404,186.072 97.5,183.5C 99.4534,184.156 101.453,184.489 103.5,184.5C 103.336,187.187 103.503,189.854 104,192.5C 106.016,193.955 106.849,195.955 106.5,198.5C 104.738,198.357 103.071,198.691 101.5,199.5C 99.677,198.253 97.677,197.586 95.5,197.5C 92.9773,196.746 90.3106,196.08 87.5,195.5C 85.1176,191.494 84.1176,187.161 84.5,182.5 Z"/></g>
<g><path style="opacity:1" fill="#646d8d" d="M 218.5,185.5 C 220.322,185.831 221.989,186.498 223.5,187.5C 223.075,192.288 225.075,195.621 229.5,197.5C 229.44,198.043 229.107,198.376 228.5,198.5C 226.5,197.5 224.5,196.5 222.5,195.5C 220.872,196.535 219.205,196.535 217.5,195.5C 217.703,193.956 218.37,192.622 219.5,191.5C 217.514,189.605 217.181,187.605 218.5,185.5 Z"/></g>
<g><path style="opacity:1" fill="#bbbfc9" d="M 223.5,187.5 C 226.254,190.211 229.588,191.877 233.5,192.5C 232.87,195.582 231.87,198.582 230.5,201.5C 229.943,203.332 228.943,204.665 227.5,205.5C 228.815,203.865 228.815,202.199 227.5,200.5C 228.5,199.833 229.5,199.167 230.5,198.5C 230.376,197.893 230.043,197.56 229.5,197.5C 225.075,195.621 223.075,192.288 223.5,187.5 Z"/></g>
<g><path style="opacity:1" fill="#5d6a97" d="M 131.5,183.5 C 132.67,187.151 134.004,190.817 135.5,194.5C 134.262,196.924 132.762,199.258 131,201.5C 130.809,203.708 130.309,205.708 129.5,207.5C 128.854,205.844 128.187,204.177 127.5,202.5C 129.279,200.065 128.613,199.065 125.5,199.5C 124.658,194.213 124.324,188.88 124.5,183.5C 126.582,183.528 128.416,182.861 130,181.5C 130.278,182.416 130.778,183.082 131.5,183.5 Z"/></g>
<g><path style="opacity:1" fill="#bdbdc5" d="M 164.5,191.5 C 164.737,192.791 164.404,193.791 163.5,194.5C 163.167,194.5 162.833,194.5 162.5,194.5C 162.53,193.503 162.03,192.836 161,192.5C 154.197,193.339 147.364,193.339 140.5,192.5C 140.013,199.398 141.68,205.731 145.5,211.5C 145.253,212.713 144.586,213.38 143.5,213.5C 144.914,211.402 144.248,210.402 141.5,210.5C 140.05,207.721 139.05,204.721 138.5,201.5C 138.904,197.903 138.904,194.403 138.5,191C 147.13,191.339 155.797,191.505 164.5,191.5 Z"/></g>
<g><path style="opacity:1" fill="#445179" d="M 211.5,207.5 C 211.167,207.5 210.833,207.5 210.5,207.5C 206.636,204.541 202.636,201.541 198.5,198.5C 197.272,200.176 195.939,200.509 194.5,199.5C 193.791,198.596 192.791,198.263 191.5,198.5C 191.079,195.343 192.245,193.01 195,191.5C 195.578,188.428 196.745,185.761 198.5,183.5C 199.363,182.537 200.03,182.537 200.5,183.5C 198.114,190.853 200.447,196.02 207.5,199C 208.833,200.667 210.167,202.333 211.5,204C 213.974,204.113 215.974,205.113 217.5,207C 216.975,207.692 216.308,208.192 215.5,208.5C 214.264,207.754 212.93,207.421 211.5,207.5 Z"/></g>
<g><path style="opacity:1" fill="#5b6581" d="M 83.5,181.5 C 84.1667,181.5 84.5,181.833 84.5,182.5C 84.1176,187.161 85.1176,191.494 87.5,195.5C 90.3106,196.08 92.9773,196.746 95.5,197.5C 92.3157,199.414 88.649,200.08 84.5,199.5C 84.7373,198.209 84.404,197.209 83.5,196.5C 83.5,191.5 83.5,186.5 83.5,181.5 Z"/></g>
<g><path style="opacity:1" fill="#7c8bbd" d="M 205.5,178.5 C 205.461,179.583 205.127,180.583 204.5,181.5C 206.468,183.398 207.802,185.731 208.5,188.5C 210.305,190.593 212.638,191.76 215.5,192C 215.945,194.02 216.611,195.187 217.5,195.5C 219.205,196.535 220.872,196.535 222.5,195.5C 224.5,196.5 226.5,197.5 228.5,198.5C 229.107,198.376 229.44,198.043 229.5,197.5C 230.043,197.56 230.376,197.893 230.5,198.5C 229.5,199.167 228.5,199.833 227.5,200.5C 228.815,202.199 228.815,203.865 227.5,205.5C 226.817,207.176 225.483,207.843 223.5,207.5C 223.737,208.791 223.404,209.791 222.5,210.5C 222.607,208.097 221.607,206.264 219.5,205C 213.822,201.068 207.989,197.235 202,193.5C 201.333,189.833 201.333,186.167 202,182.5C 202.949,180.907 204.115,179.574 205.5,178.5 Z"/></g>
<g><path style="opacity:1" fill="#5c6790" d="M 207.5,174.5 C 206.4,175.605 205.733,176.938 205.5,178.5C 204.115,179.574 202.949,180.907 202,182.5C 201.333,186.167 201.333,189.833 202,193.5C 207.989,197.235 213.822,201.068 219.5,205C 221.607,206.264 222.607,208.097 222.5,210.5C 221.751,212.246 220.417,213.246 218.5,213.5C 216.147,211.477 213.814,209.477 211.5,207.5C 212.93,207.421 214.264,207.754 215.5,208.5C 216.308,208.192 216.975,207.692 217.5,207C 215.974,205.113 213.974,204.113 211.5,204C 210.167,202.333 208.833,200.667 207.5,199C 200.447,196.02 198.114,190.853 200.5,183.5C 200.03,182.537 199.363,182.537 198.5,183.5C 200.401,179.334 203.401,176.334 207.5,174.5 Z"/></g>
<g><path style="opacity:1" fill="#8b93a4" d="M 110.5,200.5 C 111.5,200.5 112.5,200.5 113.5,200.5C 113.774,204.385 114.108,208.051 114.5,211.5C 113.414,211.38 112.747,210.713 112.5,209.5C 112.036,206.651 111.369,203.984 110.5,201.5C 107.785,203.123 104.785,203.79 101.5,203.5C 104.491,202.629 107.491,201.629 110.5,200.5 Z"/></g>
<g><path style="opacity:1" fill="#8a8c99" d="M 85.5,201.5 C 91.0098,201.17 96.3431,201.836 101.5,203.5C 97.6888,204.645 93.6888,204.812 89.5,204C 87.9336,203.392 86.6002,202.558 85.5,201.5 Z"/></g>
<g><path style="opacity:1" fill="#f3f2f2" d="M 363.5,202.5 C 363.5,211.167 363.5,219.833 363.5,228.5C 242.167,228.5 120.833,228.5 -0.5,228.5C -0.5,225.167 -0.5,221.833 -0.5,218.5C 37.5,218.5 75.5,218.5 113.5,218.5C 113.5,217.5 113.5,216.5 113.5,215.5C 111.143,215.663 108.81,215.497 106.5,215C 108.025,213.991 109.692,213.491 111.5,213.5C 111.5,212.5 111.5,211.5 111.5,210.5C 101.906,209.272 101.572,208.272 110.5,207.5C 110.5,205.5 110.5,203.5 110.5,201.5C 111.369,203.984 112.036,206.651 112.5,209.5C 112.747,210.713 113.414,211.38 114.5,211.5C 115.167,211.5 115.5,211.833 115.5,212.5C 115.833,215.167 116.167,217.833 116.5,220.5C 121.695,220.821 126.695,220.487 131.5,219.5C 135.67,217.83 139.67,215.83 143.5,213.5C 144.586,213.38 145.253,212.713 145.5,211.5C 141.68,205.731 140.013,199.398 140.5,192.5C 147.364,193.339 154.197,193.339 161,192.5C 162.03,192.836 162.53,193.503 162.5,194.5C 160.783,199.914 159.117,205.414 157.5,211C 158.145,213.476 159.478,215.309 161.5,216.5C 163.894,217.015 166.228,217.681 168.5,218.5C 172.835,221.379 177.335,221.712 182,219.5C 182.873,219.735 183.707,220.069 184.5,220.5C 187.045,213.526 189.379,206.526 191.5,199.5C 192.5,199.5 193.5,199.5 194.5,199.5C 196.956,201.412 199.622,203.245 202.5,205C 205.102,206.14 207.769,206.973 210.5,207.5C 210.833,207.5 211.167,207.5 211.5,207.5C 213.814,209.477 216.147,211.477 218.5,213.5C 220.417,213.246 221.751,212.246 222.5,210.5C 223.404,209.791 223.737,208.791 223.5,207.5C 225.483,207.843 226.817,207.176 227.5,205.5C 228.943,204.665 229.943,203.332 230.5,201.5C 231.87,198.582 232.87,195.582 233.5,192.5C 234.946,191.387 236.613,191.22 238.5,192C 237.773,194.124 237.106,196.291 236.5,198.5C 237.737,199.281 238.737,200.281 239.5,201.5C 280.828,202.5 322.161,202.833 363.5,202.5 Z"/></g>
<g><path style="opacity:1" fill="#8d94a8" d="M 162.5,194.5 C 162.833,194.5 163.167,194.5 163.5,194.5C 162.903,200.391 161.903,206.224 160.5,212C 160.605,213.592 160.939,215.092 161.5,216.5C 159.478,215.309 158.145,213.476 157.5,211C 159.117,205.414 160.783,199.914 162.5,194.5 Z"/></g>
<g><path style="opacity:1" fill="#878dab" d="M 210.5,207.5 C 207.769,206.973 205.102,206.14 202.5,205C 199.622,203.245 196.956,201.412 194.5,199.5C 195.939,200.509 197.272,200.176 198.5,198.5C 202.636,201.541 206.636,204.541 210.5,207.5 Z"/></g>
<g><path style="opacity:1" fill="#6f7689" d="M 141.5,210.5 C 144.248,210.402 144.914,211.402 143.5,213.5C 139.67,215.83 135.67,217.83 131.5,219.5C 129.167,219.5 126.833,219.5 124.5,219.5C 125.5,218.833 126.5,218.167 127.5,217.5C 130.167,217.5 132.833,217.5 135.5,217.5C 135.477,215.4 136.144,213.567 137.5,212C 135.621,210.003 135.288,207.836 136.5,205.5C 137.71,208.088 139.044,210.588 140.5,213C 142.761,213.207 143.095,212.374 141.5,210.5 Z"/></g>
<g><path style="opacity:1" fill="#a6a8b5" d="M 115.5,212.5 C 116.5,212.5 117.5,212.5 118.5,212.5C 118.446,216.78 120.446,219.114 124.5,219.5C 126.833,219.5 129.167,219.5 131.5,219.5C 126.695,220.487 121.695,220.821 116.5,220.5C 116.167,217.833 115.833,215.167 115.5,212.5 Z"/></g>
<g><path style="opacity:1" fill="#a2a7bc" d="M 191.5,199.5 C 189.379,206.526 187.045,213.526 184.5,220.5C 183.707,220.069 182.873,219.735 182,219.5C 177.335,221.712 172.835,221.379 168.5,218.5C 169.75,218.423 170.583,217.756 171,216.5C 171.368,217.91 172.201,218.91 173.5,219.5C 175.033,216.232 176.366,212.899 177.5,209.5C 178.575,208.438 179.575,208.438 180.5,209.5C 179.289,212.926 177.956,216.259 176.5,219.5C 177,219.833 177.5,220.167 178,220.5C 180.695,216.597 182.528,212.263 183.5,207.5C 185.167,207.5 186.833,207.5 188.5,207.5C 188.371,205.784 188.038,204.117 187.5,202.5C 188.436,201.026 189.77,200.026 191.5,199.5 Z"/></g>
<g><path style="opacity:1" fill="#f3f3f3" d="M -0.5,228.5 C 120.833,228.5 242.167,228.5 363.5,228.5C 363.5,233.833 363.5,239.167 363.5,244.5C 242.167,244.5 120.833,244.5 -0.5,244.5C -0.5,239.167 -0.5,233.833 -0.5,228.5 Z"/></g>
</svg>
