<?xml version="1.0" encoding="UTF-8"?>
<!DOCTYPE svg PUBLIC "-//W3C//DTD SVG 1.1//EN" "http://www.w3.org/Graphics/SVG/1.1/DTD/svg11.dtd">
<svg xmlns="http://www.w3.org/2000/svg" version="1.1" width="512px" height="512px" style="shape-rendering:geometricPrecision; text-rendering:geometricPrecision; image-rendering:optimizeQuality; fill-rule:evenodd; clip-rule:evenodd" xmlns:xlink="http://www.w3.org/1999/xlink">
<g><path style="opacity:0.995" fill="#919396" d="M 240.5,270.5 C 231.27,259.036 230.104,246.702 237,233.5C 248.477,221.439 260.81,220.439 274,230.5C 274.333,224.167 274.667,217.833 275,211.5C 275.69,207.81 277.857,206.643 281.5,208C 282.126,208.75 282.626,209.584 283,210.5C 283.822,231.543 283.655,252.543 282.5,273.5C 280.751,275.531 278.751,275.865 276.5,274.5C 275.376,272.631 274.543,270.631 274,268.5C 267.114,275.092 258.948,277.259 249.5,275C 246.194,274.014 243.194,272.514 240.5,270.5 Z M 251.5,231.5 C 271.271,231.107 278.437,240.441 273,259.5C 266.772,268.714 258.606,270.881 248.5,266C 239.724,257.705 238.224,248.205 244,237.5C 246.114,234.879 248.614,232.879 251.5,231.5 Z"/></g>
<g><path style="opacity:1" fill="#2f7fc1" d="M 36.5,207.5 C 39.505,207.253 42.005,208.253 44,210.5C 44.6667,236.833 44.6667,263.167 44,289.5C 39.4143,293.937 35.7476,293.271 33,287.5C 32.3333,262.167 32.3333,236.833 33,211.5C 33.6897,209.65 34.8564,208.316 36.5,207.5 Z"/></g>
<g><path style="opacity:0.999" fill="#919397" d="M 299.5,207.5 C 301.722,207.178 303.556,207.845 305,209.5C 305.499,214.489 305.666,219.489 305.5,224.5C 310.511,224.334 315.511,224.501 320.5,225C 321.833,227 321.833,229 320.5,231C 315.511,231.499 310.511,231.666 305.5,231.5C 305.333,242.172 305.5,252.839 306,263.5C 306.833,265.667 308.333,267.167 310.5,268C 313.572,268.456 316.572,268.456 319.5,268C 322.556,271.445 321.89,273.778 317.5,275C 307.905,277.712 301.405,274.545 298,265.5C 297.333,246.833 297.333,228.167 298,209.5C 298.717,208.956 299.217,208.289 299.5,207.5 Z"/></g>
<g><path style="opacity:0.004" fill="#000000" d="M 306.5,210.5 C 307.833,211.167 307.833,211.167 306.5,210.5 Z"/></g>
<g><path style="opacity:0.995" fill="#919396" d="M 139.5,223.5 C 147.97,222.819 154.803,225.819 160,232.5C 171.876,220.281 183.543,220.614 195,233.5C 196.605,236.648 197.605,239.981 198,243.5C 198.667,252.833 198.667,262.167 198,271.5C 195.878,276.32 193.212,276.653 190,272.5C 189.667,261.5 189.333,250.5 189,239.5C 186.872,234.098 182.872,231.431 177,231.5C 171.128,231.431 167.128,234.098 165,239.5C 164.667,249.5 164.333,259.5 164,269.5C 161.383,273.476 158.716,273.476 156,269.5C 155.667,259.5 155.333,249.5 155,239.5C 152.872,234.098 148.872,231.431 143,231.5C 137.128,231.431 133.128,234.098 131,239.5C 130.667,250.5 130.333,261.5 130,272.5C 126.788,276.653 124.122,276.32 122,271.5C 121.121,260.45 121.454,249.45 123,238.5C 126.182,230.813 131.682,225.813 139.5,223.5 Z"/></g>
<g><path style="opacity:0.994" fill="#919396" d="M 511.5,256.5 C 511.5,259.5 511.5,262.5 511.5,265.5C 507.699,272.605 501.699,275.938 493.5,275.5C 486.585,275.688 480.251,273.854 474.5,270C 471.54,266.749 472.207,264.582 476.5,263.5C 480.162,264.997 483.828,266.497 487.5,268C 491.5,268.667 495.5,268.667 499.5,268C 504.321,264.399 504.654,260.399 500.5,256C 493.323,253.789 486.323,251.123 479.5,248C 474.746,242.28 474.246,236.114 478,229.5C 488.537,221.942 499.204,221.942 510,229.5C 511.165,232.814 509.998,234.814 506.5,235.5C 500.286,231.289 493.619,230.122 486.5,232C 482.377,235.241 482.043,238.574 485.5,242C 492.167,244.667 498.833,247.333 505.5,250C 507.856,251.914 509.856,254.081 511.5,256.5 Z"/></g>
<g><path style="opacity:1" fill="#88c6e8" d="M -0.5,272.5 C -0.5,257.5 -0.5,242.5 -0.5,227.5C 3.15123,222.185 6.98456,222.185 11,227.5C 11.1667,234.833 11.3333,242.167 11.5,249.5C 11.6365,257.599 11.1365,265.599 10,273.5C 6.1442,277.163 2.6442,276.829 -0.5,272.5 Z"/></g>
<g><path style="opacity:1" fill="#0dacdc" d="M 70.5,223.5 C 74.0897,223.544 76.5897,225.211 78,228.5C 78.6667,242.833 78.6667,257.167 78,271.5C 75.1537,277.102 71.487,277.769 67,273.5C 66.3333,257.833 66.3333,242.167 67,226.5C 68.1451,225.364 69.3117,224.364 70.5,223.5 Z"/></g>
<g><path style="opacity:0.99" fill="#929497" d="M 215.5,223.5 C 217.39,223.297 218.89,223.963 220,225.5C 220.667,241.5 220.667,257.5 220,273.5C 217.667,276.167 215.333,276.167 213,273.5C 212.333,257.5 212.333,241.5 213,225.5C 213.995,224.934 214.828,224.267 215.5,223.5 Z"/></g>
<g><path style="opacity:0.997" fill="#919396" d="M 349.5,224.5 C 352.85,224.335 356.183,224.502 359.5,225C 361.325,226.466 361.825,228.299 361,230.5C 357.595,231.582 354.095,232.416 350.5,233C 345.664,234.819 342.831,238.319 342,243.5C 341.667,253.5 341.333,263.5 341,273.5C 338.667,276.167 336.333,276.167 334,273.5C 333.333,262.833 333.333,252.167 334,241.5C 336.283,233.056 341.45,227.389 349.5,224.5 Z"/></g>
<g><path style="opacity:0.992" fill="#919396" d="M 379.5,224.5 C 400.767,224.781 409.767,235.614 406.5,257C 406.333,262.5 406.167,268 406,273.5C 404.477,275.62 402.644,275.953 400.5,274.5C 399.066,272.78 398.233,270.78 398,268.5C 386.289,279.084 374.955,278.751 364,267.5C 360.261,253.814 365.428,245.981 379.5,244C 385.596,243.376 391.596,243.876 397.5,245.5C 398.348,241.333 397.015,237.833 393.5,235C 388.642,233.163 383.642,231.83 378.5,231C 377.144,228.586 377.478,226.419 379.5,224.5 Z M 382.5,249.5 C 387.847,250.073 393.18,250.74 398.5,251.5C 397.798,259.406 393.798,264.906 386.5,268C 376.062,270.733 370.895,266.9 371,256.5C 371.465,255.069 372.299,253.903 373.5,253C 376.459,251.396 379.459,250.229 382.5,249.5 Z"/></g>
<g><path style="opacity:0.988" fill="#929497" d="M 456.5,229.5 C 461.822,236.491 464.155,244.491 463.5,253.5C 462.889,260.158 462.389,266.825 462,273.5C 459.667,276.167 457.333,276.167 455,273.5C 454.936,261.762 454.27,250.096 453,238.5C 447.532,231.206 440.699,229.706 432.5,234C 431.213,235.41 430.046,236.91 429,238.5C 427.73,250.096 427.064,261.762 427,273.5C 424.667,276.167 422.333,276.167 420,273.5C 419.333,262.167 419.333,250.833 420,239.5C 425.324,226.587 434.824,221.754 448.5,225C 451.356,226.259 454.023,227.759 456.5,229.5 Z"/></g>
<g><path style="opacity:0.004" fill="#000000" d="M 221.5,226.5 C 222.833,227.167 222.833,227.167 221.5,226.5 Z"/></g>
<g><path style="opacity:0.004" fill="#0000ff" d="M 456.5,228.5 C 457.833,229.167 457.833,229.167 456.5,228.5 Z"/></g>
<g><path style="opacity:0.004" fill="#fefffe" d="M 306.5,232.5 C 307.833,233.167 307.833,233.167 306.5,232.5 Z"/></g>
<g><path style="opacity:0.004" fill="#000000" d="M 308.5,233.5 C 311.64,232.359 314.973,232.192 318.5,233C 315.183,233.498 311.85,233.665 308.5,233.5 Z"/></g>
<g><path style="opacity:0.004" fill="#000000" d="M 332.5,239.5 C 333.833,240.167 333.833,240.167 332.5,239.5 Z"/></g>
<g><path style="opacity:0.004" fill="#000000" d="M 120.5,240.5 C 121.833,241.167 121.833,241.167 120.5,240.5 Z"/></g>
<g><path style="opacity:0.004" fill="#000000" d="M 331.5,244.5 C 332.833,245.167 332.833,245.167 331.5,244.5 Z"/></g>
<g><path style="opacity:0.004" fill="#000000" d="M 360.5,261.5 C 361.833,262.167 361.833,262.167 360.5,261.5 Z"/></g>
<g><path style="opacity:0.004" fill="#000000" d="M 240.5,270.5 C 239.833,271.167 239.833,271.167 240.5,270.5 Z"/></g>
<g><path style="opacity:0.004" fill="#000000" d="M 428.5,270.5 C 429.833,271.167 429.833,271.167 428.5,270.5 Z"/></g>
<g><path style="opacity:0.004" fill="#000000" d="M 120.5,272.5 C 121.833,273.167 121.833,273.167 120.5,272.5 Z"/></g>
</svg>
