<?xml version="1.0" encoding="UTF-8"?>
<!DOCTYPE svg PUBLIC "-//W3C//DTD SVG 1.1//EN" "http://www.w3.org/Graphics/SVG/1.1/DTD/svg11.dtd">
<svg xmlns="http://www.w3.org/2000/svg" version="1.1" width="280px" height="280px" style="shape-rendering:geometricPrecision; text-rendering:geometricPrecision; image-rendering:optimizeQuality; fill-rule:evenodd; clip-rule:evenodd" xmlns:xlink="http://www.w3.org/1999/xlink">
<g><path style="opacity:0.998" fill="#52add9" d="M 169.5,13.5 C 167.518,16.8103 165.185,19.8103 162.5,22.5C 154.493,22.3336 146.493,22.5003 138.5,23C 146.619,27.6725 147.619,33.5058 141.5,40.5C 141.833,39.1667 142.167,37.8333 142.5,36.5C 143.986,29.1115 140.82,24.7782 133,23.5C 116.876,25.928 102.043,31.5947 88.5,40.5C 82.4716,39.3093 76.805,37.3093 71.5,34.5C 73.2624,34.3573 74.9291,34.6906 76.5,35.5C 104.664,16.0418 135.664,8.70851 169.5,13.5 Z"/></g>
<g><path style="opacity:1" fill="#f7a652" d="M 142.5,36.5 C 140.5,37.976 138.833,39.8094 137.5,42C 131.833,44.3333 126.167,46.6667 120.5,49C 116.81,51.1693 115.143,54.336 115.5,58.5C 116.552,58.6495 117.552,58.4828 118.5,58C 121.71,55.2833 125.044,52.7833 128.5,50.5C 125.254,59.669 121.421,68.669 117,77.5C 116.421,78.9285 116.588,80.2618 117.5,81.5C 109.157,79.3301 100.991,76.6635 93,73.5C 93.6517,66.1969 95.1517,59.0302 97.5,52C 97.3784,47.6998 95.3784,44.5331 91.5,42.5C 90.2905,42.0679 89.2905,41.4013 88.5,40.5C 102.043,31.5947 116.876,25.928 133,23.5C 140.82,24.7782 143.986,29.1115 142.5,36.5 Z"/></g>
<g><path style="opacity:0.22" fill="#c8c8c9" d="M 34.5,21.5 C 40.0517,21.7976 45.0517,23.4643 49.5,26.5C 44.3299,25.0678 39.3299,23.4012 34.5,21.5 Z"/></g>
<g><path style="opacity:1" fill="#438ccb" d="M 162.5,22.5 C 175.587,23.9767 187.92,27.6434 199.5,33.5C 190.777,42.2196 182.444,51.2196 174.5,60.5C 170.668,56.8362 166.668,53.3362 162.5,50C 150.972,45.7541 139.306,45.4207 127.5,49C 123.759,50.7379 120.592,53.2379 118,56.5C 117.508,55.451 117.674,54.451 118.5,53.5C 122.921,49.1235 128.255,46.6235 134.5,46C 137.621,45.0332 139.954,43.1999 141.5,40.5C 147.619,33.5058 146.619,27.6725 138.5,23C 146.493,22.5003 154.493,22.3336 162.5,22.5 Z"/></g>
<g><path style="opacity:1" fill="#757679" d="M 34.5,21.5 C 39.3299,23.4012 44.3299,25.0678 49.5,26.5C 57.0894,28.5842 64.4227,31.2508 71.5,34.5C 76.805,37.3093 82.4716,39.3093 88.5,40.5C 89.2905,41.4013 90.2905,42.0679 91.5,42.5C 92.1495,44.4352 92.4828,46.4352 92.5,48.5C 84.7666,47.5899 77.0999,46.2566 69.5,44.5C 63.6639,46.6313 58.3306,45.4646 53.5,41C 55.8833,40.935 56.55,40.1017 55.5,38.5C 49.1717,33.8341 42.1717,32.1675 34.5,33.5C 32.3333,37.8333 30.1667,42.1667 28,46.5C 27.6249,51.2101 26.9582,55.8768 26,60.5C 22.7792,66.032 20.7792,72.032 20,78.5C 12.1394,94.9491 9.80603,93.9491 13,75.5C 14.2163,69.8484 16.2163,64.5151 19,59.5C 19.1802,56.0445 19.8468,52.7111 21,49.5C 21.5428,46.1322 21.3761,42.7989 20.5,39.5C 21.1026,33.2445 23.4359,27.7445 27.5,23C 29.74,22.023 32.0733,21.523 34.5,21.5 Z"/></g>
<g><path style="opacity:1" fill="#3180c2" d="M 199.5,33.5 C 209.656,37.4069 218.656,43.0735 226.5,50.5C 210.911,64.4203 195.911,79.087 181.5,94.5C 175.1,94.5731 172.1,97.9065 172.5,104.5C 167.299,101.405 162.299,98.0712 157.5,94.5C 156.31,89.7868 154.31,85.4535 151.5,81.5C 156.844,81.334 162.177,81.5006 167.5,82C 170.5,84.3333 173.5,86.6667 176.5,89C 185.748,88.0441 189.248,82.8774 187,73.5C 184.673,67.3406 180.506,63.0073 174.5,60.5C 182.444,51.2196 190.777,42.2196 199.5,33.5 Z"/></g>
<g><path style="opacity:1" fill="#f69b48" d="M 165.5,55.5 C 162.71,63.0803 159.377,70.4136 155.5,77.5C 158.306,78.1676 160.972,78.8343 163.5,79.5C 158.833,79.5 154.167,79.5 149.5,79.5C 140.594,74.8787 132.261,75.712 124.5,82C 122.115,82.5564 119.782,82.3897 117.5,81.5C 116.588,80.2618 116.421,78.9285 117,77.5C 121.421,68.669 125.254,59.669 128.5,50.5C 140.514,47.1297 152.181,47.963 163.5,53C 164.381,53.7083 165.047,54.5416 165.5,55.5 Z"/></g>
<g><path style="opacity:1" fill="#676769" d="M 91.5,42.5 C 95.3784,44.5331 97.3784,47.6998 97.5,52C 95.1517,59.0302 93.6517,66.1969 93,73.5C 100.991,76.6635 109.157,79.3301 117.5,81.5C 119.782,82.3897 122.115,82.5564 124.5,82C 132.261,75.712 140.594,74.8787 149.5,79.5C 149.5,80.8333 150.167,81.5 151.5,81.5C 154.31,85.4535 156.31,89.7868 157.5,94.5C 157.557,95.609 157.89,96.609 158.5,97.5C 156.786,107.267 153.119,116.267 147.5,124.5C 146.29,124.932 145.29,125.599 144.5,126.5C 140.833,128.5 137.167,130.5 133.5,132.5C 132.662,132.842 132.328,133.508 132.5,134.5C 130.983,134.511 129.816,135.177 129,136.5C 128.503,139.146 128.336,141.813 128.5,144.5C 128.167,144.5 127.833,144.5 127.5,144.5C 127.335,141.15 127.502,137.817 128,134.5C 131.812,131.688 135.646,129.021 139.5,126.5C 144.378,124.461 148.212,121.127 151,116.5C 154.802,108.698 155.969,100.698 154.5,92.5C 151.478,81.9809 144.478,77.4809 133.5,79C 131.004,80.0804 128.67,81.4138 126.5,83C 127.044,83.7172 127.711,84.2172 128.5,84.5C 130.328,86.1614 132.328,87.8281 134.5,89.5C 135.711,90.7202 135.711,91.8869 134.5,93C 127.786,92.3228 121.119,90.9894 114.5,89C 105.438,87.2263 102.105,90.7263 104.5,99.5C 101.42,98.3042 98.5868,98.3042 96,99.5C 92.5013,97.7231 89.0013,97.5564 85.5,99C 84.4829,100.049 84.3162,101.216 85,102.5C 86.9321,104.038 89.0988,105.205 91.5,106C 92.2524,106.671 92.5858,107.504 92.5,108.5C 91.1667,108.167 89.8333,107.833 88.5,107.5C 86.0948,106.232 83.4282,105.565 80.5,105.5C 78.2769,114.344 74.6103,122.511 69.5,130C 61.3559,131.19 53.6892,130.024 46.5,126.5C 51.834,127.336 57.1674,127.836 62.5,128C 63.8333,126.333 63.8333,124.667 62.5,123C 58.8333,121.333 55.1667,119.667 51.5,118C 42.9118,117.026 34.9118,114.526 27.5,110.5C 38.4992,113.621 49.4992,116.787 60.5,120C 63.9563,121.123 66.7897,120.29 69,117.5C 69.3884,113.781 70.0551,110.114 71,106.5C 74.4331,100.878 77.0997,94.8777 79,88.5C 80.6216,79.5139 82.7883,70.6805 85.5,62C 85.6125,60.3376 84.9458,59.1709 83.5,58.5C 80.2625,60.2317 78.4292,62.8984 78,66.5C 77.5172,65.552 77.3505,64.552 77.5,63.5C 77.7135,61.8561 77.3802,60.3561 76.5,59C 74.0912,57.2932 71.4245,56.4598 68.5,56.5C 65.3858,54.4578 62.0524,52.7911 58.5,51.5C 52.8513,49.5056 47.1846,47.5056 41.5,45.5C 39.6171,45.8757 38.1171,46.8757 37,48.5C 32.4826,62.1919 27.9826,75.8585 23.5,89.5C 22.5386,87.7354 22.2053,85.7354 22.5,83.5C 21.1779,83.33 20.0113,83.6634 19,84.5C 15.9233,89.5914 13.2567,94.9247 11,100.5C 9.98873,101.337 8.82207,101.67 7.5,101.5C 8.50577,90.1217 10.0058,78.7884 12,67.5C 12.3333,67.8333 12.6667,68.1667 13,68.5C 16.3779,61.2003 18.2112,53.5336 18.5,45.5C 18.595,43.2143 19.2616,41.2143 20.5,39.5C 21.3761,42.7989 21.5428,46.1322 21,49.5C 19.8468,52.7111 19.1802,56.0445 19,59.5C 16.2163,64.5151 14.2163,69.8484 13,75.5C 9.80603,93.9491 12.1394,94.9491 20,78.5C 20.7792,72.032 22.7792,66.032 26,60.5C 26.9582,55.8768 27.6249,51.2101 28,46.5C 30.1667,42.1667 32.3333,37.8333 34.5,33.5C 42.1717,32.1675 49.1717,33.8341 55.5,38.5C 56.55,40.1017 55.8833,40.935 53.5,41C 58.3306,45.4646 63.6639,46.6313 69.5,44.5C 77.0999,46.2566 84.7666,47.5899 92.5,48.5C 92.4828,46.4352 92.1495,44.4352 91.5,42.5 Z M 56.5,54.5 C 43.7382,67.9467 34.7382,83.6134 29.5,101.5C 27.2362,100.781 24.9029,100.448 22.5,100.5C 22.5,100.167 22.5,99.8333 22.5,99.5C 28.2972,82.776 34.2972,66.1094 40.5,49.5C 42.0983,48.5153 43.765,48.3486 45.5,49C 49.538,50.3522 53.2046,52.1855 56.5,54.5 Z"/></g>
<g><path style="opacity:0.03" fill="#0a0a0b" d="M 58.5,51.5 C 58.0679,52.7095 57.4013,53.7095 56.5,54.5C 53.2046,52.1855 49.538,50.3522 45.5,49C 43.765,48.3486 42.0983,48.5153 40.5,49.5C 34.2972,66.1094 28.2972,82.776 22.5,99.5C 22.1667,99.5 21.8333,99.5 21.5,99.5C 21.5399,96.0124 22.2066,92.6791 23.5,89.5C 27.9826,75.8585 32.4826,62.1919 37,48.5C 38.1171,46.8757 39.6171,45.8757 41.5,45.5C 47.1846,47.5056 52.8513,49.5056 58.5,51.5 Z"/></g>
<g><path style="opacity:0.999" fill="#53aedb" d="M 58.5,51.5 C 62.0524,52.7911 65.3858,54.4578 68.5,56.5C 54.791,69.8936 45.1243,85.8936 39.5,104.5C 36.1031,105.494 32.7698,105.16 29.5,103.5C 29.5,102.833 29.5,102.167 29.5,101.5C 34.7382,83.6134 43.7382,67.9467 56.5,54.5C 57.4013,53.7095 58.0679,52.7095 58.5,51.5 Z"/></g>
<g><path style="opacity:1" fill="#f9b35d" d="M 68.5,56.5 C 71.4245,56.4598 74.0912,57.2932 76.5,59C 77.3802,60.3561 77.7135,61.8561 77.5,63.5C 72.0688,79.085 66.5688,94.7517 61,110.5C 58.2628,111.61 55.4294,111.777 52.5,111C 48.4902,109.66 44.4902,108.327 40.5,107C 39.7476,106.329 39.4142,105.496 39.5,104.5C 45.1243,85.8936 54.791,69.8936 68.5,56.5 Z"/></g>
<g><path style="opacity:1" fill="#1e75bb" d="M 226.5,50.5 C 235.87,58.2078 243.87,67.2078 250.5,77.5C 241.167,86.1667 232.167,95.1667 223.5,104.5C 221.702,102.888 219.702,101.388 217.5,100C 208.152,99.6506 198.819,99.6506 189.5,100C 186.953,97.946 184.286,96.1126 181.5,94.5C 195.911,79.087 210.911,64.4203 226.5,50.5 Z"/></g>
<g><path style="opacity:1" fill="#f4903f" d="M 165.5,55.5 C 171.544,60.6115 177.711,65.6115 184,70.5C 187.5,78.1567 185.667,83.8233 178.5,87.5C 175.385,85.5609 172.385,83.3943 169.5,81C 167.655,79.872 165.655,79.372 163.5,79.5C 160.972,78.8343 158.306,78.1676 155.5,77.5C 159.377,70.4136 162.71,63.0803 165.5,55.5 Z"/></g>
<g><path style="opacity:1" fill="#7c7d7f" d="M 27.5,110.5 C 19.9873,109.701 17.9873,106.034 21.5,99.5C 21.8333,99.5 22.1667,99.5 22.5,99.5C 22.5,99.8333 22.5,100.167 22.5,100.5C 24.5707,101.945 26.904,102.945 29.5,103.5C 32.7698,105.16 36.1031,105.494 39.5,104.5C 39.4142,105.496 39.7476,106.329 40.5,107C 44.4902,108.327 48.4902,109.66 52.5,111C 55.4294,111.777 58.2628,111.61 61,110.5C 66.5688,94.7517 72.0688,79.085 77.5,63.5C 77.3505,64.552 77.5172,65.552 78,66.5C 78.4292,62.8984 80.2625,60.2317 83.5,58.5C 84.9458,59.1709 85.6125,60.3376 85.5,62C 82.7883,70.6805 80.6216,79.5139 79,88.5C 77.0997,94.8777 74.4331,100.878 71,106.5C 70.0551,110.114 69.3884,113.781 69,117.5C 66.7897,120.29 63.9563,121.123 60.5,120C 49.4992,116.787 38.4992,113.621 27.5,110.5 Z"/></g>
<g><path style="opacity:1" fill="#202021" d="M 154.5,92.5 C 151.037,91.9009 147.704,90.9009 144.5,89.5C 143.167,89.1667 141.833,88.8333 140.5,88.5C 136.437,87.3679 132.437,86.0346 128.5,84.5C 127.711,84.2172 127.044,83.7172 126.5,83C 128.67,81.4138 131.004,80.0804 133.5,79C 144.478,77.4809 151.478,81.9809 154.5,92.5 Z"/></g>
<g><path style="opacity:1" fill="#58a2c8" d="M 142.5,36.5 C 142.167,37.8333 141.833,39.1667 141.5,40.5C 139.954,43.1999 137.621,45.0332 134.5,46C 128.255,46.6235 122.921,49.1235 118.5,53.5C 117.674,54.451 117.508,55.451 118,56.5C 120.592,53.2379 123.759,50.7379 127.5,49C 139.306,45.4207 150.972,45.7541 162.5,50C 166.668,53.3362 170.668,56.8362 174.5,60.5C 180.506,63.0073 184.673,67.3406 187,73.5C 189.248,82.8774 185.748,88.0441 176.5,89C 173.5,86.6667 170.5,84.3333 167.5,82C 162.177,81.5006 156.844,81.334 151.5,81.5C 150.167,81.5 149.5,80.8333 149.5,79.5C 154.167,79.5 158.833,79.5 163.5,79.5C 165.655,79.372 167.655,79.872 169.5,81C 172.385,83.3943 175.385,85.5609 178.5,87.5C 185.667,83.8233 187.5,78.1567 184,70.5C 177.711,65.6115 171.544,60.6115 165.5,55.5C 165.047,54.5416 164.381,53.7083 163.5,53C 152.181,47.963 140.514,47.1297 128.5,50.5C 125.044,52.7833 121.71,55.2833 118.5,58C 117.552,58.4828 116.552,58.6495 115.5,58.5C 115.143,54.336 116.81,51.1693 120.5,49C 126.167,46.6667 131.833,44.3333 137.5,42C 138.833,39.8094 140.5,37.976 142.5,36.5 Z"/></g>
<g><path style="opacity:1" fill="#4b4b4d" d="M 140.5,88.5 C 141.833,88.8333 143.167,89.1667 144.5,89.5C 145.16,91.3437 146.16,93.0104 147.5,94.5C 145.712,105.458 143.045,116.125 139.5,126.5C 135.646,129.021 131.812,131.688 128,134.5C 127.502,137.817 127.335,141.15 127.5,144.5C 127.825,152.019 127.492,159.352 126.5,166.5C 126.666,160.158 126.5,153.825 126,147.5C 122.63,150.535 119.63,153.868 117,157.5C 115.781,162.679 115.281,167.846 115.5,173C 112.653,173.944 110.153,173.444 108,171.5C 106.172,166.209 106.006,160.875 107.5,155.5C 107.796,153.597 108.463,151.93 109.5,150.5C 109.493,153.038 109.159,155.538 108.5,158C 108.493,159.812 109.16,161.312 110.5,162.5C 112.459,161.252 113.959,159.585 115,157.5C 122.237,143.027 129.57,128.36 137,113.5C 137.863,108.173 138.697,102.839 139.5,97.5C 141.384,96.8853 142.384,95.552 142.5,93.5C 142.014,91.6958 141.347,90.0291 140.5,88.5 Z"/></g>
<g><path style="opacity:1" fill="#39393b" d="M 144.5,89.5 C 147.704,90.9009 151.037,91.9009 154.5,92.5C 155.969,100.698 154.802,108.698 151,116.5C 148.212,121.127 144.378,124.461 139.5,126.5C 143.045,116.125 145.712,105.458 147.5,94.5C 146.16,93.0104 145.16,91.3437 144.5,89.5 Z"/></g>
<g><path style="opacity:1" fill="#5a5a5c" d="M 128.5,84.5 C 132.437,86.0346 136.437,87.3679 140.5,88.5C 141.347,90.0291 142.014,91.6958 142.5,93.5C 142.384,95.552 141.384,96.8853 139.5,97.5C 138.697,102.839 137.863,108.173 137,113.5C 129.57,128.36 122.237,143.027 115,157.5C 113.959,159.585 112.459,161.252 110.5,162.5C 109.16,161.312 108.493,159.812 108.5,158C 109.159,155.538 109.493,153.038 109.5,150.5C 112.627,139.785 115.96,129.119 119.5,118.5C 117.272,116.599 114.605,115.599 111.5,115.5C 111.822,121.358 111.489,127.025 110.5,132.5C 110.666,126.491 110.499,120.491 110,114.5C 109.617,113.944 109.117,113.611 108.5,113.5C 102.953,112.448 97.6192,110.781 92.5,108.5C 92.5858,107.504 92.2524,106.671 91.5,106C 89.0988,105.205 86.9321,104.038 85,102.5C 84.3162,101.216 84.4829,100.049 85.5,99C 89.0013,97.5564 92.5013,97.7231 96,99.5C 98.5868,98.3042 101.42,98.3042 104.5,99.5C 102.105,90.7263 105.438,87.2263 114.5,89C 121.119,90.9894 127.786,92.3228 134.5,93C 135.711,91.8869 135.711,90.7202 134.5,89.5C 132.328,87.8281 130.328,86.1614 128.5,84.5 Z"/></g>
<g><path style="opacity:0.997" fill="#479cc5" d="M 169.5,13.5 C 229.428,24.9276 265.261,60.5943 277,120.5C 279.411,137.883 278.244,154.883 273.5,171.5C 268.533,175.132 263.867,179.132 259.5,183.5C 272.766,146.697 269.766,111.363 250.5,77.5C 243.87,67.2078 235.87,58.2078 226.5,50.5C 218.656,43.0735 209.656,37.4069 199.5,33.5C 187.92,27.6434 175.587,23.9767 162.5,22.5C 165.185,19.8103 167.518,16.8103 169.5,13.5 Z"/></g>
<g><path style="opacity:1" fill="#f28939" d="M 206.5,101.5 C 205.282,102.161 203.949,102.828 202.5,103.5C 197.957,113.961 193.123,124.294 188,134.5C 187.187,136.436 186.687,138.436 186.5,140.5C 185.065,138.402 183.898,136.069 183,133.5C 182.196,132.196 181.029,131.529 179.5,131.5C 174.881,134.946 170.381,138.612 166,142.5C 164.482,140.386 164.149,138.053 165,135.5C 166.848,132.989 168.681,130.489 170.5,128C 169.322,125.155 167.155,123.655 164,123.5C 158.568,125.493 153.068,125.826 147.5,124.5C 153.119,116.267 156.786,107.267 158.5,97.5C 163.007,101.257 168.007,104.257 173.5,106.5C 175.085,95.0124 180.085,93.5124 188.5,102C 194.504,102.3 200.504,102.134 206.5,101.5 Z"/></g>
<g><path style="opacity:0.997" fill="#474749" d="M 8.5,77.5 C 7.20388,84.4126 5.87054,92.0793 4.5,100.5C 4.55074,102.1 4.88407,103.6 5.5,105C 4.83333,105.333 4.16667,105.667 3.5,106C 9.83796,106.319 15.5046,108.319 20.5,112C 22.9817,114.653 22.9817,117.153 20.5,119.5C 15.5336,118.373 10.5336,117.373 5.5,116.5C 3.98261,116.489 2.81595,115.823 2,114.5C 1.24316,112.685 0.409824,111.019 -0.5,109.5C -0.5,107.5 -0.5,105.5 -0.5,103.5C 2.09832,94.7054 5.09832,86.0388 8.5,77.5 Z"/></g>
<g><path style="opacity:0.047" fill="#dddddf" d="M 22.5,100.5 C 24.9029,100.448 27.2362,100.781 29.5,101.5C 29.5,102.167 29.5,102.833 29.5,103.5C 26.904,102.945 24.5707,101.945 22.5,100.5 Z"/></g>
<g><path style="opacity:1" fill="#f48233" d="M 206.5,101.5 C 216.478,99.6475 222.645,103.648 225,113.5C 226.51,125.795 226.843,138.128 226,150.5C 221.593,164.96 212.759,168.793 199.5,162C 196.784,158.739 193.951,155.572 191,152.5C 188.636,148.781 187.136,144.781 186.5,140.5C 186.687,138.436 187.187,136.436 188,134.5C 193.123,124.294 197.957,113.961 202.5,103.5C 203.949,102.828 205.282,102.161 206.5,101.5 Z"/></g>
<g><path style="opacity:1" fill="#1968b3" d="M 250.5,77.5 C 269.766,111.363 272.766,146.697 259.5,183.5C 246.5,213.167 225.167,234.5 195.5,247.5C 166.067,259.288 136.734,259.288 107.5,247.5C 109.338,245.193 111.338,242.86 113.5,240.5C 114.325,239.614 115.325,239.281 116.5,239.5C 135.849,241.997 152.849,236.497 167.5,223C 176.248,219.528 184.915,215.862 193.5,212C 197.817,209.685 200.65,206.185 202,201.5C 205.074,186.568 201.241,173.901 190.5,163.5C 191.545,162.122 192.878,161.122 194.5,160.5C 209.587,172.307 220.754,169.307 228,151.5C 228.667,139.833 228.667,128.167 228,116.5C 226.765,112.369 225.265,108.369 223.5,104.5C 232.167,95.1667 241.167,86.1667 250.5,77.5 Z"/></g>
<g><path style="opacity:1" fill="#565658" d="M 18.5,45.5 C 18.2112,53.5336 16.3779,61.2003 13,68.5C 12.6667,68.1667 12.3333,67.8333 12,67.5C 10.0058,78.7884 8.50577,90.1217 7.5,101.5C 8.82207,101.67 9.98873,101.337 11,100.5C 13.2567,94.9247 15.9233,89.5914 19,84.5C 20.0113,83.6634 21.1779,83.33 22.5,83.5C 22.2053,85.7354 22.5386,87.7354 23.5,89.5C 22.2066,92.6791 21.5399,96.0124 21.5,99.5C 17.9873,106.034 19.9873,109.701 27.5,110.5C 34.9118,114.526 42.9118,117.026 51.5,118C 55.1667,119.667 58.8333,121.333 62.5,123C 63.8333,124.667 63.8333,126.333 62.5,128C 57.1674,127.836 51.834,127.336 46.5,126.5C 42.5384,125.624 38.5384,124.958 34.5,124.5C 32.1288,123.009 29.4621,122.009 26.5,121.5C 25.8281,122.949 25.1614,124.282 24.5,125.5C 24.5,124.833 24.5,124.167 24.5,123.5C 24.631,122.761 24.4643,122.094 24,121.5C 22.6976,120.915 21.531,120.249 20.5,119.5C 22.9817,117.153 22.9817,114.653 20.5,112C 15.5046,108.319 9.83796,106.319 3.5,106C 4.16667,105.667 4.83333,105.333 5.5,105C 4.88407,103.6 4.55074,102.1 4.5,100.5C 5.87054,92.0793 7.20388,84.4126 8.5,77.5C 10.9164,66.4878 14.2497,55.8211 18.5,45.5 Z"/></g>
<g><path style="opacity:1" fill="#f6a04c" d="M 88.5,107.5 C 89.8333,107.833 91.1667,108.167 92.5,108.5C 97.6192,110.781 102.953,112.448 108.5,113.5C 108.666,120.508 108.5,127.508 108,134.5C 105.465,140.933 101.965,146.599 97.5,151.5C 96.9527,141.507 96.4527,131.507 96,121.5C 95.0016,119.079 93.1683,117.745 90.5,117.5C 87.8172,118.51 85.1505,119.51 82.5,120.5C 84.1299,115.919 86.1299,111.586 88.5,107.5 Z"/></g>
<g><path style="opacity:1" fill="#1e1e1f" d="M 109.5,150.5 C 108.463,151.93 107.796,153.597 107.5,155.5C 104.34,160.483 103.84,165.816 106,171.5C 107.319,173.487 109.152,174.654 111.5,175C 116.489,175.499 121.489,175.666 126.5,175.5C 127.103,188.4 121.103,193.567 108.5,191C 101.462,189.884 95.295,187.051 90,182.5C 89.5168,176.932 90.5168,171.599 93,166.5C 99.1298,155.239 104.963,143.905 110.5,132.5C 111.489,127.025 111.822,121.358 111.5,115.5C 114.605,115.599 117.272,116.599 119.5,118.5C 115.96,129.119 112.627,139.785 109.5,150.5 Z"/></g>
<g><path style="opacity:0.037" fill="#040404" d="M 5.5,116.5 C 10.5336,117.373 15.5336,118.373 20.5,119.5C 21.531,120.249 22.6976,120.915 24,121.5C 24.4643,122.094 24.631,122.761 24.5,123.5C 19.096,122.315 13.7627,120.815 8.5,119C 7.05773,118.623 6.05773,117.79 5.5,116.5 Z"/></g>
<g><path style="opacity:1" fill="#5193b6" d="M 157.5,94.5 C 162.299,98.0712 167.299,101.405 172.5,104.5C 172.1,97.9065 175.1,94.5731 181.5,94.5C 184.286,96.1126 186.953,97.946 189.5,100C 198.819,99.6506 208.152,99.6506 217.5,100C 219.702,101.388 221.702,102.888 223.5,104.5C 225.265,108.369 226.765,112.369 228,116.5C 228.667,128.167 228.667,139.833 228,151.5C 220.754,169.307 209.587,172.307 194.5,160.5C 192.577,157.397 190.41,154.397 188,151.5C 185.681,145.891 183.514,140.224 181.5,134.5C 180.635,133.417 179.635,133.251 178.5,134C 174.907,138.266 170.741,141.766 166,144.5C 165.127,144.265 164.293,143.931 163.5,143.5C 162.345,140.554 162.179,137.554 163,134.5C 164.833,132.167 166.667,129.833 168.5,127.5C 168.167,127.167 167.833,126.833 167.5,126.5C 159.926,127.426 152.26,127.426 144.5,126.5C 145.29,125.599 146.29,124.932 147.5,124.5C 153.068,125.826 158.568,125.493 164,123.5C 167.155,123.655 169.322,125.155 170.5,128C 168.681,130.489 166.848,132.989 165,135.5C 164.149,138.053 164.482,140.386 166,142.5C 170.381,138.612 174.881,134.946 179.5,131.5C 181.029,131.529 182.196,132.196 183,133.5C 183.898,136.069 185.065,138.402 186.5,140.5C 187.136,144.781 188.636,148.781 191,152.5C 193.951,155.572 196.784,158.739 199.5,162C 212.759,168.793 221.593,164.96 226,150.5C 226.843,138.128 226.51,125.795 225,113.5C 222.645,103.648 216.478,99.6475 206.5,101.5C 200.504,102.134 194.504,102.3 188.5,102C 180.085,93.5124 175.085,95.0124 173.5,106.5C 168.007,104.257 163.007,101.257 158.5,97.5C 157.89,96.609 157.557,95.609 157.5,94.5 Z"/></g>
<g><path style="opacity:1" fill="#438dcb" d="M 94.5,137.5 C 93.6862,135.369 93.1862,133.036 93,130.5C 76.6876,147.979 59.8542,164.979 42.5,181.5C 38.7807,172.983 36.4473,163.983 35.5,154.5C 43.1246,154.878 50.1246,153.044 56.5,149C 59.0263,145.974 61.3596,142.807 63.5,139.5C 71.1879,135.319 77.8546,129.819 83.5,123C 85.9398,121.697 88.4398,120.53 91,119.5C 92.2613,119.759 93.2613,120.426 94,121.5C 94.4994,126.823 94.666,132.156 94.5,137.5 Z"/></g>
<g><path style="opacity:1" fill="#f6ac58" d="M 88.5,107.5 C 86.1299,111.586 84.1299,115.919 82.5,120.5C 77.5767,126.924 71.5767,132.09 64.5,136C 60.9284,139.815 57.5951,143.815 54.5,148C 48.2982,151.474 41.6315,152.974 34.5,152.5C 34.5,143.167 34.5,133.833 34.5,124.5C 38.5384,124.958 42.5384,125.624 46.5,126.5C 53.6892,130.024 61.3559,131.19 69.5,130C 74.6103,122.511 78.2769,114.344 80.5,105.5C 83.4282,105.565 86.0948,106.232 88.5,107.5 Z"/></g>
<g><path style="opacity:1" fill="#1e74ba" d="M 194.5,160.5 C 192.878,161.122 191.545,162.122 190.5,163.5C 178.606,158.27 166.272,154.103 153.5,151C 145.382,146.382 138.716,140.215 133.5,132.5C 137.167,130.5 140.833,128.5 144.5,126.5C 152.26,127.426 159.926,127.426 167.5,126.5C 167.833,126.833 168.167,127.167 168.5,127.5C 166.667,129.833 164.833,132.167 163,134.5C 162.179,137.554 162.345,140.554 163.5,143.5C 164.293,143.931 165.127,144.265 166,144.5C 170.741,141.766 174.907,138.266 178.5,134C 179.635,133.251 180.635,133.417 181.5,134.5C 183.514,140.224 185.681,145.891 188,151.5C 190.41,154.397 192.577,157.397 194.5,160.5 Z"/></g>
<g><path style="opacity:1" fill="#3b85c6" d="M 94.5,137.5 C 94.9703,143.206 95.637,148.873 96.5,154.5C 93.2028,161.422 90.2028,168.422 87.5,175.5C 86.448,175.351 85.448,175.517 84.5,176C 74.5,186 65.1667,195.333 56.5,204C 57.6843,205.145 57.6843,206.312 56.5,207.5C 53.015,203.21 50.015,198.543 47.5,193.5C 45.3017,189.764 43.635,185.764 42.5,181.5C 59.8542,164.979 76.6876,147.979 93,130.5C 93.1862,133.036 93.6862,135.369 94.5,137.5 Z"/></g>
<g><path style="opacity:1" fill="#f58e3c" d="M 132.5,134.5 C 138.616,143.54 146.616,150.207 156.5,154.5C 155.624,154.369 154.957,154.702 154.5,155.5C 141.592,182.644 129.258,209.978 117.5,237.5C 115.402,234.844 112.902,232.511 110,230.5C 108.725,228.283 107.725,225.949 107,223.5C 106.192,213.09 106.359,202.757 107.5,192.5C 112.507,193.881 117.507,193.714 122.5,192C 124.378,190.457 125.878,188.624 127,186.5C 128.447,172.573 128.947,158.573 128.5,144.5C 128.336,141.813 128.503,139.146 129,136.5C 129.816,135.177 130.983,134.511 132.5,134.5 Z"/></g>
<g><path style="opacity:0.998" fill="#4fa7d1" d="M 97.5,151.5 C 97.7373,152.791 97.404,153.791 96.5,154.5C 95.637,148.873 94.9703,143.206 94.5,137.5C 94.666,132.156 94.4994,126.823 94,121.5C 93.2613,120.426 92.2613,119.759 91,119.5C 88.4398,120.53 85.9398,121.697 83.5,123C 77.8546,129.819 71.1879,135.319 63.5,139.5C 61.3596,142.807 59.0263,145.974 56.5,149C 50.1246,153.044 43.1246,154.878 35.5,154.5C 36.4473,163.983 38.7807,172.983 42.5,181.5C 43.635,185.764 45.3017,189.764 47.5,193.5C 44.3532,195.546 42.0198,198.212 40.5,201.5C 27.1325,178.003 21.7992,152.67 24.5,125.5C 25.1614,124.282 25.8281,122.949 26.5,121.5C 29.4621,122.009 32.1288,123.009 34.5,124.5C 34.5,133.833 34.5,143.167 34.5,152.5C 41.6315,152.974 48.2982,151.474 54.5,148C 57.5951,143.815 60.9284,139.815 64.5,136C 71.5767,132.09 77.5767,126.924 82.5,120.5C 85.1505,119.51 87.8172,118.51 90.5,117.5C 93.1683,117.745 95.0016,119.079 96,121.5C 96.4527,131.507 96.9527,141.507 97.5,151.5 Z"/></g>
<g><path style="opacity:1" fill="#f58736" d="M 156.5,154.5 C 163.424,155.922 170.09,157.922 176.5,160.5C 164.597,185.311 152.93,210.311 141.5,235.5C 133.801,239.603 125.801,240.27 117.5,237.5C 129.258,209.978 141.592,182.644 154.5,155.5C 154.957,154.702 155.624,154.369 156.5,154.5 Z"/></g>
<g><path style="opacity:1" fill="#746f6d" d="M 108.5,113.5 C 109.117,113.611 109.617,113.944 110,114.5C 110.499,120.491 110.666,126.491 110.5,132.5C 104.963,143.905 99.1298,155.239 93,166.5C 90.5168,171.599 89.5168,176.932 90,182.5C 95.295,187.051 101.462,189.884 108.5,191C 121.103,193.567 127.103,188.4 126.5,175.5C 126.5,172.5 126.5,169.5 126.5,166.5C 127.492,159.352 127.825,152.019 127.5,144.5C 127.833,144.5 128.167,144.5 128.5,144.5C 128.947,158.573 128.447,172.573 127,186.5C 125.878,188.624 124.378,190.457 122.5,192C 117.507,193.714 112.507,193.881 107.5,192.5C 106.833,192.5 106.167,192.5 105.5,192.5C 100.825,190.991 96.1587,189.158 91.5,187C 88.0337,183.96 86.7004,180.126 87.5,175.5C 90.2028,168.422 93.2028,161.422 96.5,154.5C 97.404,153.791 97.7373,152.791 97.5,151.5C 101.965,146.599 105.465,140.933 108,134.5C 108.5,127.508 108.666,120.508 108.5,113.5 Z"/></g>
<g><path style="opacity:1" fill="#333334" d="M 126.5,166.5 C 126.5,169.5 126.5,172.5 126.5,175.5C 121.489,175.666 116.489,175.499 111.5,175C 109.152,174.654 107.319,173.487 106,171.5C 103.84,165.816 104.34,160.483 107.5,155.5C 106.006,160.875 106.172,166.209 108,171.5C 110.153,173.444 112.653,173.944 115.5,173C 115.281,167.846 115.781,162.679 117,157.5C 119.63,153.868 122.63,150.535 126,147.5C 126.5,153.825 126.666,160.158 126.5,166.5 Z"/></g>
<g><path style="opacity:1" fill="#f48233" d="M 176.5,160.5 C 189.06,163.225 196.893,170.892 200,183.5C 200.667,189.5 200.667,195.5 200,201.5C 198.221,205.612 195.388,208.778 191.5,211C 184.247,214.195 176.914,217.195 169.5,220C 164.277,222.557 159.61,225.891 155.5,230C 150.886,232.153 146.219,233.986 141.5,235.5C 152.93,210.311 164.597,185.311 176.5,160.5 Z"/></g>
<g><path style="opacity:0.998" fill="#4291b7" d="M 273.5,171.5 C 260.518,218.482 230.518,248.482 183.5,261.5C 187.132,256.533 191.132,251.867 195.5,247.5C 225.167,234.5 246.5,213.167 259.5,183.5C 263.867,179.132 268.533,175.132 273.5,171.5 Z"/></g>
<g><path style="opacity:1" fill="#2177bc" d="M 87.5,175.5 C 86.7004,180.126 88.0337,183.96 91.5,187C 96.1587,189.158 100.825,190.991 105.5,192.5C 104.406,202.799 104.24,213.133 105,223.5C 105.759,226.785 107.092,229.785 109,232.5C 111.998,234.333 114.498,236.666 116.5,239.5C 115.325,239.281 114.325,239.614 113.5,240.5C 111.338,242.86 109.338,245.193 107.5,247.5C 86.597,239.207 69.597,225.873 56.5,207.5C 57.6843,206.312 57.6843,205.145 56.5,204C 65.1667,195.333 74.5,186 84.5,176C 85.448,175.517 86.448,175.351 87.5,175.5 Z"/></g>
<g><path style="opacity:1" fill="#508eaf" d="M 133.5,132.5 C 138.716,140.215 145.382,146.382 153.5,151C 166.272,154.103 178.606,158.27 190.5,163.5C 201.241,173.901 205.074,186.568 202,201.5C 200.65,206.185 197.817,209.685 193.5,212C 184.915,215.862 176.248,219.528 167.5,223C 152.849,236.497 135.849,241.997 116.5,239.5C 114.498,236.666 111.998,234.333 109,232.5C 107.092,229.785 105.759,226.785 105,223.5C 104.24,213.133 104.406,202.799 105.5,192.5C 106.167,192.5 106.833,192.5 107.5,192.5C 106.359,202.757 106.192,213.09 107,223.5C 107.725,225.949 108.725,228.283 110,230.5C 112.902,232.511 115.402,234.844 117.5,237.5C 125.801,240.27 133.801,239.603 141.5,235.5C 146.219,233.986 150.886,232.153 155.5,230C 159.61,225.891 164.277,222.557 169.5,220C 176.914,217.195 184.247,214.195 191.5,211C 195.388,208.778 198.221,205.612 200,201.5C 200.667,195.5 200.667,189.5 200,183.5C 196.893,170.892 189.06,163.225 176.5,160.5C 170.09,157.922 163.424,155.922 156.5,154.5C 146.616,150.207 138.616,143.54 132.5,134.5C 132.328,133.508 132.662,132.842 133.5,132.5 Z"/></g>
<g><path style="opacity:0.998" fill="#479cc5" d="M 47.5,193.5 C 50.015,198.543 53.015,203.21 56.5,207.5C 69.597,225.873 86.597,239.207 107.5,247.5C 136.734,259.288 166.067,259.288 195.5,247.5C 191.132,251.867 187.132,256.533 183.5,261.5C 128.667,273.833 83.5002,258.166 48,214.5C 44.9711,210.438 42.4711,206.105 40.5,201.5C 42.0198,198.212 44.3532,195.546 47.5,193.5 Z"/></g>
</svg>
