<?xml version="1.0" encoding="UTF-8"?>
<!DOCTYPE svg PUBLIC "-//W3C//DTD SVG 1.1//EN" "http://www.w3.org/Graphics/SVG/1.1/DTD/svg11.dtd">
<svg xmlns="http://www.w3.org/2000/svg" version="1.1" width="267px" height="102px" style="shape-rendering:geometricPrecision; text-rendering:geometricPrecision; image-rendering:optimizeQuality; fill-rule:evenodd; clip-rule:evenodd" xmlns:xlink="http://www.w3.org/1999/xlink">
<g><path style="opacity:1" fill="#ffbc15" d="M 43.5,7.5 C 43.5,19.5 43.5,31.5 43.5,43.5C 38.5293,38.8908 34.5293,33.5575 31.5,27.5C 35.0002,20.4938 39.0002,13.8272 43.5,7.5 Z"/></g>
<g><path style="opacity:1" fill="#9f1f3b" d="M 54.5,28.5 C 50.7786,33.5624 47.4453,38.8957 44.5,44.5C 44.1667,44.5 43.8333,44.5 43.5,44.5C 43.5,44.1667 43.5,43.8333 43.5,43.5C 43.5,31.5 43.5,19.5 43.5,7.5C 47.7086,13.5566 51.3753,20.5566 54.5,28.5 Z"/></g>
<g><path style="opacity:1" fill="#e84a68" d="M 54.5,28.5 C 63.3494,29.5031 72.0161,31.3365 80.5,34C 69.3333,37.5 58.1667,41 47,44.5C 45.9701,44.8361 45.4701,45.5028 45.5,46.5C 44.6618,46.1583 44.3284,45.4916 44.5,44.5C 47.4453,38.8957 50.7786,33.5624 54.5,28.5 Z"/></g>
<g><path style="opacity:1" fill="#ffe154" d="M 31.5,27.5 C 34.5293,33.5575 38.5293,38.8908 43.5,43.5C 43.5,43.8333 43.5,44.1667 43.5,44.5C 43.5,44.8333 43.5,45.1667 43.5,45.5C 43.1667,45.5 42.8333,45.5 42.5,45.5C 31.5034,40.9431 20.17,36.9431 8.5,33.5C 7.58362,33.5427 6.91695,33.8761 6.5,34.5C 5.22641,33.8106 5.22641,32.9772 6.5,32C 14.9522,30.9132 23.2855,29.4132 31.5,27.5 Z"/></g>
<g><path style="opacity:1" fill="#ffbc15" d="M 42.5,45.5 C 35.3878,47.0928 28.3878,49.0928 21.5,51.5C 16.7352,45.6456 11.7352,39.9789 6.5,34.5C 6.91695,33.8761 7.58362,33.5427 8.5,33.5C 20.17,36.9431 31.5034,40.9431 42.5,45.5 Z"/></g>
<g><path style="opacity:1" fill="#4f4f4f" d="M 239.5,34.5 C 242.687,33.1944 246.02,33.1944 249.5,34.5C 250.098,35.7946 250.598,37.1279 251,38.5C 251.707,36.9194 252.54,35.4194 253.5,34C 254.5,33.3333 255.5,33.3333 256.5,34C 255.718,36.7405 255.218,39.5738 255,42.5C 254.085,41.6721 253.419,40.6721 253,39.5C 251.143,43.3795 249.81,43.0462 249,38.5C 248.781,39.938 248.281,41.2713 247.5,42.5C 246.237,31.9645 244.737,31.9645 243,42.5C 242.13,41.8921 241.63,41.0588 241.5,40C 242.233,38.2341 242.567,36.4008 242.5,34.5C 241.5,34.5 240.5,34.5 239.5,34.5 Z"/></g>
<g><path style="opacity:1" fill="#252525" d="M 76.5,38.5 C 78.7463,39.2096 81.0796,39.7096 83.5,40C 84.5762,41.7261 84.7429,43.5594 84,45.5C 79.1335,42.2627 74.9669,42.9294 71.5,47.5C 75.4846,51.9851 79.6513,56.3184 84,60.5C 86.2833,68.8846 82.95,73.2179 74,73.5C 71.1443,73.1289 68.3109,72.6289 65.5,72C 64.5939,70.3005 64.2606,68.4672 64.5,66.5C 67.4877,67.1611 70.4877,67.8278 73.5,68.5C 76.5177,68.6598 78.5177,67.3265 79.5,64.5C 75.5706,60.068 71.4039,55.7347 67,51.5C 64.7788,46.7464 65.9454,42.9131 70.5,40C 72.7078,39.8091 74.7078,39.3091 76.5,38.5 Z"/></g>
<g><path style="opacity:1" fill="#1d1d1d" d="M 147.5,40.5 C 149.167,40.5 150.833,40.5 152.5,40.5C 152.5,42.8333 152.5,45.1667 152.5,47.5C 152.084,53.9522 152.584,60.2855 154,66.5C 158.918,69.3843 163.585,69.051 168,65.5C 169.524,57.242 170.357,48.9087 170.5,40.5C 172.167,40.5 173.833,40.5 175.5,40.5C 175.5,42.8333 175.5,45.1667 175.5,47.5C 176.055,54.7038 175.222,61.7038 173,68.5C 166.105,74.0485 158.605,74.8819 150.5,71C 148.951,69.786 147.785,68.286 147,66.5C 146.52,57.8231 146.687,49.1564 147.5,40.5 Z"/></g>
<g><path style="opacity:1" fill="#8c8c8c" d="M 147.5,40.5 C 149.265,39.5386 151.265,39.2053 153.5,39.5C 153.806,42.3854 153.473,45.0521 152.5,47.5C 152.5,45.1667 152.5,42.8333 152.5,40.5C 150.833,40.5 149.167,40.5 147.5,40.5 Z"/></g>
<g><path style="opacity:1" fill="#8f8f8f" d="M 170.5,40.5 C 172.265,39.5386 174.265,39.2053 176.5,39.5C 176.806,42.3854 176.473,45.0521 175.5,47.5C 175.5,45.1667 175.5,42.8333 175.5,40.5C 173.833,40.5 172.167,40.5 170.5,40.5 Z"/></g>
<g><path style="opacity:1" fill="#1e1e1e" d="M 208.5,40.5 C 210.833,40.5 213.167,40.5 215.5,40.5C 215.5,41.5 215.5,42.5 215.5,43.5C 215.5,53.1667 215.5,62.8333 215.5,72.5C 213.5,72.5 211.5,72.5 209.5,72.5C 210.48,64.8561 210.647,57.1894 210,49.5C 207,56.8333 204,64.1667 201,71.5C 198.358,73.0586 196.025,72.7253 194,70.5C 191.667,63.5 189.333,56.5 187,49.5C 186.015,57.1377 185.515,64.8044 185.5,72.5C 183.5,72.5 181.5,72.5 179.5,72.5C 180.399,61.8087 181.399,51.142 182.5,40.5C 185.034,39.2234 187.534,39.2234 190,40.5C 192.667,48.5 195.333,56.5 198,64.5C 201.276,56.2931 204.776,48.2931 208.5,40.5 Z"/></g>
<g><path style="opacity:1" fill="#a2a2a2" d="M 208.5,40.5 C 210.948,39.5269 213.615,39.1936 216.5,39.5C 216.768,41.099 216.434,42.4324 215.5,43.5C 215.5,42.5 215.5,41.5 215.5,40.5C 213.167,40.5 210.833,40.5 208.5,40.5 Z"/></g>
<g><path style="opacity:1" fill="#1d1d1d" d="M 235.5,68.5 C 237.5,68.5 239.5,68.5 241.5,68.5C 241.5,69.5 241.5,70.5 241.5,71.5C 234.833,71.5 228.167,71.5 221.5,71.5C 221.5,69.8333 221.5,68.1667 221.5,66.5C 221.252,57.4596 221.585,48.4596 222.5,39.5C 224.604,39.2011 226.604,39.5344 228.5,40.5C 227.501,49.4723 227.001,58.4723 227,67.5C 229.719,68.4438 232.552,68.7771 235.5,68.5 Z"/></g>
<g><path style="opacity:1" fill="#202020" d="M 92.5,43.5 C 93.5,43.5 94.5,43.5 95.5,43.5C 95.5,45.1667 95.5,46.8333 95.5,48.5C 97.5,48.5 99.5,48.5 101.5,48.5C 101.5,49.5 101.5,50.5 101.5,51.5C 99.2646,51.2053 97.2646,51.5386 95.5,52.5C 95.5,57.8333 95.5,63.1667 95.5,68.5C 97.6208,68.6747 99.6208,68.3414 101.5,67.5C 101.562,72.984 98.8952,74.8174 93.5,73C 92.0692,72.5348 90.9025,71.7014 90,70.5C 89.3594,64.4717 89.5261,58.4717 90.5,52.5C 89.5,52.5 88.5,52.5 87.5,52.5C 87.5,50.8333 87.5,49.1667 87.5,47.5C 88.5,47.5 89.5,47.5 90.5,47.5C 90.1568,45.5168 90.8235,44.1834 92.5,43.5 Z"/></g>
<g><path style="opacity:1" fill="#381172" d="M 43.5,44.5 C 43.8333,44.5 44.1667,44.5 44.5,44.5C 44.3284,45.4916 44.6618,46.1583 45.5,46.5C 52.1565,56.4714 58.8231,66.4714 65.5,76.5C 65.1667,76.8333 64.8333,77.1667 64.5,77.5C 57.1401,73.8201 49.8068,70.1534 42.5,66.5C 42.7731,59.4964 43.1064,52.4964 43.5,45.5C 43.5,45.1667 43.5,44.8333 43.5,44.5 Z"/></g>
<g><path style="opacity:1" fill="#fde059" d="M 42.5,45.5 C 35.0771,56.0116 27.4105,66.3449 19.5,76.5C 19.5654,76.9382 19.3988,77.2716 19,77.5C 19.6625,68.8575 20.4958,60.1908 21.5,51.5C 28.3878,49.0928 35.3878,47.0928 42.5,45.5 Z"/></g>
<g><path style="opacity:1" fill="#945fe4" d="M 42.5,45.5 C 42.8333,45.5 43.1667,45.5 43.5,45.5C 43.1064,52.4964 42.7731,59.4964 42.5,66.5C 34.9546,70.1059 27.2879,73.4392 19.5,76.5C 27.4105,66.3449 35.0771,56.0116 42.5,45.5 Z"/></g>
<g><path style="opacity:1" fill="#272727" d="M 101.5,67.5 C 101.642,64.383 102.976,61.883 105.5,60C 110.21,58.5388 114.71,56.7054 119,54.5C 119.617,53.5509 119.451,52.7175 118.5,52C 114.134,51.1145 109.967,51.6145 106,53.5C 105.202,51.7412 105.369,50.0745 106.5,48.5C 112.288,45.9202 117.955,46.0869 123.5,49C 124.126,49.7504 124.626,50.5838 125,51.5C 124.836,58.4764 124.669,65.4764 124.5,72.5C 122.5,72.5 120.5,72.5 118.5,72.5C 118.505,68.4659 118.838,64.4659 119.5,60.5C 114.552,60.5497 110.552,62.3831 107.5,66C 107.645,66.772 107.978,67.4387 108.5,68C 111.482,68.498 114.482,68.6646 117.5,68.5C 117.065,72.1582 114.899,73.8248 111,73.5C 106.464,73.333 103.297,71.333 101.5,67.5 Z"/></g>
<g><path style="opacity:1" fill="#aeaeae" d="M 129.5,48.5 C 131.726,47.2437 134.059,47.2437 136.5,48.5C 134.412,48.8652 132.079,48.8652 129.5,48.5 Z"/></g>
<g><path style="opacity:1" fill="#0c0c0c" d="M 143.5,50.5 C 141.833,51.1667 140.167,51.8333 138.5,52.5C 135.669,55.0878 134.335,58.4212 134.5,62.5C 133.523,65.2869 133.19,68.2869 133.5,71.5C 132.167,71.5 130.833,71.5 129.5,71.5C 129.5,67.5 129.5,63.5 129.5,59.5C 129.5,55.8333 129.5,52.1667 129.5,48.5C 132.079,48.8652 134.412,48.8652 136.5,48.5C 137.878,47.7656 139.378,47.0989 141,46.5C 142.706,47.3079 143.539,48.6412 143.5,50.5 Z"/></g>
<g><path style="opacity:1" fill="#9e9e9e" d="M 92.5,43.5 C 93.5676,42.5655 94.901,42.2322 96.5,42.5C 96.5,44.1667 96.5,45.8333 96.5,47.5C 98.5,47.5 100.5,47.5 102.5,47.5C 102.5,49.1667 102.5,50.8333 102.5,52.5C 100.167,52.5 97.8333,52.5 95.5,52.5C 97.2646,51.5386 99.2646,51.2053 101.5,51.5C 101.5,50.5 101.5,49.5 101.5,48.5C 99.5,48.5 97.5,48.5 95.5,48.5C 95.5,46.8333 95.5,45.1667 95.5,43.5C 94.5,43.5 93.5,43.5 92.5,43.5 Z"/></g>
<g><path style="opacity:1" fill="#b0b0b0" d="M 143.5,50.5 C 144.043,50.56 144.376,50.8933 144.5,51.5C 142.604,52.4656 140.604,52.7989 138.5,52.5C 140.167,51.8333 141.833,51.1667 143.5,50.5 Z"/></g>
<g><path style="opacity:1" fill="#626262" d="M 129.5,59.5 C 129.5,63.5 129.5,67.5 129.5,71.5C 130.833,71.5 132.167,71.5 133.5,71.5C 133.19,68.2869 133.523,65.2869 134.5,62.5C 134.5,65.8333 134.5,69.1667 134.5,72.5C 132.5,72.5 130.5,72.5 128.5,72.5C 128.182,67.9677 128.515,63.6344 129.5,59.5 Z"/></g>
<g><path style="opacity:1" fill="#676767" d="M 221.5,66.5 C 221.5,68.1667 221.5,69.8333 221.5,71.5C 228.167,71.5 234.833,71.5 241.5,71.5C 241.5,70.5 241.5,69.5 241.5,68.5C 239.5,68.5 237.5,68.5 235.5,68.5C 237.607,67.5318 239.941,67.1984 242.5,67.5C 242.5,69.1667 242.5,70.8333 242.5,72.5C 235.167,72.5 227.833,72.5 220.5,72.5C 220.205,70.2646 220.539,68.2646 221.5,66.5 Z"/></g>
<g><path style="opacity:1" fill="#2e066d" d="M 21.5,82.5 C 24.0593,82.1984 26.3926,82.5318 28.5,83.5C 27.5,83.5 26.5,83.5 25.5,83.5C 25.5,84.5 25.5,85.5 25.5,86.5C 25.5,88.1667 25.5,89.8333 25.5,91.5C 24.5269,89.0521 24.1936,86.3854 24.5,83.5C 23.209,83.7373 22.209,83.404 21.5,82.5 Z"/></g>
<g><path style="opacity:1" fill="#634290" d="M 145.5,88.5 C 145.539,87.2438 145.039,86.2438 144,85.5C 143.505,87.4727 143.338,89.4727 143.5,91.5C 143.44,92.0431 143.107,92.3764 142.5,92.5C 142.167,91.6667 141.833,90.8333 141.5,90C 142.159,87.5379 142.493,85.0379 142.5,82.5C 143.675,82.281 144.675,82.6143 145.5,83.5C 147.438,88.6277 148.771,88.2943 149.5,82.5C 150.5,82.5 151.5,82.5 152.5,82.5C 152.82,85.8984 152.487,89.2317 151.5,92.5C 150.719,91.2713 150.219,89.938 150,88.5C 148.135,93.7937 146.635,93.7937 145.5,88.5 Z"/></g>
<g><path style="opacity:1" fill="#6c4e97" d="M 203.5,82.5 C 205.833,82.5 208.167,82.5 210.5,82.5C 211.167,85.8332 209.833,87.8332 206.5,88.5C 205.833,89.8333 205.167,91.1667 204.5,92.5C 203.513,89.2317 203.18,85.8984 203.5,82.5 Z M 205.5,84.5 C 209.243,84.4592 209.41,85.1259 206,86.5C 205.536,85.9056 205.369,85.2389 205.5,84.5 Z"/></g>
<g><path style="opacity:1" fill="#b6a8cc" d="M 21.5,82.5 C 22.209,83.404 23.209,83.7373 24.5,83.5C 24.1936,86.3854 24.5269,89.0521 25.5,91.5C 25.44,92.0431 25.1067,92.3764 24.5,92.5C 23.52,89.9135 23.1866,87.2469 23.5,84.5C 22.325,84.719 21.325,84.3857 20.5,83.5C 20.6236,82.8933 20.9569,82.56 21.5,82.5 Z"/></g>
<g><path style="opacity:1" fill="#c6bcd8" d="M 28.5,83.5 C 27.5,84.5 26.5,85.5 25.5,86.5C 25.5,85.5 25.5,84.5 25.5,83.5C 26.5,83.5 27.5,83.5 28.5,83.5 Z"/></g>
<g><path style="opacity:1" fill="#684a94" d="M 211.5,82.5 C 212.777,83.6936 213.444,85.3603 213.5,87.5C 213.167,89.1667 212.833,90.8333 212.5,92.5C 211.513,89.2317 211.18,85.8984 211.5,82.5 Z"/></g>
<g><path style="opacity:1" fill="#6d4d97" d="M 51.5,81.5 C 58.0303,81.2435 60.197,84.2435 58,90.5C 51.826,94.2633 48.4927,92.5966 48,85.5C 48.6897,83.6498 49.8564,82.3164 51.5,81.5 Z M 52.5,83.5 C 56.1838,84.372 57.1838,86.5386 55.5,90C 52.4333,91.1642 50.7666,90.1642 50.5,87C 50.8618,85.5657 51.5285,84.3991 52.5,83.5 Z"/></g>
<g><path style="opacity:1" fill="#765a9e" d="M 120.5,90.5 C 120.5,89.1667 120.5,87.8333 120.5,86.5C 124.165,83.3281 126.498,83.9947 127.5,88.5C 121.142,88.5235 121.142,89.5235 127.5,91.5C 124.9,92.8456 122.567,92.5123 120.5,90.5 Z"/></g>
<g><path style="opacity:1" fill="#c2b6d5" d="M 215.5,85.5 C 216.978,85.238 218.311,85.5713 219.5,86.5C 219.376,87.1067 219.043,87.44 218.5,87.5C 217.5,86.8333 216.5,86.1667 215.5,85.5 Z"/></g>
<g><path style="opacity:1" fill="#765a9e" d="M 240.5,84.5 C 245.833,84.5 251.167,84.5 256.5,84.5C 256.813,87.2469 256.48,89.9135 255.5,92.5C 253.886,84.6019 252.886,84.6019 252.5,92.5C 251.325,92.719 250.325,92.3857 249.5,91.5C 250.681,89.802 250.681,88.1353 249.5,86.5C 248.012,88.1493 247.012,90.1493 246.5,92.5C 245.534,90.604 245.201,88.604 245.5,86.5C 244.5,86.5 243.5,86.5 242.5,86.5C 242.799,88.604 242.466,90.604 241.5,92.5C 240.52,89.9135 240.187,87.2469 240.5,84.5 Z"/></g>
<g><path style="opacity:1" fill="#c3b7d5" d="M 168.5,85.5 C 168.205,87.7354 168.539,89.7354 169.5,91.5C 169.44,92.0431 169.107,92.3764 168.5,92.5C 167.203,90.0268 167.203,87.6934 168.5,85.5 Z"/></g>
<g><path style="opacity:1" fill="#694a95" d="M 189.5,89.5 C 194.003,79.8221 197.337,80.3221 199.5,91C 197.265,92.6453 196.265,91.8119 196.5,88.5C 195.022,88.238 193.689,88.5713 192.5,89.5C 191.919,91.7236 190.586,92.557 188.5,92C 189.252,91.3292 189.586,90.4959 189.5,89.5 Z"/></g>
<g><path style="opacity:1" fill="#c3b8d6" d="M 29.5,86.5 C 29.2155,88.4147 29.5489,90.0813 30.5,91.5C 30.44,92.0431 30.1067,92.3764 29.5,92.5C 28.2072,90.3635 28.2072,88.3635 29.5,86.5 Z"/></g>
<g><path style="opacity:1" fill="#795da0" d="M 30.5,91.5 C 29.5489,90.0813 29.2155,88.4147 29.5,86.5C 29.238,85.0222 29.5713,83.6888 30.5,82.5C 31.8928,83.8631 33.5595,84.6964 35.5,85C 36.5,88.3333 37.5,88.3333 38.5,85C 42.2204,83.608 44.2204,84.7747 44.5,88.5C 38.627,88.5981 38.2936,89.5981 43.5,91.5C 40.5462,93.1475 38.3795,92.4808 37,89.5C 36.5172,90.448 36.3505,91.448 36.5,92.5C 35.325,92.719 34.325,92.3857 33.5,91.5C 34.3094,89.9291 34.6427,88.2624 34.5,86.5C 33.5,86.5 32.5,86.5 31.5,86.5C 31.634,88.2915 31.3007,89.9582 30.5,91.5 Z"/></g>
<g><path style="opacity:1" fill="#71539a" d="M 59.5,84.5 C 61.5273,84.3379 63.5273,84.5045 65.5,85C 66.5,88.3333 67.5,88.3333 68.5,85C 69.3333,84.8333 70.1667,84.6667 71,84.5C 74.3574,84.7137 77.8574,84.8804 81.5,85C 82.7766,87.4659 82.7766,89.9659 81.5,92.5C 80.5344,90.604 80.2011,88.604 80.5,86.5C 79.325,86.281 78.325,86.6143 77.5,87.5C 76.9851,89.2251 76.3184,90.8917 75.5,92.5C 74.5713,91.3112 74.238,89.9778 74.5,88.5C 68.627,88.5981 68.2936,89.5981 73.5,91.5C 70.5462,93.1475 68.3795,92.4808 67,89.5C 66.0718,92.0352 64.2385,93.0352 61.5,92.5C 61.719,93.675 61.3857,94.675 60.5,95.5C 59.5108,91.8927 59.1774,88.226 59.5,84.5 Z M 61.5,86.5 C 62.5,86.5 63.5,86.5 64.5,86.5C 64.5,87.8333 64.5,89.1667 64.5,90.5C 63.5,90.5 62.5,90.5 61.5,90.5C 61.5,89.1667 61.5,87.8333 61.5,86.5 Z"/></g>
<g><path style="opacity:1" fill="#73559b" d="M 88.5,81.5 C 90.1033,81.3118 91.4366,81.8118 92.5,83C 87.4381,84.0488 87.2715,85.5488 92,87.5C 93.8637,84.7928 96.3637,83.9595 99.5,85C 100.591,87.0639 100.758,89.2305 100,91.5C 95.4658,90.4325 90.9658,90.4325 86.5,91.5C 87.7287,90.7189 89.062,90.2189 90.5,90C 86.3778,87.6978 85.7111,84.8645 88.5,81.5 Z M 95.5,86.5 C 96.5,86.5 97.5,86.5 98.5,86.5C 98.5,87.8333 98.5,89.1667 98.5,90.5C 97.5,90.5 96.5,90.5 95.5,90.5C 95.5,89.1667 95.5,87.8333 95.5,86.5 Z"/></g>
<g><path style="opacity:1" fill="#7a5fa1" d="M 120.5,86.5 C 119.167,86.5 117.833,86.5 116.5,86.5C 116.5,87.8333 116.5,89.1667 116.5,90.5C 117.833,90.5 119.167,90.5 120.5,90.5C 119.341,92.3769 117.674,92.8769 115.5,92C 113.935,90.1292 113.269,88.2959 113.5,86.5C 112.012,88.1493 111.012,90.1493 110.5,92.5C 109.52,89.9135 109.187,87.2469 109.5,84.5C 112.48,85.025 115.313,85.025 118,84.5C 119.376,84.6842 120.209,85.3509 120.5,86.5 Z"/></g>
<g><path style="opacity:1" fill="#bdb0d1" d="M 145.5,88.5 C 144.833,89.5 144.167,90.5 143.5,91.5C 143.338,89.4727 143.505,87.4727 144,85.5C 145.039,86.2438 145.539,87.2438 145.5,88.5 Z"/></g>
<g><path style="opacity:1" fill="#775a9f" d="M 221.5,85.5 C 222.732,82.2195 224.399,81.8862 226.5,84.5C 227.957,81.3981 229.957,80.8981 232.5,83C 228.81,83.4244 228.643,84.2577 232,85.5C 239.349,83.1777 241.182,85.3444 237.5,92C 233.349,92.698 231.016,90.8646 230.5,86.5C 228.774,94.2751 227.608,93.9418 227,85.5C 223.956,87.2567 223.789,89.2567 226.5,91.5C 225.349,92.731 224.183,92.731 223,91.5C 222.809,89.2922 222.309,87.2922 221.5,85.5 Z M 234.5,86.5 C 235.5,86.5 236.5,86.5 237.5,86.5C 237.426,90.5412 236.093,91.2079 233.5,88.5C 233.863,87.8165 234.196,87.1499 234.5,86.5 Z"/></g>
<g><path style="opacity:1" fill="#674994" d="M 101.5,84.5 C 103.036,86.0251 104.036,88.0251 104.5,90.5C 105.988,88.8507 106.988,86.8507 107.5,84.5C 108.48,87.0865 108.813,89.7531 108.5,92.5C 102.095,93.5938 99.7618,90.9271 101.5,84.5 Z"/></g>
<g><path style="opacity:1" fill="#775a9e" d="M 132.5,82.5 C 134.369,84.6353 135.036,87.3019 134.5,90.5C 135.822,90.67 136.989,90.3366 138,89.5C 138.151,86.8807 138.985,84.5473 140.5,82.5C 141.296,85.7168 140.963,88.8835 139.5,92C 131.785,93.0993 129.452,89.9326 132.5,82.5 Z"/></g>
<g><path style="opacity:1" fill="#8065a5" d="M 164.5,81.5 C 165.586,81.62 166.253,82.2867 166.5,83.5C 165.92,86.9357 164.586,89.9357 162.5,92.5C 162.167,92.3333 161.833,92.1667 161.5,92C 162.801,88.5965 163.801,85.0965 164.5,81.5 Z"/></g>
<g><path style="opacity:1" fill="#6a4c96" d="M 154.5,82.5 C 156.369,84.6353 157.036,87.3019 156.5,90.5C 157.978,90.238 159.311,90.5713 160.5,91.5C 158.167,92.8333 155.833,92.8333 153.5,91.5C 154.407,88.5788 154.74,85.5788 154.5,82.5 Z"/></g>
<g><path style="opacity:1" fill="#634290" d="M 169.5,91.5 C 168.539,89.7354 168.205,87.7354 168.5,85.5C 168.5,84.5 168.5,83.5 168.5,82.5C 169.675,82.281 170.675,82.6143 171.5,83.5C 172.833,88.8333 174.167,88.8333 175.5,83.5C 176.325,82.6143 177.325,82.281 178.5,82.5C 178.82,85.8984 178.487,89.2317 177.5,92.5C 176.702,90.9223 176.202,89.2556 176,87.5C 174.769,93.4849 173.102,93.8182 171,88.5C 169.961,89.2438 169.461,90.2438 169.5,91.5 Z"/></g>
<g><path style="opacity:1" fill="#5d3c8c" d="M 189.5,89.5 C 188.5,90.1667 187.5,90.8333 186.5,91.5C 183.918,91.9746 181.918,91.3079 180.5,89.5C 180.5,87.1667 180.5,84.8333 180.5,82.5C 183.247,82.1866 185.914,82.52 188.5,83.5C 189.348,85.4086 189.682,87.4086 189.5,89.5 Z M 182.5,84.5 C 187.587,84.2845 188.587,86.1178 185.5,90C 184.552,90.4828 183.552,90.6495 182.5,90.5C 182.5,88.5 182.5,86.5 182.5,84.5 Z"/></g>
<g><path style="opacity:1" fill="#523085" d="M 215.5,85.5 C 217.167,84.1667 218.833,84.1667 220.5,85.5C 220.851,88.0412 220.518,89.7079 219.5,90.5C 219.043,88.4433 218.043,88.4433 216.5,90.5C 216.158,91.3382 215.492,91.6716 214.5,91.5C 214.167,88.5 215.5,87.1667 218.5,87.5C 219.043,87.44 219.376,87.1067 219.5,86.5C 218.311,85.5713 216.978,85.238 215.5,85.5 Z M 219.5,90.5 C 218.5,90.5 217.5,90.5 216.5,90.5C 218.043,88.4433 219.043,88.4433 219.5,90.5 Z"/></g>
<g><path style="opacity:1" fill="#af9fc7" d="M 180.5,89.5 C 181.918,91.3079 183.918,91.9746 186.5,91.5C 184.393,92.4682 182.059,92.8016 179.5,92.5C 179.263,91.209 179.596,90.209 180.5,89.5 Z"/></g>
<g><path style="opacity:1" fill="#a896c2" d="M 220.5,85.5 C 220.833,85.5 221.167,85.5 221.5,85.5C 221.5,87.8333 221.5,90.1667 221.5,92.5C 218.941,92.8016 216.607,92.4682 214.5,91.5C 215.492,91.6716 216.158,91.3382 216.5,90.5C 217.5,90.5 218.5,90.5 219.5,90.5C 220.518,89.7079 220.851,88.0412 220.5,85.5 Z"/></g>
</svg>
