<?xml version="1.0" encoding="UTF-8"?>
<!DOCTYPE svg PUBLIC "-//W3C//DTD SVG 1.1//EN" "http://www.w3.org/Graphics/SVG/1.1/DTD/svg11.dtd">
<svg xmlns="http://www.w3.org/2000/svg" version="1.1" width="664px" height="280px" style="shape-rendering:geometricPrecision; text-rendering:geometricPrecision; image-rendering:optimizeQuality; fill-rule:evenodd; clip-rule:evenodd" xmlns:xlink="http://www.w3.org/1999/xlink">
<g><path style="opacity:0.805" fill="#a28bb4" d="M 582.5,19.5 C 584.467,19.2606 586.301,19.5939 588,20.5C 588.793,24.423 588.626,28.2564 587.5,32C 585.251,32.8632 583.418,32.3632 582,30.5C 581.322,26.7789 581.489,23.1122 582.5,19.5 Z"/></g>
<g><path style="opacity:0.897" fill="#8f67a2" d="M 638.5,67.5 C 646.057,80.1439 648.557,93.8106 646,108.5C 640.63,136.203 624.13,153.037 596.5,159C 582.384,162.297 569.051,160.464 556.5,153.5C 528.318,137.452 517.818,113.452 525,81.5C 536.42,50.7666 558.586,35.9332 591.5,37C 612.393,39.4391 628.06,49.6058 638.5,67.5 Z M 603.5,46.5 C 594.204,44.8659 585.204,45.5326 576.5,48.5C 576.167,48.5 575.833,48.5 575.5,48.5C 569.004,50.0818 563.004,52.7485 557.5,56.5C 554.762,56.8511 552.096,57.5178 549.5,58.5C 548.212,60.2985 548.212,61.9652 549.5,63.5C 542.158,71.1835 537.158,80.1835 534.5,90.5C 533.504,90.4142 532.671,90.7476 532,91.5C 531.195,94.6965 531.362,97.6965 532.5,100.5C 532.336,107.202 532.669,113.869 533.5,120.5C 523.618,91.9763 530.951,68.8097 555.5,51C 571.001,42.2236 587.001,40.7236 603.5,46.5 Z M 589.5,78.5 C 590.708,79.2341 592.041,79.5674 593.5,79.5C 594.514,80.6737 595.847,81.3404 597.5,81.5C 607.093,89.4338 609.093,99.1005 603.5,110.5C 601.5,111.833 599.833,113.5 598.5,115.5C 592.375,118.578 586.042,119.578 579.5,118.5C 578.486,117.326 577.153,116.66 575.5,116.5C 574.71,115.599 573.71,114.932 572.5,114.5C 571.833,113.167 570.833,112.167 569.5,111.5C 569.008,109.181 568.008,107.181 566.5,105.5C 565.617,100.897 565.283,96.2303 565.5,91.5C 567.008,89.8185 568.008,87.8185 568.5,85.5C 570.167,84.1667 571.833,82.8333 573.5,81.5C 578.448,78.8315 583.781,77.8315 589.5,78.5 Z"/></g>
<g><path style="opacity:0.832" fill="#a28bb4" d="M 635.5,38.5 C 638.352,38.3524 640.019,39.6857 640.5,42.5C 638.537,45.9616 636.037,48.9616 633,51.5C 630.952,50.9021 629.785,49.5688 629.5,47.5C 631.248,44.3385 633.248,41.3385 635.5,38.5 Z"/></g>
<g><path style="opacity:0.788" fill="#a28cb4" d="M 530.5,39.5 C 532.199,39.3398 533.866,39.5065 535.5,40C 536.551,41.3848 537.884,42.3848 539.5,43C 543.947,47.7692 542.947,50.1025 536.5,50C 534.612,47.8104 532.445,45.9771 530,44.5C 529.36,42.735 529.527,41.0683 530.5,39.5 Z"/></g>
<g><path style="opacity:0.999" fill="#e3ae93" d="M 603.5,46.5 C 603.833,46.5 604.167,46.5 604.5,46.5C 617.266,50.0737 626.932,57.7404 633.5,69.5C 632.833,69.8333 632.167,70.1667 631.5,70.5C 626.78,67.6579 622.447,67.9912 618.5,71.5C 617.147,74.2451 617.314,76.9117 619,79.5C 621.13,82.23 623.797,84.23 627,85.5C 629.434,91.0694 627.601,92.9028 621.5,91C 617.86,88.6189 613.86,87.1189 609.5,86.5C 601.831,74.3224 590.831,69.8224 576.5,73C 575.199,74.6155 575.199,76.1155 576.5,77.5C 575.895,79.4812 574.895,79.8146 573.5,78.5C 573.189,77.5222 572.522,76.8555 571.5,76.5C 567.525,77.9492 565.359,80.6159 565,84.5C 565.671,85.2524 566.504,85.5858 567.5,85.5C 567.068,86.7095 566.401,87.7095 565.5,88.5C 563.99,87.2721 562.49,87.2721 561,88.5C 557.325,100.8 560.158,111.3 569.5,120C 571.217,121.559 573.217,122.392 575.5,122.5C 574.739,127.639 576.239,131.973 580,135.5C 580.833,138.667 579.667,139.833 576.5,139C 574.13,135.558 571.13,132.891 567.5,131C 560.672,128.614 557.006,130.947 556.5,138C 557.361,141.551 558.361,145.051 559.5,148.5C 546.743,143.003 538.077,133.67 533.5,120.5C 532.669,113.869 532.336,107.202 532.5,100.5C 534.144,100.714 535.644,100.38 537,99.5C 537.497,96.854 537.664,94.1873 537.5,91.5C 536.209,91.7373 535.209,91.404 534.5,90.5C 537.158,80.1835 542.158,71.1835 549.5,63.5C 552.216,63.3215 554.883,62.8215 557.5,62C 558.536,60.2245 558.536,58.3911 557.5,56.5C 563.004,52.7485 569.004,50.0818 575.5,48.5C 573.889,50.8334 574.389,52.5001 577,53.5C 578.5,53.3333 579.333,52.5 579.5,51C 579.252,49.2509 578.252,48.4176 576.5,48.5C 585.204,45.5326 594.204,44.8659 603.5,46.5 Z"/></g>
<g><path style="opacity:1" fill="#df9289" d="M 575.5,48.5 C 575.833,48.5 576.167,48.5 576.5,48.5C 578.252,48.4176 579.252,49.2509 579.5,51C 579.333,52.5 578.5,53.3333 577,53.5C 574.389,52.5001 573.889,50.8334 575.5,48.5 Z"/></g>
<g><path style="opacity:1" fill="#df9289" d="M 602.5,51.5 C 603.833,51.5 605.167,51.5 606.5,51.5C 606.665,54.5184 606.498,57.5184 606,60.5C 604.667,61.8333 603.333,61.8333 602,60.5C 601.264,57.408 601.431,54.408 602.5,51.5 Z"/></g>
<g><path style="opacity:1" fill="#a68eb3" d="M 590.5,52.5 C 593.68,52.1762 594.847,53.5096 594,56.5C 592.106,59.8442 589.273,61.1776 585.5,60.5C 585.343,59.1266 585.51,57.7932 586,56.5C 587.667,55.2668 589.167,53.9335 590.5,52.5 Z"/></g>
<g><path style="opacity:0.55" fill="#eecf9e" d="M 101.5,55.5 C 103.346,55.2222 104.68,55.8888 105.5,57.5C 102.722,59.0255 99.7219,60.0255 96.5,60.5C 95.5713,59.3112 95.238,57.9778 95.5,56.5C 97.7354,56.7947 99.7354,56.4614 101.5,55.5 Z"/></g>
<g><path style="opacity:0.666" fill="#eecf9e" d="M 112.5,55.5 C 115.5,55.5 118.5,55.5 121.5,55.5C 121.5,56.5 121.5,57.5 121.5,58.5C 118.5,58.5 115.5,58.5 112.5,58.5C 112.5,57.5 112.5,56.5 112.5,55.5 Z"/></g>
<g><path style="opacity:0.605" fill="#eecf9e" d="M 129.5,55.5 C 132.455,56.1587 135.455,56.4921 138.5,56.5C 138.657,57.8734 138.49,59.2068 138,60.5C 135.595,59.7256 133.095,59.2256 130.5,59C 129.663,57.9887 129.33,56.8221 129.5,55.5 Z"/></g>
<g><path style="opacity:0.827" fill="#a38cb4" d="M 557.5,56.5 C 558.536,58.3911 558.536,60.2245 557.5,62C 554.883,62.8215 552.216,63.3215 549.5,63.5C 548.212,61.9652 548.212,60.2985 549.5,58.5C 552.096,57.5178 554.762,56.8511 557.5,56.5 Z"/></g>
<g><path style="opacity:0.588" fill="#eecf9e" d="M 83.5,59.5 C 85.1667,59.5 86.8333,59.5 88.5,59.5C 88.5,60.5 88.5,61.5 88.5,62.5C 85.5,63.1667 82.5,63.8333 79.5,64.5C 79.4078,61.6 80.7411,59.9333 83.5,59.5 Z"/></g>
<g><path style="opacity:0.552" fill="#eecf9e" d="M 145.5,59.5 C 149.22,59.2961 152.553,60.2961 155.5,62.5C 155.113,63.7199 154.28,64.3865 153,64.5C 150.567,63.5212 148.067,62.8545 145.5,62.5C 145.5,61.5 145.5,60.5 145.5,59.5 Z"/></g>
<g><path style="opacity:1" fill="#df9289" d="M 568.5,61.5 C 571.09,62.1283 573.423,63.295 575.5,65C 577,67.1667 576.5,68.6667 574,69.5C 569.107,68.5747 567.274,65.908 568.5,61.5 Z"/></g>
<g><path style="opacity:0.538" fill="#eecf9e" d="M 70.5,64.5 C 71.5862,64.62 72.2528,65.2867 72.5,66.5C 70.5299,69.3166 67.8632,70.8166 64.5,71C 63.5494,70.2825 63.3828,69.4491 64,68.5C 66.3143,67.2668 68.4809,65.9334 70.5,64.5 Z"/></g>
<g><path style="opacity:0.538" fill="#eecf9e" d="M 162.5,64.5 C 164.807,65.6534 167.14,66.8201 169.5,68C 170.337,69.0113 170.67,70.1779 170.5,71.5C 167.646,71.0761 164.979,70.0761 162.5,68.5C 161.374,67.1916 161.374,65.8583 162.5,64.5 Z"/></g>
<g><path style="opacity:0.57" fill="#eecf9e" d="M 473.5,68.5 C 476.96,68.5254 480.294,69.1921 483.5,70.5C 483.291,71.086 482.957,71.586 482.5,72C 480.167,72.6667 477.833,72.6667 475.5,72C 474.027,71.2904 473.36,70.1238 473.5,68.5 Z"/></g>
<g><path style="opacity:0.571" fill="#eecf9e" d="M 456.5,69.5 C 459.833,69.5 463.167,69.5 466.5,69.5C 466.5,70.5 466.5,71.5 466.5,72.5C 463.421,72.2601 460.421,72.5934 457.5,73.5C 456.571,72.3112 456.238,70.9778 456.5,69.5 Z"/></g>
<g><path style="opacity:1" fill="#aa90b1" d="M 602.5,68.5 C 604.857,68.3367 607.19,68.5034 609.5,69C 611.211,70.1332 611.711,71.6332 611,73.5C 608.199,74.7946 605.366,74.7946 602.5,73.5C 601.334,71.8327 601.334,70.166 602.5,68.5 Z"/></g>
<g><path style="opacity:0.592" fill="#eecf9e" d="M 490.5,70.5 C 493.865,71.1404 497.198,71.9738 500.5,73C 499.91,74.2989 498.91,75.1322 497.5,75.5C 495.5,75 493.5,74.5 491.5,74C 490.663,72.9887 490.33,71.8221 490.5,70.5 Z"/></g>
<g><path style="opacity:0.54" fill="#eecf9e" d="M 447.5,71.5 C 449.652,72.0768 449.985,73.2435 448.5,75C 446.129,75.7348 443.795,76.5682 441.5,77.5C 439.512,76.7112 439.179,75.5445 440.5,74C 443.004,73.3024 445.337,72.4691 447.5,71.5 Z"/></g>
<g><path style="opacity:0.554" fill="#eecf9e" d="M 55.5,73.5 C 56.9953,73.4148 57.9953,74.0815 58.5,75.5C 56.2026,78.471 53.2026,80.1376 49.5,80.5C 49.3505,79.448 49.5172,78.448 50,77.5C 52.0153,76.3034 53.8487,74.9701 55.5,73.5 Z"/></g>
<g><path style="opacity:0.555" fill="#eecf9e" d="M 176.5,73.5 C 180.874,74.0023 183.541,76.3356 184.5,80.5C 180.934,79.7115 177.934,77.8782 175.5,75C 176.056,74.6174 176.389,74.1174 176.5,73.5 Z"/></g>
<g><path style="opacity:0.542" fill="#eecf9e" d="M 507.5,75.5 C 510.752,76.4594 513.752,77.9594 516.5,80C 515.953,80.9246 515.287,81.7579 514.5,82.5C 512.167,81.3333 509.833,80.1667 507.5,79C 506.316,77.8545 506.316,76.6879 507.5,75.5 Z"/></g>
<g><path style="opacity:1" fill="#eccc9d" d="M 580.5,127.5 C 580.5,126.167 581.167,125.5 582.5,125.5C 603.682,124.651 613.682,113.651 612.5,92.5C 616.489,93.8256 620.489,95.159 624.5,96.5C 633.297,94.8774 635.463,90.2107 631,82.5C 627.667,80.7532 624.833,78.4199 622.5,75.5C 622.887,74.2801 623.72,73.6135 625,73.5C 628.185,75.539 631.519,75.8724 635,74.5C 636.653,74.8198 637.653,75.8198 638,77.5C 646.92,106.071 639.42,129.238 615.5,147C 598.677,156.383 581.343,157.717 563.5,151C 564.602,148.599 564.769,146.099 564,143.5C 560.627,140.256 560.793,137.59 564.5,135.5C 568.298,137.798 571.631,140.632 574.5,144C 582.667,145.167 586.167,141.667 585,133.5C 582.898,131.905 581.398,129.905 580.5,127.5 Z"/></g>
<g><path style="opacity:1" fill="#df9489" d="M 545.5,75.5 C 547.857,75.3367 550.19,75.5034 552.5,76C 554.211,77.1332 554.711,78.6332 554,80.5C 551.599,81.6023 549.099,81.769 546.5,81C 544.365,79.4443 544.032,77.6109 545.5,75.5 Z"/></g>
<g><path style="opacity:0.559" fill="#eecf9e" d="M 430.5,77.5 C 432.686,77.5106 433.519,78.5106 433,80.5C 430.579,81.9606 428.079,83.2939 425.5,84.5C 424.417,83.635 424.251,82.635 425,81.5C 426.812,80.0229 428.645,78.6896 430.5,77.5 Z"/></g>
<g><path style="opacity:0.886" fill="#ebcc9d" d="M 638.5,67.5 C 651.238,82.1084 655.738,99.1084 652,118.5C 645.833,143.333 630.333,158.833 605.5,165C 592.476,166.642 579.81,165.308 567.5,161C 563.42,158.971 559.754,156.471 556.5,153.5C 569.051,160.464 582.384,162.297 596.5,159C 624.13,153.037 640.63,136.203 646,108.5C 648.557,93.8106 646.057,80.1439 638.5,67.5 Z"/></g>
<g><path style="opacity:1" fill="#9169a2" d="M 573.5,78.5 C 573.5,79.5 573.5,80.5 573.5,81.5C 571.833,82.8333 570.167,84.1667 568.5,85.5C 568.167,85.5 567.833,85.5 567.5,85.5C 566.504,85.5858 565.671,85.2524 565,84.5C 565.359,80.6159 567.525,77.9492 571.5,76.5C 572.522,76.8555 573.189,77.5222 573.5,78.5 Z"/></g>
<g><path style="opacity:0.269" fill="#ece3ec" d="M 576.5,77.5 C 581.032,77.1818 585.366,77.5151 589.5,78.5C 583.781,77.8315 578.448,78.8315 573.5,81.5C 573.5,80.5 573.5,79.5 573.5,78.5C 574.895,79.8146 575.895,79.4812 576.5,77.5 Z"/></g>
<g><path style="opacity:0.443" fill="#f1ecf4" d="M 593.5,79.5 C 595.38,79.2291 596.713,79.8958 597.5,81.5C 595.847,81.3404 594.514,80.6737 593.5,79.5 Z"/></g>
<g><path style="opacity:0.524" fill="#eecf9e" d="M 42.5,83.5 C 43.9953,83.4148 44.9953,84.0815 45.5,85.5C 43.517,87.9837 41.3504,90.3171 39,92.5C 38.1667,91.6667 37.3333,90.8333 36.5,90C 38.7059,87.9633 40.7059,85.7966 42.5,83.5 Z"/></g>
<g><path style="opacity:0.54" fill="#eecf9e" d="M 190.5,83.5 C 192.797,85.2941 194.963,87.2941 197,89.5C 197.5,91.6667 196.667,92.5 194.5,92C 193,90.5 191.5,89 190,87.5C 189.421,86.0715 189.588,84.7382 190.5,83.5 Z"/></g>
<g><path style="opacity:0.573" fill="#eecf9e" d="M 293.5,85.5 C 295.167,85.5 296.833,85.5 298.5,85.5C 298.5,86.5 298.5,87.5 298.5,88.5C 295.473,89.5089 292.473,89.5089 289.5,88.5C 289.291,87.914 288.957,87.414 288.5,87C 290.382,86.8019 292.048,86.3019 293.5,85.5 Z"/></g>
<g><path style="opacity:0.594" fill="#eecf9e" d="M 305.5,85.5 C 308.482,85.9629 311.482,86.2962 314.5,86.5C 314.5,87.5 314.5,88.5 314.5,89.5C 312.143,89.6633 309.81,89.4966 307.5,89C 306.027,88.2904 305.36,87.1238 305.5,85.5 Z"/></g>
<g><path style="opacity:0.559" fill="#eecf9e" d="M 415.5,86.5 C 417.103,86.3118 418.437,86.8118 419.5,88C 417.093,90.2848 414.593,92.4514 412,94.5C 410.635,93.4071 410.301,92.0738 411,90.5C 412.992,89.6719 414.492,88.3386 415.5,86.5 Z"/></g>
<g><path style="opacity:0.269" fill="#ece5ee" d="M 567.5,85.5 C 567.833,85.5 568.167,85.5 568.5,85.5C 568.008,87.8185 567.008,89.8185 565.5,91.5C 565.5,90.5 565.5,89.5 565.5,88.5C 566.401,87.7095 567.068,86.7095 567.5,85.5 Z"/></g>
<g><path style="opacity:0.597" fill="#eecf9e" d="M 278.5,88.5 C 279.833,88.5 281.167,88.5 282.5,88.5C 282.5,89.5 282.5,90.5 282.5,91.5C 279.5,92.1667 276.5,92.8333 273.5,93.5C 273.281,92.325 273.614,91.325 274.5,90.5C 276.026,90.0057 277.359,89.339 278.5,88.5 Z"/></g>
<g><path style="opacity:0.618" fill="#eecf9e" d="M 321.5,88.5 C 323.937,88.7563 326.271,89.4229 328.5,90.5C 329.386,91.325 329.719,92.325 329.5,93.5C 326.304,93.1014 323.304,92.1014 320.5,90.5C 320.863,89.8165 321.196,89.1499 321.5,88.5 Z"/></g>
<g><path style="opacity:0.821" fill="#a28cb5" d="M 507.5,90.5 C 510.85,90.335 514.183,90.5017 517.5,91C 520.699,92.679 521.033,94.679 518.5,97C 514.833,97.6667 511.167,97.6667 507.5,97C 506.232,94.8368 506.232,92.6702 507.5,90.5 Z"/></g>
<g><path style="opacity:0.814" fill="#a48cb4" d="M 534.5,90.5 C 535.209,91.404 536.209,91.7373 537.5,91.5C 537.664,94.1873 537.497,96.854 537,99.5C 535.644,100.38 534.144,100.714 532.5,100.5C 531.362,97.6965 531.195,94.6965 532,91.5C 532.671,90.7476 533.504,90.4142 534.5,90.5 Z"/></g>
<g><path style="opacity:0.579" fill="#eecf9e" d="M 264.5,94.5 C 265.5,94.5 266.5,94.5 267.5,94.5C 266.429,97.4897 264.263,99.4897 261,100.5C 259.72,100.387 258.887,99.7199 258.5,98.5C 260.565,97.1433 262.565,95.81 264.5,94.5 Z"/></g>
<g><path style="opacity:0.561" fill="#eecf9e" d="M 335.5,94.5 C 339.735,94.3468 342.568,96.0135 344,99.5C 343.586,99.9574 343.086,100.291 342.5,100.5C 340.5,99.5 338.5,98.5 336.5,97.5C 335.614,96.675 335.281,95.675 335.5,94.5 Z"/></g>
<g><path style="opacity:1" fill="#a58db3" d="M 547.5,93.5 C 553.086,93.8444 555.086,96.6777 553.5,102C 552.216,102.684 551.049,102.517 550,101.5C 548.293,99.0912 547.46,96.4245 547.5,93.5 Z"/></g>
<g><path style="opacity:0.573" fill="#eecf9e" d="M 30.5,96.5 C 31.5,96.5 32.5,96.5 33.5,96.5C 32.6382,99.8852 30.9716,102.885 28.5,105.5C 27.5,105.167 26.8333,104.5 26.5,103.5C 27.8611,101.15 29.1944,98.8162 30.5,96.5 Z"/></g>
<g><path style="opacity:0.538" fill="#eecf9e" d="M 200.5,96.5 C 201.552,96.3505 202.552,96.5172 203.5,97C 205.046,99.2568 206.712,101.424 208.5,103.5C 207.758,104.287 206.925,104.953 206,105.5C 203.474,102.833 201.641,99.8327 200.5,96.5 Z"/></g>
<g><path style="opacity:0.543" fill="#eecf9e" d="M 403.5,97.5 C 404.995,97.4148 405.995,98.0815 406.5,99.5C 404.517,101.984 402.35,104.317 400,106.5C 398.635,105.407 398.301,104.074 399,102.5C 400.707,100.963 402.207,99.2959 403.5,97.5 Z"/></g>
<g><path style="opacity:0.543" fill="#eecf9e" d="M 252.5,102.5 C 254.085,103.002 254.585,104.002 254,105.5C 252.114,108.242 249.614,109.909 246.5,110.5C 247.345,106.985 249.345,104.319 252.5,102.5 Z"/></g>
<g><path style="opacity:0.528" fill="#eecf9e" d="M 349.5,102.5 C 352.563,104.051 355.229,106.218 357.5,109C 356.407,110.365 355.074,110.699 353.5,110C 351.833,108.333 350.167,106.667 348.5,105C 349.252,104.329 349.586,103.496 349.5,102.5 Z"/></g>
<g><path style="opacity:0.135" fill="#f3eff5" d="M 566.5,105.5 C 568.008,107.181 569.008,109.181 569.5,111.5C 567.461,110.089 566.461,108.089 566.5,105.5 Z"/></g>
<g><path style="opacity:0.537" fill="#eecf9e" d="M 21.5,110.5 C 22.5,110.5 23.5,110.5 24.5,110.5C 24.057,114.053 22.557,117.053 20,119.5C 18.9412,119.37 18.1079,118.87 17.5,118C 18.9732,115.552 20.3065,113.052 21.5,110.5 Z"/></g>
<g><path style="opacity:0.57" fill="#eecf9e" d="M 210.5,110.5 C 213.634,111.714 215.634,114.047 216.5,117.5C 215.711,119.488 214.545,119.821 213,118.5C 211.961,116.254 210.794,114.087 209.5,112C 210.056,111.617 210.389,111.117 210.5,110.5 Z"/></g>
<g><path style="opacity:0.595" fill="#eecf9e" d="M 392.5,110.5 C 393.995,110.415 394.995,111.081 395.5,112.5C 394.163,115.324 392.33,117.658 390,119.5C 389.5,119.167 389,118.833 388.5,118.5C 389.86,115.78 391.193,113.114 392.5,110.5 Z"/></g>
<g><path style="opacity:0.894" fill="#dacce0" d="M 569.5,111.5 C 570.833,112.167 571.833,113.167 572.5,114.5C 570.5,114.5 569.5,113.5 569.5,111.5 Z"/></g>
<g><path style="opacity:0.769" fill="#c3adcc" d="M 603.5,110.5 C 602.833,113.167 601.167,114.833 598.5,115.5C 599.833,113.5 601.5,111.833 603.5,110.5 Z"/></g>
<g><path style="opacity:0.58" fill="#eecf9e" d="M 240.5,114.5 C 241.756,114.461 242.756,114.961 243.5,116C 241.931,119.262 239.597,121.262 236.5,122C 236.167,121.667 235.833,121.333 235.5,121C 237.054,118.713 238.721,116.546 240.5,114.5 Z"/></g>
<g><path style="opacity:0.562" fill="#eecf9e" d="M 360.5,114.5 C 363.745,115.745 366.078,118.078 367.5,121.5C 366.635,122.583 365.635,122.749 364.5,122C 361.829,119.816 360.496,117.316 360.5,114.5 Z"/></g>
<g><path style="opacity:0.373" fill="#ece5ef" d="M 575.5,116.5 C 577.153,116.66 578.486,117.326 579.5,118.5C 577.62,118.771 576.287,118.104 575.5,116.5 Z"/></g>
<g><path style="opacity:1" fill="#df9289" d="M 551.5,117.5 C 552.496,117.414 553.329,117.748 554,118.5C 554.498,121.482 554.665,124.482 554.5,127.5C 552.833,127.5 551.167,127.5 549.5,127.5C 549.034,123.838 549.701,120.505 551.5,117.5 Z"/></g>
<g><path style="opacity:0.552" fill="#eecf9e" d="M 14.5,125.5 C 16.2517,125.418 17.2517,126.251 17.5,128C 16.5212,130.433 15.8545,132.933 15.5,135.5C 14.5,135.5 13.5,135.5 12.5,135.5C 12.5465,132.031 13.2132,128.698 14.5,125.5 Z"/></g>
<g><path style="opacity:0.552" fill="#eecf9e" d="M 217.5,125.5 C 218.496,125.414 219.329,125.748 220,126.5C 220.735,128.871 221.568,131.205 222.5,133.5C 222.167,134.5 221.5,135.167 220.5,135.5C 218.875,133.09 217.542,130.423 216.5,127.5C 216.863,126.817 217.196,126.15 217.5,125.5 Z"/></g>
<g><path style="opacity:0.558" fill="#eecf9e" d="M 384.5,125.5 C 385.995,125.415 386.995,126.081 387.5,127.5C 386.722,130.539 385.388,133.206 383.5,135.5C 382.5,135.167 381.833,134.5 381.5,133.5C 382.513,130.812 383.513,128.146 384.5,125.5 Z"/></g>
<g><path style="opacity:1" fill="#be9b9f" d="M 582.5,125.5 C 581.167,125.5 580.5,126.167 580.5,127.5C 579.596,126.791 579.263,125.791 579.5,124.5C 580.791,124.263 581.791,124.596 582.5,125.5 Z"/></g>
<g><path style="opacity:0.543" fill="#eecf9e" d="M 231.5,127.5 C 233.252,127.418 234.252,128.251 234.5,130C 233.934,133.719 231.934,135.885 228.5,136.5C 229.213,133.406 230.213,130.406 231.5,127.5 Z"/></g>
<g><path style="opacity:0.56" fill="#eecf9e" d="M 369.5,127.5 C 370.496,127.414 371.329,127.748 372,128.5C 373.341,131.022 374.174,133.689 374.5,136.5C 373.325,136.719 372.325,136.386 371.5,135.5C 369.516,132.956 368.849,130.289 369.5,127.5 Z"/></g>
<g><path style="opacity:0.846" fill="#a28cb4" d="M 532.5,140.5 C 536.677,139.842 538.177,141.508 537,145.5C 535.285,147.759 533.452,149.926 531.5,152C 526.917,152.934 525.417,151.1 527,146.5C 529.04,144.63 530.873,142.63 532.5,140.5 Z"/></g>
<g><path style="opacity:0.621" fill="#eecf9e" d="M 222.5,141.5 C 224.045,142.23 224.878,143.563 225,145.5C 226.464,141.633 227.631,141.8 228.5,146C 228.219,148.292 227.552,150.458 226.5,152.5C 225.264,151.754 223.93,151.421 222.5,151.5C 221.54,148.098 221.54,144.765 222.5,141.5 Z"/></g>
<g><path style="opacity:0.61" fill="#eecf9e" d="M 379.5,141.5 C 380.643,141.908 381.643,142.575 382.5,143.5C 381.787,145.776 381.287,148.109 381,150.5C 379.559,151.26 378.059,151.926 376.5,152.5C 375.152,149.602 374.652,146.602 375,143.5C 376.716,142.448 377.716,143.114 378,145.5C 378.791,144.255 379.291,142.922 379.5,141.5 Z"/></g>
<g><path style="opacity:0.605" fill="#eecf9e" d="M 9.5,142.5 C 10.8734,142.343 12.2068,142.51 13.5,143C 12.7256,145.405 12.2256,147.905 12,150.5C 10.9887,151.337 9.82207,151.67 8.5,151.5C 9.15872,148.545 9.49205,145.545 9.5,142.5 Z"/></g>
<g><path style="opacity:0.587" fill="#eecf9e" d="M 8.5,158.5 C 9.5,158.5 10.5,158.5 11.5,158.5C 11.5,160.167 11.5,161.833 11.5,163.5C 10.5,163.5 9.5,163.5 8.5,163.5C 8.5,161.833 8.5,160.167 8.5,158.5 Z"/></g>
<g><path style="opacity:0.725" fill="#eecf9e" d="M 223.5,158.5 C 224.5,158.5 225.5,158.5 226.5,158.5C 226.5,160.167 226.5,161.833 226.5,163.5C 225.5,163.5 224.5,163.5 223.5,163.5C 223.5,161.833 223.5,160.167 223.5,158.5 Z"/></g>
<g><path style="opacity:0.483" fill="#eecf9e" d="M 376.5,158.5 C 377.833,158.5 379.167,158.5 380.5,158.5C 380.5,160.167 380.5,161.833 380.5,163.5C 379.167,163.5 377.833,163.5 376.5,163.5C 376.5,161.833 376.5,160.167 376.5,158.5 Z"/></g>
<g><path style="opacity:0.89" fill="#a18dbc" d="M 407.5,179.5 C 414.5,179.5 421.5,179.5 428.5,179.5C 428.5,210.5 428.5,241.5 428.5,272.5C 421.578,272.812 414.744,272.479 408,271.5C 407.5,240.835 407.333,210.168 407.5,179.5 Z"/></g>
<g><path style="opacity:0.912" fill="#8c63a3" d="M 617.5,181.5 C 643.506,181.329 654.673,193.996 651,219.5C 649.254,223.327 647.254,226.993 645,230.5C 636.124,238.378 626.957,245.878 617.5,253C 629.162,253.5 640.829,253.667 652.5,253.5C 652.5,259.833 652.5,266.167 652.5,272.5C 630.5,272.5 608.5,272.5 586.5,272.5C 586.334,266.824 586.501,261.157 587,255.5C 601.255,244.583 614.922,232.916 628,220.5C 631.661,215.261 631.994,209.928 629,204.5C 623.05,199.386 616.883,199.219 610.5,204C 607.645,206.855 604.812,209.688 602,212.5C 596.911,209.033 592.078,205.199 587.5,201C 594.85,190.103 604.85,183.603 617.5,181.5 Z"/></g>
<g><path style="opacity:0.907" fill="#8c63a3" d="M 338.5,252.5 C 338.5,254.167 338.5,255.833 338.5,257.5C 338.263,258.791 338.596,259.791 339.5,260.5C 339.664,263.187 339.497,265.854 339,268.5C 328.044,275.401 317.377,275.068 307,267.5C 304.211,264.021 302.878,260.021 303,255.5C 302.5,244.172 302.333,232.838 302.5,221.5C 299.833,221.5 297.167,221.5 294.5,221.5C 294.5,215.5 294.5,209.5 294.5,203.5C 297.167,203.5 299.833,203.5 302.5,203.5C 302.5,197.833 302.5,192.167 302.5,186.5C 309.5,186.5 316.5,186.5 323.5,186.5C 323.5,192.167 323.5,197.833 323.5,203.5C 328.833,203.5 334.167,203.5 339.5,203.5C 339.5,209.5 339.5,215.5 339.5,221.5C 334.167,221.5 328.833,221.5 323.5,221.5C 323.334,231.839 323.5,242.172 324,252.5C 325.648,254.028 327.648,254.695 330,254.5C 333.024,254.519 335.858,253.853 338.5,252.5 Z"/></g>
<g><path style="opacity:0.924" fill="#a28dbd" d="M 549.5,186.5 C 556.5,186.5 563.5,186.5 570.5,186.5C 570.807,192.093 570.473,197.593 569.5,203C 574.823,203.499 580.156,203.666 585.5,203.5C 585.5,209.5 585.5,215.5 585.5,221.5C 580.156,221.334 574.823,221.501 569.5,222C 570.833,231.333 570.833,240.667 569.5,250C 570.167,251.333 570.833,252.667 571.5,254C 575.996,254.852 580.33,254.352 584.5,252.5C 585.833,258.167 585.833,263.833 584.5,269.5C 575.236,274.601 565.903,274.768 556.5,270C 553.894,268.062 552.061,265.562 551,262.5C 549.554,248.907 549.054,235.24 549.5,221.5C 544.988,223.105 540.321,224.271 535.5,225C 528.309,228.531 524.475,234.365 524,242.5C 523.5,252.494 523.334,262.494 523.5,272.5C 516.833,272.5 510.167,272.5 503.5,272.5C 503.5,249.5 503.5,226.5 503.5,203.5C 510.167,203.5 516.833,203.5 523.5,203.5C 523.335,206.85 523.502,210.183 524,213.5C 530.035,203.987 538.535,200.653 549.5,203.5C 549.5,197.833 549.5,192.167 549.5,186.5 Z"/></g>
<g><path style="opacity:0.91" fill="#8c64a4" d="M 30.5,202.5 C 37.3218,202.124 43.9885,202.957 50.5,205C 54.6437,206.236 58.3104,208.236 61.5,211C 59.3904,216.053 56.8904,220.886 54,225.5C 48.2455,222.082 42.0788,219.748 35.5,218.5C 30.4266,218.381 28.76,220.548 30.5,225C 39.7844,228.425 48.7844,232.425 57.5,237C 66.7356,249.639 65.069,260.639 52.5,270C 35.9056,276.099 20.9056,273.433 7.5,262C 10.3237,257.681 13.3237,253.514 16.5,249.5C 22.9785,253.574 29.9785,256.241 37.5,257.5C 42.5687,257.595 44.7353,255.262 44,250.5C 35.704,247.733 27.5374,244.567 19.5,241C 7.59002,229.743 7.59002,218.41 19.5,207C 23.1574,205.178 26.8241,203.678 30.5,202.5 Z"/></g>
<g><path style="opacity:0.912" fill="#8c64a4" d="M 188.5,202.5 C 212.35,200.837 225.85,211.837 229,235.5C 232.58,211.587 246.414,200.754 270.5,203C 283.741,206.576 291.908,215.076 295,228.5C 296.475,234.032 296.641,239.532 295.5,245C 280.167,245.333 264.833,245.667 249.5,246C 253.754,254.959 260.754,258.293 270.5,256C 274.239,254.587 277.739,252.753 281,250.5C 285.425,252.922 289.258,256.089 292.5,260C 287.71,267.107 281.043,271.441 272.5,273C 245.448,275.605 230.948,263.439 229,236.5C 228.502,239.482 228.335,242.482 228.5,245.5C 213.152,245.167 197.819,245.501 182.5,246.5C 186.668,255.58 193.668,258.746 203.5,256C 207.095,254.287 210.595,252.453 214,250.5C 217.655,253.486 221.322,256.486 225,259.5C 224.454,262.093 222.954,264.26 220.5,266C 206.259,275.223 191.592,275.89 176.5,268C 162.105,256.229 157.938,241.396 164,223.5C 168.783,212.385 176.95,205.385 188.5,202.5 Z M 190.5,219.5 C 199.677,218.084 205.677,221.751 208.5,230.5C 199.859,231.498 191.192,231.831 182.5,231.5C 183.206,226.138 185.873,222.138 190.5,219.5 Z M 258.5,219.5 C 268.301,217.884 273.967,221.884 275.5,231.5C 266.808,231.831 258.141,231.498 249.5,230.5C 250.88,225.354 253.88,221.687 258.5,219.5 Z"/></g>
<g><path style="opacity:0.912" fill="#a18cbc" d="M 339.5,260.5 C 339.737,259.209 339.404,258.209 338.5,257.5C 338.5,255.833 338.5,254.167 338.5,252.5C 338.183,242.662 342.517,235.828 351.5,232C 361.443,228.888 371.443,228.721 381.5,231.5C 380.407,223.59 375.74,219.923 367.5,220.5C 361.269,220.861 355.269,222.194 349.5,224.5C 346.563,219.23 345.23,213.73 345.5,208C 360.928,200.915 376.262,200.915 391.5,208C 396.86,212.219 400.027,217.719 401,224.5C 401.5,240.497 401.667,256.497 401.5,272.5C 394.833,272.5 388.167,272.5 381.5,272.5C 381.662,270.473 381.495,268.473 381,266.5C 370.119,274.809 358.619,275.642 346.5,269C 343.546,266.559 341.213,263.725 339.5,260.5 Z M 365.5,242.5 C 370.58,242.25 375.58,242.75 380.5,244C 382.915,251.949 379.915,256.616 371.5,258C 362.318,260.139 358.152,256.639 359,247.5C 360.805,245.174 362.972,243.508 365.5,242.5 Z"/></g>
<g><path style="opacity:0.91" fill="#a18dbc" d="M 459.5,202.5 C 488.677,202.013 502.011,216.346 499.5,245.5C 484.152,245.167 468.819,245.501 453.5,246.5C 457.752,255.321 464.752,258.487 474.5,256C 478.063,254.302 481.563,252.468 485,250.5C 488.655,253.486 492.322,256.486 496,259.5C 495.454,262.093 493.954,264.26 491.5,266C 477.259,275.223 462.592,275.89 447.5,268C 433.809,257.282 429.309,243.449 434,226.5C 438.217,213.778 446.717,205.778 459.5,202.5 Z M 461.5,219.5 C 470.99,217.574 476.99,221.241 479.5,230.5C 470.859,231.498 462.192,231.831 453.5,231.5C 454.206,226.138 456.873,222.138 461.5,219.5 Z"/></g>
<g><path style="opacity:0.915" fill="#8c64a4" d="M 60.5,203.5 C 67.5316,203.17 74.5316,203.503 81.5,204.5C 84.5448,216.356 88.0448,228.022 92,239.5C 95.9468,227.935 99.6134,216.268 103,204.5C 109.111,203.191 115.278,203.191 121.5,204.5C 125.487,216.781 129.321,229.114 133,241.5C 136.401,229.132 139.901,216.799 143.5,204.5C 150.476,203.336 157.476,203.169 164.5,204C 157.258,226.464 150.092,248.964 143,271.5C 136.667,272.833 130.333,272.833 124,271.5C 120,258.833 116,246.167 112,233.5C 108.008,246.469 104.175,259.469 100.5,272.5C 93.9102,272.811 87.4102,272.478 81,271.5C 74.0605,248.85 67.2272,226.183 60.5,203.5 Z"/></g>
</svg>
