<?xml version="1.0" encoding="UTF-8"?>
<!DOCTYPE svg PUBLIC "-//W3C//DTD SVG 1.1//EN" "http://www.w3.org/Graphics/SVG/1.1/DTD/svg11.dtd">
<svg xmlns="http://www.w3.org/2000/svg" version="1.1" width="382px" height="174px" style="shape-rendering:geometricPrecision; text-rendering:geometricPrecision; image-rendering:optimizeQuality; fill-rule:evenodd; clip-rule:evenodd" xmlns:xlink="http://www.w3.org/1999/xlink">
<g><path style="opacity:1" fill="#2b81fe" d="M 104.5,109.5 C 101.452,107.881 98.1188,106.881 94.5,106.5C 98.1667,106.5 101.833,106.5 105.5,106.5C 106.224,88.395 98.2238,75.895 81.5,69C 76.89,67.7095 72.2233,67.3762 67.5,68C 66.9011,69.6225 66.2344,71.1225 65.5,72.5C 65.7678,70.901 65.4345,69.5676 64.5,68.5C 73.7633,42.2317 91.43,34.3984 117.5,45C 124.912,49.9831 129.745,56.8164 132,65.5C 132.5,79.496 132.667,93.496 132.5,107.5C 122.903,106.903 113.57,107.569 104.5,109.5 Z"/></g>
<g><path style="opacity:0.898" fill="#030714" d="M 306.5,61.5 C 325.796,59.8081 336.796,68.4748 339.5,87.5C 335.915,108.638 323.582,116.804 302.5,112C 286.853,103.535 282.353,91.0348 289,74.5C 293.049,67.5993 298.882,63.266 306.5,61.5 Z M 309.5,69.5 C 318.454,69.3002 324.621,73.3002 328,81.5C 330.618,94.6076 325.452,102.608 312.5,105.5C 297.555,101.276 293.055,91.9425 299,77.5C 301.806,73.8526 305.306,71.1859 309.5,69.5 Z"/></g>
<g><path style="opacity:0.911" fill="#030714" d="M 156.5,62.5 C 169.5,62.5 182.5,62.5 195.5,62.5C 195.5,65.1667 195.5,67.8333 195.5,70.5C 190.5,70.5 185.5,70.5 180.5,70.5C 180.5,84.5 180.5,98.5 180.5,112.5C 177.167,112.5 173.833,112.5 170.5,112.5C 170.5,98.5 170.5,84.5 170.5,70.5C 165.833,70.5 161.167,70.5 156.5,70.5C 156.5,67.8333 156.5,65.1667 156.5,62.5 Z"/></g>
<g><path style="opacity:0.885" fill="#030714" d="M 207.5,62.5 C 208.831,69.4682 209.497,76.8016 209.5,84.5C 209.333,91.8333 209.167,99.1667 209,106.5C 207.189,110.655 204.023,112.655 199.5,112.5C 199.333,98.8293 199.5,85.1626 200,71.5C 200.951,67.0611 203.451,64.0611 207.5,62.5 Z"/></g>
<g><path style="opacity:0.908" fill="#030714" d="M 218.5,62.5 C 226.84,62.3336 235.173,62.5003 243.5,63C 257.368,65.2175 264.368,73.3841 264.5,87.5C 264.691,100.305 258.691,108.472 246.5,112C 237.173,112.5 227.839,112.666 218.5,112.5C 218.5,95.8333 218.5,79.1667 218.5,62.5 Z M 228.5,70.5 C 236.011,69.9013 243.011,71.4013 249.5,75C 256.446,84.0105 256.113,92.6772 248.5,101C 242.216,104.115 235.549,105.282 228.5,104.5C 228.5,93.1667 228.5,81.8333 228.5,70.5 Z"/></g>
<g><path style="opacity:0.879" fill="#030714" d="M 277.5,62.5 C 278.5,62.5 279.5,62.5 280.5,62.5C 280.667,76.504 280.5,90.504 280,104.5C 279.096,109.907 275.929,112.574 270.5,112.5C 270.333,98.1628 270.5,83.8295 271,69.5C 272.018,65.9853 274.185,63.652 277.5,62.5 Z"/></g>
<g><path style="opacity:1" fill="#15c0fe" d="M 64.5,68.5 C 65.4345,69.5676 65.7678,70.901 65.5,72.5C 66.6545,91.3073 76.3211,102.641 94.5,106.5C 98.1188,106.881 101.452,107.881 104.5,109.5C 101.426,122.408 93.4261,130.575 80.5,134C 66.504,134.5 52.504,134.667 38.5,134.5C 38.3334,120.496 38.5001,106.496 39,92.5C 42.5434,79.1205 51.0434,71.1205 64.5,68.5 Z"/></g>
<g><path style="opacity:1" fill="#135eeb" d="M 94.5,106.5 C 76.3211,102.641 66.6545,91.3073 65.5,72.5C 66.2344,71.1225 66.9011,69.6225 67.5,68C 72.2233,67.3762 76.89,67.7095 81.5,69C 98.2238,75.895 106.224,88.395 105.5,106.5C 101.833,106.5 98.1667,106.5 94.5,106.5 Z"/></g>
</svg>
