<?xml version="1.0" encoding="UTF-8"?>
<!DOCTYPE svg PUBLIC "-//W3C//DTD SVG 1.1//EN" "http://www.w3.org/Graphics/SVG/1.1/DTD/svg11.dtd">
<svg xmlns="http://www.w3.org/2000/svg" version="1.1" width="800px" height="800px" style="shape-rendering:geometricPrecision; text-rendering:geometricPrecision; image-rendering:optimizeQuality; fill-rule:evenodd; clip-rule:evenodd" xmlns:xlink="http://www.w3.org/1999/xlink">
<g><path style="opacity:1" fill="#0078b9" d="M 590.5,16.5 C 587.386,17.0913 584.886,18.758 583,21.5C 575.335,31.8081 571.835,43.4747 572.5,56.5C 571.167,56.5 569.833,56.5 568.5,56.5C 568.323,68.8536 568.656,81.1869 569.5,93.5C 567.5,93.5 565.5,93.5 563.5,93.5C 563.5,106.167 563.5,118.833 563.5,131.5C 561.833,131.5 560.167,131.5 558.5,131.5C 558.5,143.833 558.5,156.167 558.5,168.5C 555.167,168.5 551.833,168.5 548.5,168.5C 548.5,180.833 548.5,193.167 548.5,205.5C 544.5,205.5 540.5,205.5 536.5,205.5C 536.5,218.167 536.5,230.833 536.5,243.5C 457.833,243.5 379.167,243.5 300.5,243.5C 383.271,167.901 465.937,92.0678 548.5,16C 551.065,13.9205 553.732,12.0872 556.5,10.5C 564.736,6.67956 573.069,6.51289 581.5,10C 584.961,11.6428 587.961,13.8095 590.5,16.5 Z"/></g>
<g><path style="opacity:1" fill="#0074b5" d="M 590.5,16.5 C 597.373,22.935 600.373,30.935 599.5,40.5C 597.97,42.9411 595.637,44.1078 592.5,44C 590.574,48.9597 589.407,54.1264 589,59.5C 588.5,70.8284 588.333,82.1618 588.5,93.5C 587.5,93.5 586.5,93.5 585.5,93.5C 585.5,106.167 585.5,118.833 585.5,131.5C 584.167,131.5 582.833,131.5 581.5,131.5C 581.5,143.833 581.5,156.167 581.5,168.5C 580.167,168.5 578.833,168.5 577.5,168.5C 577.5,185.167 577.5,201.833 577.5,218.5C 576.167,218.5 574.833,218.5 573.5,218.5C 573.5,225.167 573.5,231.833 573.5,238.5C 516.167,281.833 458.833,325.167 401.5,368.5C 396.041,368.897 390.708,368.397 385.5,367C 370.013,354.758 354.347,342.758 338.5,331C 335.167,330.667 331.833,330.333 328.5,330C 313.013,317.758 297.347,305.758 281.5,294C 277.5,293.667 273.5,293.333 269.5,293C 265.492,289.335 261.159,286.168 256.5,283.5C 270.842,269.826 285.508,256.492 300.5,243.5C 379.167,243.5 457.833,243.5 536.5,243.5C 536.5,230.833 536.5,218.167 536.5,205.5C 540.5,205.5 544.5,205.5 548.5,205.5C 548.5,193.167 548.5,180.833 548.5,168.5C 551.833,168.5 555.167,168.5 558.5,168.5C 558.5,156.167 558.5,143.833 558.5,131.5C 560.167,131.5 561.833,131.5 563.5,131.5C 563.5,118.833 563.5,106.167 563.5,93.5C 565.5,93.5 567.5,93.5 569.5,93.5C 568.656,81.1869 568.323,68.8536 568.5,56.5C 569.833,56.5 571.167,56.5 572.5,56.5C 571.835,43.4747 575.335,31.8081 583,21.5C 584.886,18.758 587.386,17.0913 590.5,16.5 Z"/></g>
<g><path style="opacity:1" fill="#006dac" d="M 599.5,40.5 C 599.5,70.8333 599.5,101.167 599.5,131.5C 599.5,156.167 599.5,180.833 599.5,205.5C 599.5,210.167 599.5,214.833 599.5,219.5C 590.508,225.335 581.841,231.668 573.5,238.5C 573.5,231.833 573.5,225.167 573.5,218.5C 574.833,218.5 576.167,218.5 577.5,218.5C 577.5,201.833 577.5,185.167 577.5,168.5C 578.833,168.5 580.167,168.5 581.5,168.5C 581.5,156.167 581.5,143.833 581.5,131.5C 582.833,131.5 584.167,131.5 585.5,131.5C 585.5,118.833 585.5,106.167 585.5,93.5C 586.5,93.5 587.5,93.5 588.5,93.5C 588.333,82.1618 588.5,70.8284 589,59.5C 589.407,54.1264 590.574,48.9597 592.5,44C 595.637,44.1078 597.97,42.9411 599.5,40.5 Z"/></g>
<g><path style="opacity:1" fill="#25b1f2" d="M 798.5,120.5 C 798.5,124.167 798.5,127.833 798.5,131.5C 732.167,131.5 665.833,131.5 599.5,131.5C 599.5,101.167 599.5,70.8333 599.5,40.5C 600.373,30.935 597.373,22.935 590.5,16.5C 587.961,13.8095 584.961,11.6428 581.5,10C 573.069,6.51289 564.736,6.67956 556.5,10.5C 567.812,2.34214 580.479,-0.491194 594.5,2C 597.893,2.79768 601.226,3.79768 604.5,5C 661.92,32.474 719.253,60.1407 776.5,88C 788.685,95.5343 796.019,106.368 798.5,120.5 Z"/></g>
<g><path style="opacity:0.999" fill="#22a5f1" d="M 798.5,120.5 C 798.833,120.5 799.167,120.5 799.5,120.5C 799.5,212.5 799.5,304.5 799.5,396.5C 798.501,461.998 798.168,527.665 798.5,593.5C 732.167,593.5 665.833,593.5 599.5,593.5C 599.5,588.833 599.5,584.167 599.5,579.5C 599.5,509.167 599.5,438.833 599.5,368.5C 600.493,376.65 600.826,384.983 600.5,393.5C 666.5,393.5 732.5,393.5 798.5,393.5C 798.5,330.833 798.5,268.167 798.5,205.5C 798.5,180.833 798.5,156.167 798.5,131.5C 798.5,127.833 798.5,124.167 798.5,120.5 Z"/></g>
<g><path style="opacity:1" fill="#25aff3" d="M 599.5,131.5 C 665.833,131.5 732.167,131.5 798.5,131.5C 798.5,156.167 798.5,180.833 798.5,205.5C 732.167,205.5 665.833,205.5 599.5,205.5C 599.5,180.833 599.5,156.167 599.5,131.5 Z"/></g>
<g><path style="opacity:1" fill="#23abf2" d="M 599.5,205.5 C 665.833,205.5 732.167,205.5 798.5,205.5C 798.5,268.167 798.5,330.833 798.5,393.5C 732.5,393.5 666.5,393.5 600.5,393.5C 600.826,384.983 600.493,376.65 599.5,368.5C 599.5,318.833 599.5,269.167 599.5,219.5C 599.5,214.833 599.5,210.167 599.5,205.5 Z"/></g>
<g><path style="opacity:1" fill="#018ed3" d="M 184.5,265.5 C 184.414,266.496 184.748,267.329 185.5,268C 123.43,268.17 61.4296,268.67 -0.5,269.5C -0.5,265.5 -0.5,261.5 -0.5,257.5C 1.28739,253.925 3.12073,250.259 5,246.5C 20.5318,231.3 36.3651,216.467 52.5,202C 66.7848,190.527 81.7848,189.527 97.5,199C 126.569,221.187 155.569,243.354 184.5,265.5 Z"/></g>
<g><path style="opacity:0.999" fill="#008bd3" d="M 184.5,265.5 C 201.013,277.59 217.346,289.924 233.5,302.5C 272.32,332.742 311.32,362.742 350.5,392.5C 274.668,393.499 198.668,393.833 122.5,393.5C 85.7039,360.54 49.0373,327.374 12.5,294C 6.28072,288.64 1.94738,282.14 -0.5,274.5C -0.5,272.833 -0.5,271.167 -0.5,269.5C 61.4296,268.67 123.43,268.17 185.5,268C 184.748,267.329 184.414,266.496 184.5,265.5 Z"/></g>
<g><path style="opacity:0.999" fill="#006cac" d="M 256.5,283.5 C 261.159,286.168 265.492,289.335 269.5,293C 273.5,293.333 277.5,293.667 281.5,294C 297.347,305.758 313.013,317.758 328.5,330C 331.833,330.333 335.167,330.667 338.5,331C 354.347,342.758 370.013,354.758 385.5,367C 390.708,368.397 396.041,368.897 401.5,368.5C 393.143,375.519 384.476,382.185 375.5,388.5C 373.345,388.628 371.345,388.128 369.5,387C 350.047,373.757 331.047,359.757 312.5,345C 309.956,343.908 307.289,343.241 304.5,343C 294.347,334.758 284.014,326.758 273.5,319C 262.195,312.865 251.862,305.365 242.5,296.5C 246.539,291.46 251.206,287.127 256.5,283.5 Z"/></g>
<g><path style="opacity:0.999" fill="#0066a5" d="M 242.5,296.5 C 251.862,305.365 262.195,312.865 273.5,319C 284.014,326.758 294.347,334.758 304.5,343C 307.289,343.241 309.956,343.908 312.5,345C 331.047,359.757 350.047,373.757 369.5,387C 371.345,388.128 373.345,388.628 375.5,388.5C 372.414,391.223 369.08,393.723 365.5,396C 363.859,397.129 362.859,398.629 362.5,400.5C 358.246,398.251 354.246,395.585 350.5,392.5C 311.32,362.742 272.32,332.742 233.5,302.5C 236.5,300.5 239.5,298.5 242.5,296.5 Z"/></g>
<g><path style="opacity:1" fill="#0086d0" d="M 350.5,392.5 C 354.246,395.585 358.246,398.251 362.5,400.5C 420.5,444.5 478.5,488.5 536.5,532.5C 536.5,540.167 536.5,547.833 536.5,555.5C 457.833,555.5 379.167,555.5 300.5,555.5C 278.5,535.833 256.5,516.167 234.5,496.5C 199.792,463.458 164.459,431.124 128.5,399.5C 126.194,397.861 124.194,395.861 122.5,393.5C 198.668,393.833 274.668,393.499 350.5,392.5 Z"/></g>
<g><path style="opacity:1" fill="#209ff0" d="M 799.5,396.5 C 799.5,490.5 799.5,584.5 799.5,678.5C 796.241,690.838 789.574,701.005 779.5,709C 756.998,721.251 733.998,732.418 710.5,742.5C 673.5,742.5 636.5,742.5 599.5,742.5C 599.5,692.833 599.5,643.167 599.5,593.5C 665.833,593.5 732.167,593.5 798.5,593.5C 798.168,527.665 798.501,461.998 799.5,396.5 Z"/></g>
<g><path style="opacity:0.999" fill="#0065a3" d="M 128.5,399.5 C 164.459,431.124 199.792,463.458 234.5,496.5C 227.24,501.087 220.24,506.087 213.5,511.5C 205.042,501.879 195.709,493.046 185.5,485C 184.167,483.667 182.833,482.333 181.5,481C 181.833,480.667 182.167,480.333 182.5,480C 173.833,472 165.167,464 156.5,456C 157.833,455.667 159.167,455.333 160.5,455C 151.312,447.235 142.312,439.235 133.5,431C 133.833,430.667 134.167,430.333 134.5,430C 128.62,423.82 122.453,417.986 116,412.5C 115.329,413.252 114.496,413.586 113.5,413.5C 118.5,408.833 123.5,404.167 128.5,399.5 Z"/></g>
<g><path style="opacity:0.998" fill="#006daf" d="M 213.5,511.5 C 175.235,540.646 136.902,569.813 98.5,599C 85.2828,608.195 71.6161,608.862 57.5,601C 39.5249,585.415 22.0249,569.248 5,552.5C 3.12073,548.741 1.28739,545.075 -0.5,541.5C -0.5,535.833 -0.5,530.167 -0.5,524.5C 1.94738,516.86 6.28072,510.36 12.5,505C 46.3362,474.663 80.0028,444.163 113.5,413.5C 114.496,413.586 115.329,413.252 116,412.5C 122.453,417.986 128.62,423.82 134.5,430C 134.167,430.333 133.833,430.667 133.5,431C 142.312,439.235 151.312,447.235 160.5,455C 159.167,455.333 157.833,455.667 156.5,456C 165.167,464 173.833,472 182.5,480C 182.167,480.333 181.833,480.667 181.5,481C 182.833,482.333 184.167,483.667 185.5,485C 195.709,493.046 205.042,501.879 213.5,511.5 Z"/></g>
<g><path style="opacity:0.999" fill="#007ecc" d="M 536.5,532.5 C 547.053,540.269 557.386,548.269 567.5,556.5C 567.301,576.852 566.634,597.186 565.5,617.5C 563.833,617.5 562.167,617.5 560.5,617.5C 560.5,630.167 560.5,642.833 560.5,655.5C 558.833,655.5 557.167,655.5 555.5,655.5C 555.5,663.833 555.5,672.167 555.5,680.5C 553.167,680.5 550.833,680.5 548.5,680.5C 548.5,688.833 548.5,697.167 548.5,705.5C 544.5,705.5 540.5,705.5 536.5,705.5C 536.635,713.95 535.968,722.283 534.5,730.5C 520.167,730.5 505.833,730.5 491.5,730.5C 459.174,701.507 427.174,672.174 395.5,642.5C 438.833,642.5 482.167,642.5 525.5,642.5C 525.5,621.833 525.5,601.167 525.5,580.5C 529.167,580.5 532.833,580.5 536.5,580.5C 536.5,572.167 536.5,563.833 536.5,555.5C 536.5,547.833 536.5,540.167 536.5,532.5 Z"/></g>
<g><path style="opacity:1" fill="#0081cf" d="M 300.5,555.5 C 379.167,555.5 457.833,555.5 536.5,555.5C 536.5,563.833 536.5,572.167 536.5,580.5C 532.833,580.5 529.167,580.5 525.5,580.5C 525.5,601.167 525.5,621.833 525.5,642.5C 482.167,642.5 438.833,642.5 395.5,642.5C 363.508,613.84 331.841,584.84 300.5,555.5 Z"/></g>
<g><path style="opacity:1" fill="#0077c2" d="M 567.5,556.5 C 575.807,562.147 583.807,568.147 591.5,574.5C 592.412,590.978 592.079,607.478 590.5,624C 589.281,659.491 588.614,694.991 588.5,730.5C 587.5,730.5 586.5,730.5 585.5,730.5C 585.379,743.064 587.879,755.064 593,766.5C 594.451,768.464 596.284,769.797 598.5,770.5C 594.437,781.897 586.437,788.564 574.5,790.5C 571.482,790.665 568.482,790.498 565.5,790C 560.36,783.219 556.693,775.719 554.5,767.5C 555.5,767.5 556.5,767.5 557.5,767.5C 556.307,750.844 556.307,734.177 557.5,717.5C 559.167,717.5 560.833,717.5 562.5,717.5C 564.165,684.196 565.165,650.862 565.5,617.5C 566.634,597.186 567.301,576.852 567.5,556.5 Z"/></g>
<g><path style="opacity:0.999" fill="#007ac9" d="M 565.5,617.5 C 565.165,650.862 564.165,684.196 562.5,717.5C 560.833,717.5 559.167,717.5 557.5,717.5C 556.307,734.177 556.307,750.844 557.5,767.5C 556.5,767.5 555.5,767.5 554.5,767.5C 556.693,775.719 560.36,783.219 565.5,790C 568.482,790.498 571.482,790.665 574.5,790.5C 569.04,791.508 563.707,791.508 558.5,790.5C 535.545,771.213 513.212,751.213 491.5,730.5C 505.833,730.5 520.167,730.5 534.5,730.5C 535.968,722.283 536.635,713.95 536.5,705.5C 540.5,705.5 544.5,705.5 548.5,705.5C 548.5,697.167 548.5,688.833 548.5,680.5C 550.833,680.5 553.167,680.5 555.5,680.5C 555.5,672.167 555.5,663.833 555.5,655.5C 557.167,655.5 558.833,655.5 560.5,655.5C 560.5,642.833 560.5,630.167 560.5,617.5C 562.167,617.5 563.833,617.5 565.5,617.5 Z"/></g>
<g><path style="opacity:1" fill="#0070b7" d="M 591.5,574.5 C 594.184,576.193 596.851,577.86 599.5,579.5C 599.5,584.167 599.5,588.833 599.5,593.5C 599.5,643.167 599.5,692.833 599.5,742.5C 599.687,751.861 599.354,761.195 598.5,770.5C 596.284,769.797 594.451,768.464 593,766.5C 587.879,755.064 585.379,743.064 585.5,730.5C 586.5,730.5 587.5,730.5 588.5,730.5C 588.614,694.991 589.281,659.491 590.5,624C 592.079,607.478 592.412,590.978 591.5,574.5 Z"/></g>
<g><path style="opacity:1" fill="#1e9aec" d="M 599.5,742.5 C 636.5,742.5 673.5,742.5 710.5,742.5C 673.622,761.104 636.289,778.937 598.5,796C 584.39,799.341 571.056,797.508 558.5,790.5C 563.707,791.508 569.04,791.508 574.5,790.5C 586.437,788.564 594.437,781.897 598.5,770.5C 599.354,761.195 599.687,751.861 599.5,742.5 Z"/></g>
</svg>
